<svg width="35" height="35" viewBox="0 0 35 35" fill="none" xmlns="http://www.w3.org/2000/svg">
<g clip-path="url(#clip0_700_38)">
<path d="M14.5994 14.2634C13.2497 14.2634 12.1519 13.1732 12.1519 11.8331C12.1519 10.4929 13.25 9.40247 14.5994 9.40247C15.9494 9.40247 17.0472 10.4927 17.0472 11.8331C17.0472 13.1732 15.9491 14.2634 14.5994 14.2634ZM14.5994 10.4992C13.8546 10.4992 13.2489 11.0975 13.2489 11.8331C13.2489 12.5686 13.8548 13.1666 14.5994 13.1666C15.3445 13.1666 15.9504 12.5683 15.9504 11.8331C15.9504 11.0978 15.3442 10.4992 14.5994 10.4992Z" fill="#D2A992"/>
<path d="M19.962 19.3561C18.612 19.3561 17.5142 18.2659 17.5142 16.9256C17.5142 15.5857 18.6123 14.4952 19.962 14.4952C21.3117 14.4952 22.4092 15.5854 22.4092 16.9256C22.4092 18.2659 21.3114 19.3561 19.962 19.3561ZM19.962 15.592C19.2171 15.592 18.6109 16.1903 18.6109 16.9256C18.6109 17.6611 19.2174 18.2594 19.962 18.2594C20.7065 18.2594 21.3125 17.6611 21.3125 16.9256C21.3125 16.1903 20.7068 15.592 19.962 15.592Z" fill="#D2A992"/>
<path d="M20.9515 10.0807L20.9163 10.0451L20.8808 10.0803L12.948 17.9394L12.9125 17.9746L12.9477 18.0101L13.7196 18.7893L13.7548 18.8248L13.7903 18.7896L21.7231 10.9305L21.7586 10.8953L21.7234 10.8598L20.9515 10.0807Z" fill="#D2A992" stroke="#D2A992" stroke-width="0.1"/>
<path d="M20.418 35.0196L20.4486 35.0912L20.501 35.0336L23.7852 31.4176L28.6995 31.5885L28.7782 31.5912L28.7472 31.5188L26.1632 25.4868L26.1436 25.4408L26.0976 25.4605L25.0892 25.8923L25.0432 25.9119L25.0629 25.9579L26.9358 30.3294L23.2955 30.2031L23.2723 30.2023L23.2568 30.2195L20.8151 32.9077L18.5937 27.7216L18.574 27.6756L18.528 27.6953L17.5199 28.1268L17.4739 28.1465L17.4936 28.1924L20.418 35.0196Z" fill="#D2A992" stroke="#D2A992" stroke-width="0.1"/>
<path d="M11.2405 31.3724L6.38607 31.6251L8.90096 25.4552L9.82391 25.8314L7.93145 30.4751L7.90174 30.548L7.98036 30.5439L11.6732 30.3515L14.1998 33.0362L14.2531 33.0929L14.2825 33.0208L16.3912 27.8478L17.3145 28.2243L14.5909 34.9058L11.2796 31.388L11.2637 31.3712L11.2405 31.3724Z" fill="#D2A992" stroke="#D2A992" stroke-width="0.1"/>
<mask id="path-6-outside-1_700_38" maskUnits="userSpaceOnUse" x="1.99707" y="-1" width="31" height="30" fill="black">
<rect fill="white" x="1.99707" y="-1" width="31" height="30"/>
<path d="M17.4999 28.7536C16.8945 28.7536 16.4455 28.2909 16.0493 27.8819C15.8571 27.6834 15.5662 27.3837 15.4259 27.3621C15.2241 27.3615 14.9012 27.5338 14.6384 27.673C14.2351 27.8868 13.8181 28.108 13.3795 28.108C13.2537 28.108 13.1323 28.0894 13.0183 28.0525C12.4463 27.8687 12.1652 27.2926 11.9171 26.784C11.7955 26.5349 11.6114 26.1578 11.4816 26.0919C11.4657 26.084 11.4148 26.0649 11.2915 26.0649C11.1108 26.0649 10.8841 26.1048 10.6446 26.1472C10.3695 26.1956 10.0854 26.2456 9.80977 26.2456C9.47016 26.2456 9.19809 26.1682 8.97715 26.0091C8.49207 25.6588 8.40402 25.0264 8.32637 24.4686C8.28809 24.1929 8.23012 23.7762 8.12648 23.6731C8.02148 23.5692 7.59902 23.5118 7.31957 23.4735C6.7582 23.397 6.12191 23.3103 5.76891 22.8301C5.41563 22.35 5.52801 21.7221 5.62727 21.1687C5.67676 20.8936 5.75113 20.4786 5.68359 20.3473C5.61797 20.2202 5.23707 20.0378 4.98523 19.9172C4.47227 19.6711 3.89094 19.3922 3.70418 18.8221C3.51988 18.2596 3.82203 17.6999 4.08836 17.2066C4.22234 16.9586 4.42469 16.5837 4.40117 16.4344C4.37957 16.2988 4.07797 16.0114 3.87836 15.8214C3.4652 15.4279 2.99707 14.9822 2.99707 14.3768C2.99707 13.7722 3.46492 13.3265 3.87809 12.9333C4.0777 12.7433 4.37957 12.4556 4.40117 12.3195C4.42469 12.171 4.22262 11.7964 4.08836 11.5486C3.82148 11.0548 3.51934 10.4948 3.70445 9.93207C3.89121 9.36332 4.47172 9.08441 4.98414 8.83859C5.23625 8.71773 5.61688 8.53508 5.68332 8.40656C5.75004 8.27668 5.67566 7.86133 5.62617 7.5868C5.52719 7.03309 5.4148 6.40555 5.76727 5.92484C6.12082 5.44469 6.75684 5.35773 7.3182 5.28117C7.59766 5.24289 8.02066 5.18519 8.12621 5.08074C8.22902 4.97875 8.28672 4.56285 8.325 4.28805C8.40238 3.72941 8.49016 3.09641 8.9766 2.74559C9.19754 2.58645 9.47016 2.50879 9.81031 2.50879C10.0859 2.50879 10.37 2.55883 10.6446 2.60723C10.8841 2.64934 11.1102 2.68926 11.2907 2.68926C11.4138 2.68926 11.4646 2.67039 11.4807 2.66219C11.6104 2.59656 11.7944 2.21977 11.9163 1.97039C12.1646 1.46207 12.446 0.885937 13.0188 0.701367C13.1323 0.664727 13.2534 0.646133 13.3789 0.646133C13.8178 0.646133 14.2351 0.867617 14.6384 1.08117C14.9014 1.22062 15.2282 1.39426 15.4035 1.39426C15.5664 1.37047 15.8574 1.07051 16.0499 0.872266C16.4458 0.46293 16.8948 0 17.5002 0C18.1053 0 18.554 0.462383 18.95 0.870898C19.1427 1.06969 19.4339 1.36937 19.575 1.39152C19.5759 1.39152 19.5767 1.39152 19.5775 1.39152C19.7749 1.39152 20.1003 1.21898 20.3617 1.08035C20.765 0.866523 21.1823 0.645039 21.6214 0.645039C21.7472 0.645039 21.8684 0.663633 21.9818 0.700273C22.5547 0.884844 22.8358 1.4607 23.0838 1.96902C23.2057 2.21867 23.3895 2.59547 23.5197 2.66109C23.5361 2.6693 23.5869 2.68844 23.7105 2.68844C23.8913 2.68844 24.1174 2.64852 24.3566 2.60641C24.6314 2.55828 24.9153 2.50852 25.1906 2.50852C25.5305 2.50852 25.8031 2.5859 26.0241 2.74531C26.5091 3.09477 26.5975 3.72723 26.6751 4.28531C26.7137 4.56094 26.7716 4.97711 26.8753 5.08019C26.9806 5.18465 27.4033 5.24234 27.6822 5.28008C28.2438 5.35664 28.8804 5.44387 29.2323 5.92402C29.585 6.40336 29.4727 7.0309 29.3734 7.58461C29.3239 7.85941 29.2495 8.27504 29.3171 8.40601C29.383 8.53426 29.7641 8.71691 30.016 8.8375C30.5289 9.08332 31.11 9.36195 31.2968 9.9318C31.4811 10.4943 31.1784 11.054 30.912 11.5478C30.7781 11.7955 30.5757 12.1704 30.5987 12.3195C30.6203 12.4551 30.9227 12.7427 31.1223 12.933C31.5352 13.3262 32.0033 13.772 32.0033 14.376C32.0033 14.9814 31.5349 15.4271 31.1215 15.8205C30.9219 16.0106 30.62 16.298 30.5984 16.4339C30.5752 16.5823 30.7775 16.9575 30.9118 17.2055C31.1781 17.6993 31.48 18.2591 31.2959 18.8212C31.1089 19.3911 30.5279 19.67 30.0146 19.9161C29.7628 20.0367 29.3819 20.2196 29.3157 20.3473C29.2482 20.4783 29.3225 20.8939 29.372 21.169C29.4713 21.7224 29.5839 22.35 29.2307 22.8301C28.8785 23.3103 28.2419 23.3967 27.68 23.4735C27.4008 23.5118 26.9781 23.5695 26.8723 23.6737C26.77 23.7754 26.712 24.1921 26.6738 24.4672C26.5961 25.0255 26.508 25.6583 26.0227 26.0083C25.8018 26.1677 25.5291 26.2451 25.1893 26.2451C24.9136 26.2451 24.6295 26.1948 24.3547 26.1466C24.1152 26.1045 23.8893 26.0646 23.7086 26.0646C23.5855 26.0646 23.5347 26.0835 23.5188 26.0917C23.3887 26.1576 23.2049 26.5344 23.083 26.7837C22.8347 27.2918 22.5533 27.8679 21.9805 28.0525C21.8667 28.0894 21.7459 28.1077 21.6204 28.1077C21.1815 28.1077 20.7637 27.8862 20.3604 27.6721C20.0979 27.533 19.7711 27.3596 19.5966 27.3596C19.4326 27.3828 19.1419 27.6831 18.9494 27.8816C18.554 28.2912 18.105 28.7536 17.4999 28.7536ZM15.4029 26.2639C15.468 26.2639 15.5323 26.2689 15.5949 26.2784C16.0983 26.3569 16.4737 26.7444 16.8368 27.119C17.0321 27.3202 17.3586 27.6571 17.4999 27.6571C17.6407 27.6571 17.9672 27.3208 18.1622 27.1195C18.5256 26.7446 18.901 26.3569 19.4052 26.2784C19.4679 26.2689 19.5318 26.2639 19.5969 26.2639C20.0443 26.2639 20.4664 26.4876 20.8747 26.7039C21.1328 26.8412 21.4547 27.0118 21.6209 27.0118C21.7735 26.968 21.9846 26.5357 22.098 26.303C22.328 25.8325 22.5654 25.346 23.0242 25.1139C23.2175 25.016 23.4414 24.9687 23.7094 24.9687C23.9861 24.9687 24.2705 25.0187 24.5461 25.0671C24.7851 25.1092 25.0104 25.1489 25.1901 25.1489C25.3394 25.1489 25.3804 25.1207 25.382 25.1196C25.4873 25.0439 25.5529 24.5711 25.5882 24.3171C25.6607 23.7973 25.735 23.2594 26.1006 22.8955C26.4681 22.5329 27.0093 22.4588 27.5326 22.3877C27.7902 22.3524 28.2698 22.2871 28.3472 22.1815C28.4213 22.0806 28.3379 21.6141 28.2931 21.3637C28.2042 20.8682 28.1036 20.3071 28.3414 19.8453C28.5763 19.3905 29.0666 19.1554 29.5407 18.9282C29.7756 18.8152 30.2129 18.6055 30.2539 18.4805C30.2908 18.3654 30.0584 17.9342 29.9465 17.7272C29.7064 17.2826 29.4344 16.7784 29.5153 16.2635C29.5952 15.7598 29.987 15.3871 30.3654 15.0268C30.5547 14.8468 30.9066 14.5116 30.9066 14.3765C30.9066 14.2425 30.5549 13.9076 30.366 13.7279C29.9867 13.367 29.5949 12.9935 29.5153 12.4906C29.4341 11.9755 29.7064 11.4712 29.9468 11.0266C30.0586 10.8199 30.2913 10.3893 30.2544 10.2736C30.2134 10.1489 29.7767 9.93945 29.5421 9.8268C29.0677 9.5993 28.5769 9.36414 28.342 8.90859C28.1047 8.4473 28.2053 7.88648 28.2939 7.39129C28.3387 7.14055 28.4227 6.67379 28.3483 6.57316C28.2709 6.46762 27.7918 6.40226 27.5343 6.36699C27.0106 6.29562 26.4689 6.2218 26.1034 5.85949C25.7361 5.49555 25.6579 4.93281 25.5888 4.43652C25.5535 4.18277 25.4879 3.71082 25.3826 3.6348C25.3804 3.63344 25.3397 3.60527 25.1906 3.60527C25.0113 3.60527 24.7857 3.64519 24.547 3.68703C24.2716 3.73543 23.9872 3.78547 23.7105 3.78547C23.4425 3.78547 23.2181 3.73789 23.0245 3.64C22.5656 3.40785 22.3283 2.92141 22.098 2.45027C21.9848 2.21812 21.7735 1.78582 21.6455 1.74453C21.444 1.74535 21.1334 1.91242 20.8752 2.04941C20.467 2.2657 20.0448 2.48965 19.5975 2.48965C19.5327 2.48965 19.4684 2.48473 19.4063 2.47516C18.9016 2.39613 18.5261 2.00867 18.1625 1.63434C17.9678 1.43336 17.6413 1.09676 17.5002 1.09676C17.3588 1.09676 17.0321 1.43363 16.8368 1.63516C16.4737 2.00949 16.0983 2.39641 15.5952 2.47543C15.0926 2.55199 14.5919 2.29742 14.1246 2.04941C13.8662 1.91242 13.5449 1.74234 13.3784 1.74234C13.2255 1.78609 13.0145 2.21867 12.9013 2.45082C12.6713 2.92168 12.4334 3.4084 11.9746 3.64027C11.7813 3.73789 11.5576 3.7852 11.2899 3.7852C11.0134 3.7852 10.7288 3.73516 10.4534 3.68676C10.2147 3.64465 9.98914 3.605 9.80949 3.605C9.6602 3.605 9.61918 3.63344 9.61754 3.63426C9.51145 3.71055 9.44582 4.18387 9.41055 4.43789C9.33836 4.95769 9.26371 5.49527 8.89785 5.8584C8.53145 6.22152 7.98977 6.29562 7.46586 6.36699C7.20828 6.40199 6.7284 6.46762 6.65074 6.57344C6.57664 6.67406 6.66059 7.14137 6.7057 7.39238C6.79402 7.88703 6.89438 8.44703 6.65813 8.90805C6.4227 9.36387 5.93242 9.59902 5.45828 9.82652C5.22395 9.93918 4.78727 10.1486 4.74625 10.2736C4.70934 10.3898 4.94176 10.8199 5.05332 11.0266C5.29367 11.4712 5.56574 11.9755 5.48426 12.4906C5.40414 12.9937 5.01258 13.3664 4.63414 13.7268C4.44547 13.9068 4.09355 14.2417 4.09355 14.3762C4.09355 14.5116 4.44547 14.8468 4.63469 15.0268C5.01313 15.3871 5.40414 15.7598 5.48426 16.2621C5.56602 16.7781 5.29367 17.2823 5.05359 17.7272C4.94176 17.9345 4.70906 18.3654 4.74625 18.4803C4.78727 18.6055 5.22449 18.8152 5.4591 18.9279C5.93297 19.1551 6.42297 19.39 6.65785 19.8445C6.89574 20.306 6.79512 20.8671 6.70652 21.3623C6.66168 21.6128 6.57773 22.0795 6.65184 22.1802C6.72977 22.2862 7.20965 22.3519 7.4675 22.3869C7.99059 22.4585 8.53199 22.5323 8.89758 22.8938C9.26508 23.2583 9.33973 23.797 9.41219 24.3173C9.44774 24.5714 9.51309 25.0436 9.61863 25.1199C9.61973 25.1207 9.6602 25.1486 9.80922 25.1486C9.9886 25.1486 10.2145 25.1087 10.4532 25.0668C10.7291 25.0182 11.014 24.9681 11.2907 24.9681C11.5584 24.9681 11.7829 25.0154 11.9762 25.113C12.435 25.3455 12.6724 25.8322 12.9023 26.303C13.0155 26.5355 13.2264 26.9675 13.3541 27.0085C13.3554 27.0085 13.3568 27.0085 13.3584 27.0085C13.5498 27.0085 13.8681 26.8398 14.1243 26.7039C14.5329 26.4876 14.955 26.2639 15.4029 26.2639Z"/>
</mask>
<path d="M17.4999 28.7536C16.8945 28.7536 16.4455 28.2909 16.0493 27.8819C15.8571 27.6834 15.5662 27.3837 15.4259 27.3621C15.2241 27.3615 14.9012 27.5338 14.6384 27.673C14.2351 27.8868 13.8181 28.108 13.3795 28.108C13.2537 28.108 13.1323 28.0894 13.0183 28.0525C12.4463 27.8687 12.1652 27.2926 11.9171 26.784C11.7955 26.5349 11.6114 26.1578 11.4816 26.0919C11.4657 26.084 11.4148 26.0649 11.2915 26.0649C11.1108 26.0649 10.8841 26.1048 10.6446 26.1472C10.3695 26.1956 10.0854 26.2456 9.80977 26.2456C9.47016 26.2456 9.19809 26.1682 8.97715 26.0091C8.49207 25.6588 8.40402 25.0264 8.32637 24.4686C8.28809 24.1929 8.23012 23.7762 8.12648 23.6731C8.02148 23.5692 7.59902 23.5118 7.31957 23.4735C6.7582 23.397 6.12191 23.3103 5.76891 22.8301C5.41563 22.35 5.52801 21.7221 5.62727 21.1687C5.67676 20.8936 5.75113 20.4786 5.68359 20.3473C5.61797 20.2202 5.23707 20.0378 4.98523 19.9172C4.47227 19.6711 3.89094 19.3922 3.70418 18.8221C3.51988 18.2596 3.82203 17.6999 4.08836 17.2066C4.22234 16.9586 4.42469 16.5837 4.40117 16.4344C4.37957 16.2988 4.07797 16.0114 3.87836 15.8214C3.4652 15.4279 2.99707 14.9822 2.99707 14.3768C2.99707 13.7722 3.46492 13.3265 3.87809 12.9333C4.0777 12.7433 4.37957 12.4556 4.40117 12.3195C4.42469 12.171 4.22262 11.7964 4.08836 11.5486C3.82148 11.0548 3.51934 10.4948 3.70445 9.93207C3.89121 9.36332 4.47172 9.08441 4.98414 8.83859C5.23625 8.71773 5.61688 8.53508 5.68332 8.40656C5.75004 8.27668 5.67566 7.86133 5.62617 7.5868C5.52719 7.03309 5.4148 6.40555 5.76727 5.92484C6.12082 5.44469 6.75684 5.35773 7.3182 5.28117C7.59766 5.24289 8.02066 5.18519 8.12621 5.08074C8.22902 4.97875 8.28672 4.56285 8.325 4.28805C8.40238 3.72941 8.49016 3.09641 8.9766 2.74559C9.19754 2.58645 9.47016 2.50879 9.81031 2.50879C10.0859 2.50879 10.37 2.55883 10.6446 2.60723C10.8841 2.64934 11.1102 2.68926 11.2907 2.68926C11.4138 2.68926 11.4646 2.67039 11.4807 2.66219C11.6104 2.59656 11.7944 2.21977 11.9163 1.97039C12.1646 1.46207 12.446 0.885937 13.0188 0.701367C13.1323 0.664727 13.2534 0.646133 13.3789 0.646133C13.8178 0.646133 14.2351 0.867617 14.6384 1.08117C14.9014 1.22062 15.2282 1.39426 15.4035 1.39426C15.5664 1.37047 15.8574 1.07051 16.0499 0.872266C16.4458 0.46293 16.8948 0 17.5002 0C18.1053 0 18.554 0.462383 18.95 0.870898C19.1427 1.06969 19.4339 1.36937 19.575 1.39152C19.5759 1.39152 19.5767 1.39152 19.5775 1.39152C19.7749 1.39152 20.1003 1.21898 20.3617 1.08035C20.765 0.866523 21.1823 0.645039 21.6214 0.645039C21.7472 0.645039 21.8684 0.663633 21.9818 0.700273C22.5547 0.884844 22.8358 1.4607 23.0838 1.96902C23.2057 2.21867 23.3895 2.59547 23.5197 2.66109C23.5361 2.6693 23.5869 2.68844 23.7105 2.68844C23.8913 2.68844 24.1174 2.64852 24.3566 2.60641C24.6314 2.55828 24.9153 2.50852 25.1906 2.50852C25.5305 2.50852 25.8031 2.5859 26.0241 2.74531C26.5091 3.09477 26.5975 3.72723 26.6751 4.28531C26.7137 4.56094 26.7716 4.97711 26.8753 5.08019C26.9806 5.18465 27.4033 5.24234 27.6822 5.28008C28.2438 5.35664 28.8804 5.44387 29.2323 5.92402C29.585 6.40336 29.4727 7.0309 29.3734 7.58461C29.3239 7.85941 29.2495 8.27504 29.3171 8.40601C29.383 8.53426 29.7641 8.71691 30.016 8.8375C30.5289 9.08332 31.11 9.36195 31.2968 9.9318C31.4811 10.4943 31.1784 11.054 30.912 11.5478C30.7781 11.7955 30.5757 12.1704 30.5987 12.3195C30.6203 12.4551 30.9227 12.7427 31.1223 12.933C31.5352 13.3262 32.0033 13.772 32.0033 14.376C32.0033 14.9814 31.5349 15.4271 31.1215 15.8205C30.9219 16.0106 30.62 16.298 30.5984 16.4339C30.5752 16.5823 30.7775 16.9575 30.9118 17.2055C31.1781 17.6993 31.48 18.2591 31.2959 18.8212C31.1089 19.3911 30.5279 19.67 30.0146 19.9161C29.7628 20.0367 29.3819 20.2196 29.3157 20.3473C29.2482 20.4783 29.3225 20.8939 29.372 21.169C29.4713 21.7224 29.5839 22.35 29.2307 22.8301C28.8785 23.3103 28.2419 23.3967 27.68 23.4735C27.4008 23.5118 26.9781 23.5695 26.8723 23.6737C26.77 23.7754 26.712 24.1921 26.6738 24.4672C26.5961 25.0255 26.508 25.6583 26.0227 26.0083C25.8018 26.1677 25.5291 26.2451 25.1893 26.2451C24.9136 26.2451 24.6295 26.1948 24.3547 26.1466C24.1152 26.1045 23.8893 26.0646 23.7086 26.0646C23.5855 26.0646 23.5347 26.0835 23.5188 26.0917C23.3887 26.1576 23.2049 26.5344 23.083 26.7837C22.8347 27.2918 22.5533 27.8679 21.9805 28.0525C21.8667 28.0894 21.7459 28.1077 21.6204 28.1077C21.1815 28.1077 20.7637 27.8862 20.3604 27.6721C20.0979 27.533 19.7711 27.3596 19.5966 27.3596C19.4326 27.3828 19.1419 27.6831 18.9494 27.8816C18.554 28.2912 18.105 28.7536 17.4999 28.7536ZM15.4029 26.2639C15.468 26.2639 15.5323 26.2689 15.5949 26.2784C16.0983 26.3569 16.4737 26.7444 16.8368 27.119C17.0321 27.3202 17.3586 27.6571 17.4999 27.6571C17.6407 27.6571 17.9672 27.3208 18.1622 27.1195C18.5256 26.7446 18.901 26.3569 19.4052 26.2784C19.4679 26.2689 19.5318 26.2639 19.5969 26.2639C20.0443 26.2639 20.4664 26.4876 20.8747 26.7039C21.1328 26.8412 21.4547 27.0118 21.6209 27.0118C21.7735 26.968 21.9846 26.5357 22.098 26.303C22.328 25.8325 22.5654 25.346 23.0242 25.1139C23.2175 25.016 23.4414 24.9687 23.7094 24.9687C23.9861 24.9687 24.2705 25.0187 24.5461 25.0671C24.7851 25.1092 25.0104 25.1489 25.1901 25.1489C25.3394 25.1489 25.3804 25.1207 25.382 25.1196C25.4873 25.0439 25.5529 24.5711 25.5882 24.3171C25.6607 23.7973 25.735 23.2594 26.1006 22.8955C26.4681 22.5329 27.0093 22.4588 27.5326 22.3877C27.7902 22.3524 28.2698 22.2871 28.3472 22.1815C28.4213 22.0806 28.3379 21.6141 28.2931 21.3637C28.2042 20.8682 28.1036 20.3071 28.3414 19.8453C28.5763 19.3905 29.0666 19.1554 29.5407 18.9282C29.7756 18.8152 30.2129 18.6055 30.2539 18.4805C30.2908 18.3654 30.0584 17.9342 29.9465 17.7272C29.7064 17.2826 29.4344 16.7784 29.5153 16.2635C29.5952 15.7598 29.987 15.3871 30.3654 15.0268C30.5547 14.8468 30.9066 14.5116 30.9066 14.3765C30.9066 14.2425 30.5549 13.9076 30.366 13.7279C29.9867 13.367 29.5949 12.9935 29.5153 12.4906C29.4341 11.9755 29.7064 11.4712 29.9468 11.0266C30.0586 10.8199 30.2913 10.3893 30.2544 10.2736C30.2134 10.1489 29.7767 9.93945 29.5421 9.8268C29.0677 9.5993 28.5769 9.36414 28.342 8.90859C28.1047 8.4473 28.2053 7.88648 28.2939 7.39129C28.3387 7.14055 28.4227 6.67379 28.3483 6.57316C28.2709 6.46762 27.7918 6.40226 27.5343 6.36699C27.0106 6.29562 26.4689 6.2218 26.1034 5.85949C25.7361 5.49555 25.6579 4.93281 25.5888 4.43652C25.5535 4.18277 25.4879 3.71082 25.3826 3.6348C25.3804 3.63344 25.3397 3.60527 25.1906 3.60527C25.0113 3.60527 24.7857 3.64519 24.547 3.68703C24.2716 3.73543 23.9872 3.78547 23.7105 3.78547C23.4425 3.78547 23.2181 3.73789 23.0245 3.64C22.5656 3.40785 22.3283 2.92141 22.098 2.45027C21.9848 2.21812 21.7735 1.78582 21.6455 1.74453C21.444 1.74535 21.1334 1.91242 20.8752 2.04941C20.467 2.2657 20.0448 2.48965 19.5975 2.48965C19.5327 2.48965 19.4684 2.48473 19.4063 2.47516C18.9016 2.39613 18.5261 2.00867 18.1625 1.63434C17.9678 1.43336 17.6413 1.09676 17.5002 1.09676C17.3588 1.09676 17.0321 1.43363 16.8368 1.63516C16.4737 2.00949 16.0983 2.39641 15.5952 2.47543C15.0926 2.55199 14.5919 2.29742 14.1246 2.04941C13.8662 1.91242 13.5449 1.74234 13.3784 1.74234C13.2255 1.78609 13.0145 2.21867 12.9013 2.45082C12.6713 2.92168 12.4334 3.4084 11.9746 3.64027C11.7813 3.73789 11.5576 3.7852 11.2899 3.7852C11.0134 3.7852 10.7288 3.73516 10.4534 3.68676C10.2147 3.64465 9.98914 3.605 9.80949 3.605C9.6602 3.605 9.61918 3.63344 9.61754 3.63426C9.51145 3.71055 9.44582 4.18387 9.41055 4.43789C9.33836 4.95769 9.26371 5.49527 8.89785 5.8584C8.53145 6.22152 7.98977 6.29562 7.46586 6.36699C7.20828 6.40199 6.7284 6.46762 6.65074 6.57344C6.57664 6.67406 6.66059 7.14137 6.7057 7.39238C6.79402 7.88703 6.89438 8.44703 6.65813 8.90805C6.4227 9.36387 5.93242 9.59902 5.45828 9.82652C5.22395 9.93918 4.78727 10.1486 4.74625 10.2736C4.70934 10.3898 4.94176 10.8199 5.05332 11.0266C5.29367 11.4712 5.56574 11.9755 5.48426 12.4906C5.40414 12.9937 5.01258 13.3664 4.63414 13.7268C4.44547 13.9068 4.09355 14.2417 4.09355 14.3762C4.09355 14.5116 4.44547 14.8468 4.63469 15.0268C5.01313 15.3871 5.40414 15.7598 5.48426 16.2621C5.56602 16.7781 5.29367 17.2823 5.05359 17.7272C4.94176 17.9345 4.70906 18.3654 4.74625 18.4803C4.78727 18.6055 5.22449 18.8152 5.4591 18.9279C5.93297 19.1551 6.42297 19.39 6.65785 19.8445C6.89574 20.306 6.79512 20.8671 6.70652 21.3623C6.66168 21.6128 6.57773 22.0795 6.65184 22.1802C6.72977 22.2862 7.20965 22.3519 7.4675 22.3869C7.99059 22.4585 8.53199 22.5323 8.89758 22.8938C9.26508 23.2583 9.33973 23.797 9.41219 24.3173C9.44774 24.5714 9.51309 25.0436 9.61863 25.1199C9.61973 25.1207 9.6602 25.1486 9.80922 25.1486C9.9886 25.1486 10.2145 25.1087 10.4532 25.0668C10.7291 25.0182 11.014 24.9681 11.2907 24.9681C11.5584 24.9681 11.7829 25.0154 11.9762 25.113C12.435 25.3455 12.6724 25.8322 12.9023 26.303C13.0155 26.5355 13.2264 26.9675 13.3541 27.0085C13.3554 27.0085 13.3568 27.0085 13.3584 27.0085C13.5498 27.0085 13.8681 26.8398 14.1243 26.7039C14.5329 26.4876 14.955 26.2639 15.4029 26.2639Z" fill="#D2A992"/>
<path d="M17.4999 28.7536C16.8945 28.7536 16.4455 28.2909 16.0493 27.8819C15.8571 27.6834 15.5662 27.3837 15.4259 27.3621C15.2241 27.3615 14.9012 27.5338 14.6384 27.673C14.2351 27.8868 13.8181 28.108 13.3795 28.108C13.2537 28.108 13.1323 28.0894 13.0183 28.0525C12.4463 27.8687 12.1652 27.2926 11.9171 26.784C11.7955 26.5349 11.6114 26.1578 11.4816 26.0919C11.4657 26.084 11.4148 26.0649 11.2915 26.0649C11.1108 26.0649 10.8841 26.1048 10.6446 26.1472C10.3695 26.1956 10.0854 26.2456 9.80977 26.2456C9.47016 26.2456 9.19809 26.1682 8.97715 26.0091C8.49207 25.6588 8.40402 25.0264 8.32637 24.4686C8.28809 24.1929 8.23012 23.7762 8.12648 23.6731C8.02148 23.5692 7.59902 23.5118 7.31957 23.4735C6.7582 23.397 6.12191 23.3103 5.76891 22.8301C5.41563 22.35 5.52801 21.7221 5.62727 21.1687C5.67676 20.8936 5.75113 20.4786 5.68359 20.3473C5.61797 20.2202 5.23707 20.0378 4.98523 19.9172C4.47227 19.6711 3.89094 19.3922 3.70418 18.8221C3.51988 18.2596 3.82203 17.6999 4.08836 17.2066C4.22234 16.9586 4.42469 16.5837 4.40117 16.4344C4.37957 16.2988 4.07797 16.0114 3.87836 15.8214C3.4652 15.4279 2.99707 14.9822 2.99707 14.3768C2.99707 13.7722 3.46492 13.3265 3.87809 12.9333C4.0777 12.7433 4.37957 12.4556 4.40117 12.3195C4.42469 12.171 4.22262 11.7964 4.08836 11.5486C3.82148 11.0548 3.51934 10.4948 3.70445 9.93207C3.89121 9.36332 4.47172 9.08441 4.98414 8.83859C5.23625 8.71773 5.61688 8.53508 5.68332 8.40656C5.75004 8.27668 5.67566 7.86133 5.62617 7.5868C5.52719 7.03309 5.4148 6.40555 5.76727 5.92484C6.12082 5.44469 6.75684 5.35773 7.3182 5.28117C7.59766 5.24289 8.02066 5.18519 8.12621 5.08074C8.22902 4.97875 8.28672 4.56285 8.325 4.28805C8.40238 3.72941 8.49016 3.09641 8.9766 2.74559C9.19754 2.58645 9.47016 2.50879 9.81031 2.50879C10.0859 2.50879 10.37 2.55883 10.6446 2.60723C10.8841 2.64934 11.1102 2.68926 11.2907 2.68926C11.4138 2.68926 11.4646 2.67039 11.4807 2.66219C11.6104 2.59656 11.7944 2.21977 11.9163 1.97039C12.1646 1.46207 12.446 0.885937 13.0188 0.701367C13.1323 0.664727 13.2534 0.646133 13.3789 0.646133C13.8178 0.646133 14.2351 0.867617 14.6384 1.08117C14.9014 1.22062 15.2282 1.39426 15.4035 1.39426C15.5664 1.37047 15.8574 1.07051 16.0499 0.872266C16.4458 0.46293 16.8948 0 17.5002 0C18.1053 0 18.554 0.462383 18.95 0.870898C19.1427 1.06969 19.4339 1.36937 19.575 1.39152C19.5759 1.39152 19.5767 1.39152 19.5775 1.39152C19.7749 1.39152 20.1003 1.21898 20.3617 1.08035C20.765 0.866523 21.1823 0.645039 21.6214 0.645039C21.7472 0.645039 21.8684 0.663633 21.9818 0.700273C22.5547 0.884844 22.8358 1.4607 23.0838 1.96902C23.2057 2.21867 23.3895 2.59547 23.5197 2.66109C23.5361 2.6693 23.5869 2.68844 23.7105 2.68844C23.8913 2.68844 24.1174 2.64852 24.3566 2.60641C24.6314 2.55828 24.9153 2.50852 25.1906 2.50852C25.5305 2.50852 25.8031 2.5859 26.0241 2.74531C26.5091 3.09477 26.5975 3.72723 26.6751 4.28531C26.7137 4.56094 26.7716 4.97711 26.8753 5.08019C26.9806 5.18465 27.4033 5.24234 27.6822 5.28008C28.2438 5.35664 28.8804 5.44387 29.2323 5.92402C29.585 6.40336 29.4727 7.0309 29.3734 7.58461C29.3239 7.85941 29.2495 8.27504 29.3171 8.40601C29.383 8.53426 29.7641 8.71691 30.016 8.8375C30.5289 9.08332 31.11 9.36195 31.2968 9.9318C31.4811 10.4943 31.1784 11.054 30.912 11.5478C30.7781 11.7955 30.5757 12.1704 30.5987 12.3195C30.6203 12.4551 30.9227 12.7427 31.1223 12.933C31.5352 13.3262 32.0033 13.772 32.0033 14.376C32.0033 14.9814 31.5349 15.4271 31.1215 15.8205C30.9219 16.0106 30.62 16.298 30.5984 16.4339C30.5752 16.5823 30.7775 16.9575 30.9118 17.2055C31.1781 17.6993 31.48 18.2591 31.2959 18.8212C31.1089 19.3911 30.5279 19.67 30.0146 19.9161C29.7628 20.0367 29.3819 20.2196 29.3157 20.3473C29.2482 20.4783 29.3225 20.8939 29.372 21.169C29.4713 21.7224 29.5839 22.35 29.2307 22.8301C28.8785 23.3103 28.2419 23.3967 27.68 23.4735C27.4008 23.5118 26.9781 23.5695 26.8723 23.6737C26.77 23.7754 26.712 24.1921 26.6738 24.4672C26.5961 25.0255 26.508 25.6583 26.0227 26.0083C25.8018 26.1677 25.5291 26.2451 25.1893 26.2451C24.9136 26.2451 24.6295 26.1948 24.3547 26.1466C24.1152 26.1045 23.8893 26.0646 23.7086 26.0646C23.5855 26.0646 23.5347 26.0835 23.5188 26.0917C23.3887 26.1576 23.2049 26.5344 23.083 26.7837C22.8347 27.2918 22.5533 27.8679 21.9805 28.0525C21.8667 28.0894 21.7459 28.1077 21.6204 28.1077C21.1815 28.1077 20.7637 27.8862 20.3604 27.6721C20.0979 27.533 19.7711 27.3596 19.5966 27.3596C19.4326 27.3828 19.1419 27.6831 18.9494 27.8816C18.554 28.2912 18.105 28.7536 17.4999 28.7536ZM15.4029 26.2639C15.468 26.2639 15.5323 26.2689 15.5949 26.2784C16.0983 26.3569 16.4737 26.7444 16.8368 27.119C17.0321 27.3202 17.3586 27.6571 17.4999 27.6571C17.6407 27.6571 17.9672 27.3208 18.1622 27.1195C18.5256 26.7446 18.901 26.3569 19.4052 26.2784C19.4679 26.2689 19.5318 26.2639 19.5969 26.2639C20.0443 26.2639 20.4664 26.4876 20.8747 26.7039C21.1328 26.8412 21.4547 27.0118 21.6209 27.0118C21.7735 26.968 21.9846 26.5357 22.098 26.303C22.328 25.8325 22.5654 25.346 23.0242 25.1139C23.2175 25.016 23.4414 24.9687 23.7094 24.9687C23.9861 24.9687 24.2705 25.0187 24.5461 25.0671C24.7851 25.1092 25.0104 25.1489 25.1901 25.1489C25.3394 25.1489 25.3804 25.1207 25.382 25.1196C25.4873 25.0439 25.5529 24.5711 25.5882 24.3171C25.6607 23.7973 25.735 23.2594 26.1006 22.8955C26.4681 22.5329 27.0093 22.4588 27.5326 22.3877C27.7902 22.3524 28.2698 22.2871 28.3472 22.1815C28.4213 22.0806 28.3379 21.6141 28.2931 21.3637C28.2042 20.8682 28.1036 20.3071 28.3414 19.8453C28.5763 19.3905 29.0666 19.1554 29.5407 18.9282C29.7756 18.8152 30.2129 18.6055 30.2539 18.4805C30.2908 18.3654 30.0584 17.9342 29.9465 17.7272C29.7064 17.2826 29.4344 16.7784 29.5153 16.2635C29.5952 15.7598 29.987 15.3871 30.3654 15.0268C30.5547 14.8468 30.9066 14.5116 30.9066 14.3765C30.9066 14.2425 30.5549 13.9076 30.366 13.7279C29.9867 13.367 29.5949 12.9935 29.5153 12.4906C29.4341 11.9755 29.7064 11.4712 29.9468 11.0266C30.0586 10.8199 30.2913 10.3893 30.2544 10.2736C30.2134 10.1489 29.7767 9.93945 29.5421 9.8268C29.0677 9.5993 28.5769 9.36414 28.342 8.90859C28.1047 8.4473 28.2053 7.88648 28.2939 7.39129C28.3387 7.14055 28.4227 6.67379 28.3483 6.57316C28.2709 6.46762 27.7918 6.40226 27.5343 6.36699C27.0106 6.29562 26.4689 6.2218 26.1034 5.85949C25.7361 5.49555 25.6579 4.93281 25.5888 4.43652C25.5535 4.18277 25.4879 3.71082 25.3826 3.6348C25.3804 3.63344 25.3397 3.60527 25.1906 3.60527C25.0113 3.60527 24.7857 3.64519 24.547 3.68703C24.2716 3.73543 23.9872 3.78547 23.7105 3.78547C23.4425 3.78547 23.2181 3.73789 23.0245 3.64C22.5656 3.40785 22.3283 2.92141 22.098 2.45027C21.9848 2.21812 21.7735 1.78582 21.6455 1.74453C21.444 1.74535 21.1334 1.91242 20.8752 2.04941C20.467 2.2657 20.0448 2.48965 19.5975 2.48965C19.5327 2.48965 19.4684 2.48473 19.4063 2.47516C18.9016 2.39613 18.5261 2.00867 18.1625 1.63434C17.9678 1.43336 17.6413 1.09676 17.5002 1.09676C17.3588 1.09676 17.0321 1.43363 16.8368 1.63516C16.4737 2.00949 16.0983 2.39641 15.5952 2.47543C15.0926 2.55199 14.5919 2.29742 14.1246 2.04941C13.8662 1.91242 13.5449 1.74234 13.3784 1.74234C13.2255 1.78609 13.0145 2.21867 12.9013 2.45082C12.6713 2.92168 12.4334 3.4084 11.9746 3.64027C11.7813 3.73789 11.5576 3.7852 11.2899 3.7852C11.0134 3.7852 10.7288 3.73516 10.4534 3.68676C10.2147 3.64465 9.98914 3.605 9.80949 3.605C9.6602 3.605 9.61918 3.63344 9.61754 3.63426C9.51145 3.71055 9.44582 4.18387 9.41055 4.43789C9.33836 4.95769 9.26371 5.49527 8.89785 5.8584C8.53145 6.22152 7.98977 6.29562 7.46586 6.36699C7.20828 6.40199 6.7284 6.46762 6.65074 6.57344C6.57664 6.67406 6.66059 7.14137 6.7057 7.39238C6.79402 7.88703 6.89438 8.44703 6.65813 8.90805C6.4227 9.36387 5.93242 9.59902 5.45828 9.82652C5.22395 9.93918 4.78727 10.1486 4.74625 10.2736C4.70934 10.3898 4.94176 10.8199 5.05332 11.0266C5.29367 11.4712 5.56574 11.9755 5.48426 12.4906C5.40414 12.9937 5.01258 13.3664 4.63414 13.7268C4.44547 13.9068 4.09355 14.2417 4.09355 14.3762C4.09355 14.5116 4.44547 14.8468 4.63469 15.0268C5.01313 15.3871 5.40414 15.7598 5.48426 16.2621C5.56602 16.7781 5.29367 17.2823 5.05359 17.7272C4.94176 17.9345 4.70906 18.3654 4.74625 18.4803C4.78727 18.6055 5.22449 18.8152 5.4591 18.9279C5.93297 19.1551 6.42297 19.39 6.65785 19.8445C6.89574 20.306 6.79512 20.8671 6.70652 21.3623C6.66168 21.6128 6.57773 22.0795 6.65184 22.1802C6.72977 22.2862 7.20965 22.3519 7.4675 22.3869C7.99059 22.4585 8.53199 22.5323 8.89758 22.8938C9.26508 23.2583 9.33973 23.797 9.41219 24.3173C9.44774 24.5714 9.51309 25.0436 9.61863 25.1199C9.61973 25.1207 9.6602 25.1486 9.80922 25.1486C9.9886 25.1486 10.2145 25.1087 10.4532 25.0668C10.7291 25.0182 11.014 24.9681 11.2907 24.9681C11.5584 24.9681 11.7829 25.0154 11.9762 25.113C12.435 25.3455 12.6724 25.8322 12.9023 26.303C13.0155 26.5355 13.2264 26.9675 13.3541 27.0085C13.3554 27.0085 13.3568 27.0085 13.3584 27.0085C13.5498 27.0085 13.8681 26.8398 14.1243 26.7039C14.5329 26.4876 14.955 26.2639 15.4029 26.2639Z" stroke="#D2A992" stroke-width="0.16" mask="url(#path-6-outside-1_700_38)"/>
<path d="M7.86309 14.3765C7.86309 19.6464 12.1871 23.9323 17.5012 23.9323C22.8142 23.9323 27.1376 19.6464 27.1376 14.3765C27.1376 9.10755 22.8142 4.82158 17.5012 4.82158C12.1871 4.82158 7.86309 9.10754 7.86309 14.3765ZM9.05957 14.3765C9.05957 9.76849 12.8462 6.01834 17.5012 6.01834C22.1553 6.01834 25.9409 9.76848 25.9409 14.3765C25.9409 18.9854 22.1553 22.7356 17.5012 22.7356C12.8463 22.7356 9.05957 18.9854 9.05957 14.3765Z" fill="#D2A992" stroke="#D2A992" stroke-width="0.1"/>
</g>
<defs>
<clipPath id="clip0_700_38">
<rect width="35" height="35" fill="white"/>
</clipPath>
</defs>
</svg>
