<svg width="38" height="37" viewBox="0 0 38 37" fill="none" xmlns="http://www.w3.org/2000/svg">
<path fill-rule="evenodd" clip-rule="evenodd" d="M4.18198 0.93934C3.59619 0.353553 2.64645 0.353553 2.06066 0.93934C1.47487 1.52513 1.47487 2.47487 2.06066 3.06066L16.8787 17.8787L0.93934 33.818C0.353553 34.4038 0.353553 35.3536 0.93934 35.9393C1.52513 36.5251 2.47487 36.5251 3.06066 35.9393L19 20L34.9393 35.9393C35.5251 36.5251 36.4749 36.5251 37.0607 35.9393C37.6464 35.3536 37.6464 34.4038 37.0607 33.818L21.1213 17.8787L35.9393 3.06066C36.5251 2.47488 36.5251 1.52513 35.9393 0.939341C35.3536 0.353554 34.4038 0.353555 33.818 0.939341L19 15.7574L4.18198 0.93934Z" fill="#1C2540"/>
</svg>
