<!-- icon666.com - MILLIONS vector ICONS FREE --><svg version="1.1" id="Capa_1" xmlns="http://www.w3.org/2000/svg" xmlns:xlink="http://www.w3.org/1999/xlink" x="0px" y="0px" viewBox="0 0 60 60" style="enable-background:new 0 0 60 60;" xml:space="preserve"><g><g><path d="M0,0v60h10h40h10V0H0z M12,58V11h17v47H12z M31,58V11h17v47H31z M58,58h-8V9H10v49H2V2h56V58z" fill="#000000" style="fill: rgb(210, 169, 146);"></path><path d="M57,26h-6v16h6V26z M55,28v5h-2v-5H55z M53,40v-5h2v5H53z" fill="#000000" style="fill: rgb(210, 169, 146);"></path><path d="M39,3H21v5h18V3z M37,6H23V5h14V6z" fill="#000000" style="fill: rgb(210, 169, 146);"></path></g></g></svg>