<svg width="50" height="24" viewBox="0 0 50 24" fill="none" xmlns="http://www.w3.org/2000/svg">
<path d="M19.883 11.7446V19.152C19.883 20.078 19.152 22.3197 15.0097 23.0507C15.0097 23.0507 4.82456 25.0487 4.38596 11.8908C4.33723 10.8187 4.5809 9.74659 4.87329 8.67447C5.16569 7.60234 5.70175 6.62768 6.33528 5.65302C6.92008 4.77583 7.65107 4.04483 8.47953 3.36257C9.30799 2.68031 10.2826 2.14425 11.3548 1.75439C12.6218 1.26706 13.9376 1.02339 15.3021 1.02339C16.7641 1.02339 18.1287 1.26706 19.4444 1.80312C20.3216 2.14425 21.1501 2.63158 21.8811 3.21638L22.6608 2.53411C21.5887 1.80312 20.4191 1.21832 19.152 0.828459C17.4951 0.292396 15.7407 0 13.9864 0C11.7446 0 9.60039 0.438595 7.55361 1.31579C5.50682 2.19298 3.8499 3.46004 2.48538 5.11696C0.828459 7.21248 0 9.45419 0 11.9396C0 14.3762 0.828459 16.6667 2.48538 18.7622C3.8499 20.4191 5.55556 21.6862 7.55361 22.5633C9.60039 23.4405 11.6959 23.8791 13.9864 23.8791C15.7895 23.8791 17.4951 23.5868 19.2008 23.002C20.8577 22.4172 22.3684 21.5887 23.6842 20.5166V11.6959H19.883V11.7446Z" fill="#D2A992"/>
<path d="M46.1994 11.7446V19.152C46.1994 20.078 45.4685 22.3197 41.3261 23.0507C41.3261 23.0507 31.141 25.0487 30.7024 11.8908C30.6536 10.8187 30.8973 9.74659 31.1897 8.67447C31.4821 7.60234 32.0182 6.62768 32.6517 5.65302C33.2365 4.77583 33.9675 4.04483 34.7959 3.36257C35.6244 2.68031 36.5991 2.14425 37.6712 1.75439C38.9382 1.26706 40.254 1.02339 41.6186 1.02339C43.0805 1.02339 44.4451 1.26706 45.7609 1.80312C46.638 2.14425 47.4665 2.63158 48.1975 3.21638L48.9772 2.53411C47.9051 1.80312 46.7355 1.21832 45.4685 0.828459C43.8115 0.292396 42.0571 0 40.3028 0C38.061 0 35.9168 0.438595 33.87 1.31579C31.8232 2.19298 30.1663 3.46004 28.8018 5.11696C27.1449 7.21248 26.3164 9.45419 26.3164 11.9396C26.3164 14.3762 27.1449 16.6667 28.8018 18.7622C30.1663 20.4191 31.872 21.6862 33.87 22.5633C35.9168 23.4405 38.0123 23.8791 40.3028 23.8791C42.1059 23.8791 43.8115 23.5868 45.5172 23.002C47.1741 22.4172 48.6848 21.5887 50.0006 20.5166V11.6959H46.1994V11.7446Z" fill="#D2A992"/>
</svg>
