<svg width="90" height="1214" viewBox="0 0 90 1214" fill="none" xmlns="http://www.w3.org/2000/svg">
<path d="M43.8839 1139.71H71.5617C75.0214 1139.71 83.3976 1142.44 86.129 1157.92C86.129 1157.92 93.5947 1195.97 44.4302 1197.61C40.4242 1197.79 36.4182 1196.88 32.4122 1195.79C28.4062 1194.7 24.7644 1192.7 21.1226 1190.33C17.8449 1188.14 15.1135 1185.41 12.5643 1182.32C10.015 1179.22 8.01201 1175.58 6.55528 1171.57C4.73438 1166.84 3.82392 1161.92 3.82392 1156.82C3.82392 1151.36 4.73436 1146.26 6.73736 1141.35C8.01199 1138.07 9.83292 1134.97 12.018 1132.24L9.46872 1129.33C6.73736 1133.33 4.55227 1137.7 3.09554 1142.44C1.09254 1148.63 0 1155.18 0 1161.74C0 1170.12 1.63881 1178.13 4.91645 1185.78C8.19409 1193.42 12.9285 1199.61 19.1195 1204.71C26.9495 1210.9 35.3256 1214 44.6123 1214C53.7168 1214 62.2751 1210.9 70.105 1204.71C76.2961 1199.61 81.0304 1193.24 84.3081 1185.78C87.5857 1178.13 89.2245 1170.3 89.2245 1161.74C89.2245 1155 88.132 1148.63 85.9469 1142.26C83.7618 1136.07 80.6663 1130.42 76.6603 1125.5H43.7018V1139.71H43.8839Z" fill="#F1EDEA"/>
<path d="M43.8839 509.854H71.5617C75.0214 509.854 83.3976 512.586 86.129 528.063C86.129 528.063 93.5947 566.12 44.4302 567.759C40.4242 567.941 36.4182 567.031 32.4122 565.938C28.4062 564.846 24.7644 562.843 21.1226 560.476C17.8449 558.291 15.1135 555.559 12.5643 552.464C10.015 549.368 8.01201 545.726 6.55528 541.72C4.73438 536.986 3.82392 532.069 3.82392 526.971C3.82392 521.508 4.73436 516.41 6.73736 511.493C8.01199 508.216 9.83292 505.12 12.018 502.389L9.46872 499.475C6.73736 503.481 4.55227 507.851 3.09554 512.586C1.09254 518.777 0 525.332 0 531.887C0 540.264 1.63881 548.276 4.91645 555.923C8.19409 563.571 12.9285 569.762 19.1195 574.861C26.9495 581.052 35.3256 584.147 44.6123 584.147C53.7168 584.147 62.2751 581.052 70.105 574.861C76.2961 569.762 81.0304 563.389 84.3081 555.923C87.5857 548.276 89.2245 540.446 89.2245 531.887C89.2245 525.15 88.132 518.777 85.9469 512.404C83.7618 506.213 80.6663 500.568 76.6603 495.651H43.7018V509.854H43.8839Z" fill="#F1EDEA"/>
<path d="M1.45691 1059.59C1.45691 1054.12 2.18527 1049.03 3.64199 1044.11C5.09872 1039.19 7.2838 1034.64 9.83307 1030.63C12.5644 1026.63 15.66 1022.99 19.3018 1020.07C22.9436 1016.98 26.9496 1014.79 31.3198 1013.15C35.69 1011.51 40.4244 1010.6 45.1587 1010.6C49.8931 1010.6 54.6274 1011.51 58.9976 1013.15C63.3678 1014.79 67.3738 1017.16 71.0156 1020.07C74.6574 1023.17 77.9351 1026.63 80.4844 1030.63C83.2157 1034.64 85.2187 1039.19 86.6755 1044.11C88.1322 1049.03 88.8605 1054.12 88.8605 1059.59C88.8605 1065.05 88.1322 1070.15 86.6755 1075.06C85.2187 1079.98 83.2157 1084.53 80.4844 1088.54C77.753 1092.55 74.6574 1096.19 71.0156 1099.1C67.3738 1102.01 63.3678 1104.38 58.9976 1106.02C54.6274 1107.66 49.8931 1108.57 45.1587 1108.57C40.4244 1108.57 35.69 1107.66 31.3198 1106.02C26.9496 1104.38 22.9436 1102.01 19.3018 1099.1C15.66 1096.19 12.5644 1092.55 9.83307 1088.54C7.10171 1084.53 5.09872 1079.98 3.64199 1075.06C2.18527 1070.15 1.45691 1064.87 1.45691 1059.59ZM4.55245 1059.59C4.55245 1061.59 4.73453 1063.77 5.2808 1065.78C6.37335 1069.97 8.01218 1073.61 10.5615 1076.89C13.1107 1080.16 16.0242 1082.89 19.1197 1085.08C23.1257 1087.81 27.3138 1089.63 31.684 1090.91C36.2363 1092.18 40.7885 1092.73 45.1587 1092.73C49.711 1092.73 54.2633 1092.18 58.6335 1090.91C63.1857 1089.63 67.3738 1087.63 71.1977 1085.08C74.4754 1082.89 77.3888 1080.16 79.756 1076.89C82.3052 1073.61 83.9441 1069.97 85.0367 1065.78C85.5829 1063.77 85.765 1061.59 85.765 1059.59C85.765 1057.4 85.5829 1055.4 85.0367 1053.4C83.9441 1049.21 82.3052 1045.57 79.756 1042.29C77.2067 1039.01 74.2933 1036.28 71.1977 1034.09C67.1917 1031.36 63.0037 1029.54 58.6335 1028.27C54.0812 1026.99 49.5289 1026.45 45.1587 1026.45C40.6065 1026.45 36.0542 1026.99 31.684 1028.27C27.1317 1029.54 22.9436 1031.54 19.1197 1034.09C15.8421 1036.28 12.9286 1039.01 10.5615 1042.29C8.01218 1045.57 6.37335 1049.21 5.2808 1053.4C4.91662 1055.22 4.55245 1057.4 4.55245 1059.59Z" fill="#F1EDEA"/>
<path d="M78.1169 979.285C81.2124 979.285 83.7617 976.736 83.7617 973.64L83.7617 923.383H87.4035L87.4035 987.479C87.4035 990.757 84.8542 993.306 81.5766 993.306H4.00586L4.00586 979.285H78.1169Z" fill="#F1EDEA"/>
<path d="M45.7047 819.773C53.3525 819.773 60.272 821.958 66.6451 826.328C73.0183 830.699 77.9348 836.525 81.7587 843.627C85.5826 850.911 87.4035 858.923 87.4035 867.845L87.4035 906.448H4.00586L4.00586 867.845C4.00586 858.923 5.82678 850.911 9.65069 843.627C13.4746 836.343 18.3911 830.516 24.7642 826.328C31.1374 821.958 38.0569 819.773 45.7047 819.773ZM83.7617 890.242L83.7617 874.036C83.7617 867.845 82.6691 862.2 80.6661 857.466C78.6631 852.731 75.7497 848.726 72.29 845.448C68.8302 842.17 64.6421 839.803 60.0899 838.164C55.5376 836.525 50.8032 835.615 45.7047 835.615C38.7852 835.615 32.4121 837.072 26.5851 840.167C20.7582 843.263 16.206 847.633 12.7462 853.278C9.2865 858.923 7.64768 865.842 7.64768 873.854L7.64768 890.06H83.7617V890.242Z" fill="#F1EDEA"/>
<path d="M10.9253 802.656C7.10141 802.656 4.00586 799.561 4.00586 795.737L4.00586 728.91H7.64768L7.64768 783.719C7.64768 786.45 9.83276 788.635 12.5641 788.635H40.9703L40.9703 745.298H44.6121L44.6121 788.635H78.8452C81.5766 788.635 83.7617 786.45 83.7617 783.719L83.7617 728.91H87.4035L87.4035 795.737C87.4035 799.561 84.308 802.656 80.4841 802.656H10.9253Z" fill="#F1EDEA"/>
<path d="M3.64179 702.871L65.0064 643.145C65.9169 642.235 65.1885 640.414 63.9139 640.414H2.00299L2.00299 636.59H86.3111C89.4066 636.59 91.0454 640.414 88.8603 642.599L24.4001 705.42C23.4897 706.331 24.2181 708.152 25.4927 708.152H87.5857V711.975L6.73733 711.793C-3.08752e-05 711.975 1.63879 705.238 3.64179 702.871Z" fill="#F1EDEA"/>
<path d="M45.7047 183.183C53.3525 183.183 60.272 185.368 66.6451 189.739C73.0183 194.109 77.9348 199.936 81.7587 207.037C85.5826 214.321 87.4035 222.333 87.4035 231.255L87.4035 269.859H4.00586L4.00586 231.255C4.00586 222.333 5.82678 214.321 9.65069 207.037C13.4746 199.754 18.3911 193.927 24.7642 189.739C31.1374 185.368 38.0569 183.183 45.7047 183.183ZM83.7617 253.835L83.7617 237.629C83.7617 231.438 82.6691 225.793 80.6661 221.058C78.6631 216.324 75.7497 212.318 72.29 209.04C68.8302 205.763 64.6421 203.396 60.0899 201.757C55.5376 200.118 50.8032 199.207 45.7047 199.207C38.7852 199.207 32.4121 200.664 26.5851 203.76C20.7582 206.855 16.206 211.225 12.7462 216.87C9.2865 222.515 7.64768 229.434 7.64768 237.446L7.64768 253.653L83.7617 253.653V253.835Z" fill="#F1EDEA"/>
<path d="M10.9253 166.249C7.10141 166.249 4.00586 163.154 4.00586 159.33L4.00586 92.5022H7.64768L7.64768 147.312C7.64768 150.043 9.83276 152.228 12.5641 152.228H40.9703L40.9703 108.89H44.6121L44.6121 152.228L78.8452 152.228C81.5766 152.228 83.7617 150.043 83.7617 147.312L83.7617 92.5022H87.4035L87.4035 159.33C87.4035 163.154 84.308 166.249 80.4841 166.249L10.9253 166.249Z" fill="#F1EDEA"/>
<path d="M3.64179 66.281L65.0064 6.55516C65.9169 5.64471 65.1885 3.8238 63.9139 3.8238L2.00299 3.8238L2.00299 -6.86646e-05L86.3111 -6.86646e-05C89.4066 -6.86646e-05 91.0454 3.82381 88.8603 6.00891L24.4001 68.8303C23.4897 69.7407 24.2181 71.5616 25.4927 71.5616L87.5857 71.5616V75.3855L6.73733 75.2035C-3.08752e-05 75.3855 1.63879 68.6481 3.64179 66.281Z" fill="#F1EDEA"/>
<path d="M49.3468 454.499L87.5859 473.982V478.717L1.45691 434.287L1.45691 429.552L87.5859 385.122L87.5859 402.603L49.3468 422.269L49.3468 454.499ZM18.2093 438.475L46.0692 453.042L45.8871 424.272L18.2093 438.475Z" fill="#F1EDEA"/>
<path d="M43.3378 327.035C43.3378 321.755 42.0632 297.719 32.9587 293.531C26.9497 290.799 19.666 290.799 15.2958 293.895C11.654 296.444 8.74057 300.086 6.55547 304.456C4.37038 308.826 3.27783 313.743 3.27783 319.023L3.27783 362.543C3.27783 365.456 5.64501 368.006 8.74056 368.006H87.5859V353.438H12.0182C9.28684 353.438 7.10172 351.253 7.10172 348.522L7.10172 331.588C6.00918 312.104 15.1137 307.005 23.3078 307.005C39.3318 307.005 41.3348 324.122 41.3348 330.859V346.155H44.2483L44.4304 335.047C44.4304 333.955 44.6125 329.767 44.7946 328.856C47.5259 316.292 53.717 314.653 64.0962 310.101L87.5859 302.453V286.611L62.0932 296.808C58.4514 298.265 53.1707 301.36 50.6215 304.456C48.4364 307.005 46.7976 310.101 46.0692 313.378L43.3378 327.035Z" fill="#F1EDEA"/>
</svg>
