<svg width="57" height="758" viewBox="0 0 57 758" fill="none" xmlns="http://www.w3.org/2000/svg">
<path d="M27.3974 711.613H44.6789C46.8391 711.613 52.069 713.318 53.7745 722.982C53.7745 722.982 58.4359 746.744 27.7385 747.768C25.2372 747.881 22.7359 747.313 20.2347 746.631C17.7334 745.948 15.4595 744.698 13.1856 743.22C11.1391 741.855 9.43369 740.15 7.84197 738.217C6.25025 736.284 4.99963 734.011 4.09007 731.509C2.95313 728.553 2.38466 725.483 2.38466 722.3C2.38466 718.889 2.95312 715.706 4.20376 712.636C4.99962 710.589 6.13657 708.657 7.5009 706.951L5.90917 705.132C4.20376 707.633 2.83942 710.362 1.92987 713.318C0.679233 717.184 -0.00292969 721.277 -0.00292969 725.37C-0.00292969 730.6 1.02032 735.602 3.06681 740.377C5.11331 745.153 8.06937 749.018 11.935 752.202C16.8238 756.067 22.0538 758 27.8522 758C33.5369 758 38.8805 756.067 43.7694 752.202C47.635 749.018 50.591 745.039 52.6375 740.377C54.684 735.602 55.7073 730.713 55.7073 725.37C55.7073 721.163 55.0251 717.184 53.6608 713.204C52.2965 709.339 50.3637 705.814 47.8624 702.745H27.2837L27.2837 711.613H27.3974Z" fill="#F1EDEA" fill-opacity="0.08"/>
<path d="M27.3974 318.344H44.6789C46.8391 318.344 52.069 320.05 53.7745 329.714C53.7745 329.714 58.4359 353.476 27.7385 354.499C25.2372 354.613 22.7359 354.044 20.2347 353.362C17.7334 352.68 15.4595 351.429 13.1856 349.951C11.1391 348.587 9.43369 346.881 7.84197 344.949C6.25025 343.016 4.99963 340.742 4.09007 338.241C2.95313 335.285 2.38466 332.215 2.38466 329.031C2.38466 325.621 2.95312 322.437 4.20376 319.367C4.99962 317.321 6.13657 315.388 7.5009 313.683L5.90917 311.864C4.20376 314.365 2.83942 317.094 1.92987 320.05C0.679233 323.915 -0.00292969 328.008 -0.00292969 332.101C-0.00292969 337.331 1.02032 342.334 3.06681 347.109C5.11331 351.884 8.06937 355.75 11.935 358.933C16.8238 362.799 22.0538 364.731 27.8522 364.731C33.5369 364.731 38.8805 362.799 43.7694 358.933C47.635 355.75 50.591 351.77 52.6375 347.109C54.684 342.334 55.7073 337.445 55.7073 332.101C55.7073 327.894 55.0251 323.915 53.6608 319.936C52.2965 316.07 50.3637 312.546 47.8624 309.476H27.2837L27.2837 318.344H27.3974Z" fill="#F1EDEA" fill-opacity="0.08"/>
<path d="M0.906738 661.587C0.906738 658.176 1.36151 654.993 2.27107 651.923C3.18062 648.853 4.54495 646.011 6.13667 643.51C7.84208 641.008 9.7749 638.735 12.0488 636.915C14.3227 634.983 16.8239 633.618 19.5526 632.595C22.2813 631.572 25.2373 631.003 28.1934 631.003C31.1494 631.003 34.1055 631.572 36.8341 632.595C39.5628 633.618 42.0641 635.096 44.338 636.915C46.6118 638.848 48.6584 641.008 50.2501 643.51C51.9555 646.011 53.2061 648.853 54.1157 651.923C55.0252 654.993 55.48 658.176 55.48 661.587C55.48 664.998 55.0252 668.181 54.1157 671.251C53.2061 674.321 51.9555 677.163 50.2501 679.665C48.5447 682.166 46.6118 684.44 44.338 686.259C42.0641 688.078 39.5628 689.556 36.8341 690.579C34.1055 691.602 31.1494 692.171 28.1934 692.171C25.2373 692.171 22.2813 691.602 19.5526 690.579C16.8239 689.556 14.3227 688.078 12.0488 686.259C9.7749 684.44 7.84208 682.166 6.13667 679.665C4.43125 677.163 3.18062 674.321 2.27107 671.251C1.36151 668.181 0.906738 664.884 0.906738 661.587ZM2.83954 661.587C2.83954 662.838 2.95323 664.202 3.29431 665.453C3.97647 668.068 4.99973 670.342 6.59145 672.388C8.18317 674.435 10.0023 676.14 11.9351 677.504C14.4364 679.21 17.0513 680.347 19.78 681.143C22.6223 681.938 25.4647 682.279 28.1934 682.279C31.0357 682.279 33.8781 681.938 36.6068 681.143C39.4491 680.347 42.0641 679.096 44.4517 677.504C46.4982 676.14 48.3172 674.435 49.7953 672.388C51.387 670.342 52.4103 668.068 53.0924 665.453C53.4335 664.202 53.5472 662.838 53.5472 661.587C53.5472 660.223 53.4335 658.972 53.0924 657.722C52.4103 655.107 51.387 652.833 49.7953 650.786C48.2035 648.74 46.3845 647.034 44.4517 645.67C41.9504 643.965 39.3354 642.828 36.6068 642.032C33.7644 641.236 30.922 640.895 28.1934 640.895C25.351 640.895 22.5086 641.236 19.78 642.032C16.9376 642.828 14.3227 644.078 11.9351 645.67C9.88858 647.034 8.06948 648.74 6.59145 650.786C4.99973 652.833 3.97647 655.107 3.29431 657.722C3.06692 658.858 2.83954 660.223 2.83954 661.587Z" fill="#F1EDEA" fill-opacity="0.08"/>
<path d="M48.7718 611.449C50.7046 611.449 52.2963 609.857 52.2963 607.924L52.2963 576.545H54.5702L54.5702 616.565C54.5702 618.611 52.9785 620.203 50.932 620.203H2.49823L2.49823 611.449H48.7718Z" fill="#F1EDEA" fill-opacity="0.08"/>
<path d="M28.5342 511.852C33.3094 511.852 37.6298 513.216 41.6091 515.945C45.5884 518.673 48.6581 522.312 51.0457 526.746C53.4333 531.293 54.5702 536.296 54.5702 541.867L54.5702 565.97H2.49823L2.49823 541.867C2.49823 536.296 3.63518 531.293 6.02276 526.746C8.41034 522.198 11.4801 518.56 15.4594 515.945C19.4387 513.216 23.7591 511.852 28.5342 511.852ZM52.2963 555.851L52.2963 545.733C52.2963 541.867 51.6142 538.342 50.3635 535.386C49.1129 532.43 47.2938 529.929 45.1336 527.883C42.9734 525.836 40.3584 524.358 37.5161 523.335C34.6737 522.312 31.7177 521.743 28.5342 521.743C24.2139 521.743 20.2346 522.653 16.5963 524.585C12.9581 526.518 10.1158 529.247 7.95556 532.771C5.79537 536.296 4.77212 540.616 4.77212 545.619L4.77212 555.738H52.2963V555.851Z" fill="#F1EDEA" fill-opacity="0.08"/>
<path d="M6.81862 501.165C4.43104 501.165 2.49823 499.232 2.49823 496.844L2.49823 455.118H4.77212L4.77212 489.34C4.77212 491.046 6.13644 492.41 7.84186 492.41H25.5782L25.5782 465.351H27.8521L27.8521 492.41H49.2266C50.932 492.41 52.2963 491.046 52.2963 489.34L52.2963 455.118H54.5702L54.5702 496.844C54.5702 499.232 52.6374 501.165 50.2499 501.165H6.81862Z" fill="#F1EDEA" fill-opacity="0.08"/>
<path d="M2.2709 438.86L40.5859 401.568C41.1544 401 40.6996 399.863 39.9037 399.863H1.24766L1.24766 397.475H53.8881C55.8209 397.475 56.8442 399.863 55.4798 401.227L15.232 440.452C14.6636 441.02 15.1184 442.157 15.9142 442.157H54.684V444.545L4.2037 444.431C-0.0029875 444.545 1.02026 440.338 2.2709 438.86Z" fill="#F1EDEA" fill-opacity="0.08"/>
<path d="M28.5342 114.377C33.3094 114.377 37.6298 115.741 41.6091 118.47C45.5884 121.198 48.6581 124.837 51.0457 129.271C53.4333 133.818 54.5702 138.821 54.5702 144.392L54.5702 168.495H2.49823L2.49823 144.392C2.49823 138.821 3.63518 133.818 6.02276 129.271C8.41034 124.723 11.4801 121.085 15.4594 118.47C19.4387 115.741 23.7591 114.377 28.5342 114.377ZM52.2963 158.49L52.2963 148.371C52.2963 144.506 51.6142 140.981 50.3635 138.025C49.1129 135.069 47.2938 132.568 45.1336 130.521C42.9734 128.475 40.3584 126.997 37.5161 125.973C34.6737 124.95 31.7177 124.382 28.5342 124.382C24.2139 124.382 20.2346 125.291 16.5963 127.224C12.9581 129.157 10.1158 131.886 7.95556 135.41C5.79537 138.935 4.77212 143.255 4.77212 148.258L4.77212 158.376H52.2963V158.49Z" fill="#F1EDEA" fill-opacity="0.08"/>
<path d="M6.81862 103.803C4.43104 103.803 2.49823 101.87 2.49823 99.4824L2.49823 57.7565H4.77212L4.77212 91.9785C4.77212 93.6839 6.13644 95.0483 7.84186 95.0483H25.5782L25.5782 67.989H27.8521L27.8521 95.0483L49.2266 95.0483C50.932 95.0483 52.2963 93.6839 52.2963 91.9785L52.2963 57.7565H54.5702L54.5702 99.4824C54.5702 101.87 52.6374 103.803 50.2499 103.803L6.81862 103.803Z" fill="#F1EDEA" fill-opacity="0.08"/>
<path d="M2.2709 41.3851L40.5859 4.09339C41.1544 3.52492 40.6996 2.38797 39.9037 2.38797L1.24766 2.38797L1.24766 0.000419617L53.8881 0.000419617C55.8209 0.000419617 56.8442 2.38799 55.4798 3.75232L15.232 42.9769C14.6636 43.5453 15.1184 44.6823 15.9142 44.6823L54.684 44.6823V47.0698L4.2037 46.9562C-0.0029875 47.0699 1.02026 42.8631 2.2709 41.3851Z" fill="#F1EDEA" fill-opacity="0.08"/>
<path d="M30.8083 283.781L54.6841 295.946V298.902L0.906738 271.161L0.906738 268.205L54.6841 240.464V251.378L30.8083 263.657L30.8083 283.781ZM11.3666 273.776L28.7618 282.871L28.6481 264.908L11.3666 273.776Z" fill="#F1EDEA" fill-opacity="0.08"/>
<path d="M27.0564 204.195C27.0564 200.898 26.2606 185.89 20.5758 183.275C16.8239 181.57 12.2761 181.57 9.54748 183.503C7.2736 185.094 5.4545 187.368 4.09017 190.097C2.72584 192.826 2.04367 195.895 2.04367 199.193L2.04367 226.366C2.04367 228.185 3.5217 229.776 5.4545 229.776H54.6841V220.681H7.501C5.79559 220.681 4.43124 219.316 4.43124 217.611L4.43124 207.038C3.74907 194.872 9.4338 191.689 14.55 191.689C24.5551 191.689 25.8058 202.376 25.8058 206.583L25.8058 216.133H27.6249L27.7386 209.198C27.7386 208.516 27.8523 205.901 27.966 205.332C29.6714 197.487 33.537 196.464 40.0176 193.622L54.6841 188.846L54.6841 178.955L38.7669 185.322C36.493 186.231 33.1959 188.164 31.6042 190.097C30.2399 191.689 29.2166 193.622 28.7618 195.668L27.0564 204.195Z" fill="#F1EDEA" fill-opacity="0.08"/>
</svg>
