<svg width="731" height="350" viewBox="0 0 731 350" fill="none" xmlns="http://www.w3.org/2000/svg">
<path d="M290.69 171.707V280.003C290.69 293.54 280.003 326.314 219.442 337.001C219.442 337.001 70.5351 366.212 64.1228 173.844C63.4103 158.17 66.9727 142.495 71.2476 126.821C75.5224 111.146 83.3596 96.8967 92.6218 82.6472C101.172 69.8227 111.859 59.1354 123.971 49.1608C136.083 39.1861 150.332 31.349 166.007 25.6492C184.531 18.5244 203.768 14.962 223.717 14.962C245.092 14.962 265.041 18.5243 284.278 26.3616C297.102 31.3489 309.214 38.4737 319.902 47.0234L331.301 37.0487C315.627 26.3616 298.527 17.8119 280.003 12.1121C255.779 4.27483 230.13 0 204.48 0C171.707 0 140.358 6.41226 110.434 19.2368C80.5098 32.0614 56.2856 50.5858 36.3362 74.8099C12.1121 105.446 0 138.22 0 174.557C0 210.18 12.1121 243.667 36.3362 274.303C56.2856 298.527 81.2222 317.052 110.434 329.876C140.358 342.701 170.994 349.113 204.48 349.113C230.842 349.113 255.779 344.838 280.715 336.289C304.94 327.739 327.026 315.627 346.263 299.952V170.994H290.69V171.707Z" fill="white"/>
<path d="M675.427 171.707V280.003C675.427 293.54 664.74 326.314 604.179 337.001C604.179 337.001 455.272 366.212 448.86 173.844C448.147 158.17 451.71 142.495 455.984 126.821C460.259 111.146 468.096 96.8967 477.359 82.6472C485.908 69.8227 496.596 59.1354 508.708 49.1608C520.82 39.1861 535.069 31.349 550.744 25.6492C569.268 18.5244 588.505 14.962 608.454 14.962C629.828 14.962 649.778 18.5243 669.015 26.3616C681.839 31.3489 693.951 38.4737 704.638 47.0234L716.038 37.0487C700.363 26.3616 683.264 17.8119 664.74 12.1121C640.516 4.27483 614.866 0 589.217 0C556.443 0 525.095 6.41226 495.171 19.2368C465.247 32.0614 441.022 50.5858 421.073 74.8099C396.849 105.446 384.737 138.22 384.737 174.557C384.737 210.18 396.849 243.667 421.073 274.303C441.022 298.527 465.959 317.052 495.171 329.876C525.095 342.701 555.731 349.113 589.217 349.113C615.579 349.113 640.516 344.838 665.452 336.289C689.676 327.739 711.763 315.627 731 299.952V170.994H675.427V171.707Z" fill="white"/>
</svg>
