<svg width="1920" height="330" viewBox="0 0 1920 330" fill="none" xmlns="http://www.w3.org/2000/svg">
<path d="M0 106C21.3553 99.145 132.333 62.9999 196.111 47.9998C259.889 32.9998 416 11.9998 431 53.5554C460.759 136 204 226 259.889 313C269.183 324.949 292.556 327.829 306.556 328C340.01 328.408 371.218 327.199 403.444 317.111C505 291 693.233 197.909 716.333 188.222C731.296 181.947 745.28 173.424 759.444 165.555C789.162 149.046 817.633 131.396 848.111 116.444C875.731 102.895 951.778 40.3537 995.889 64C1040 87.6463 916 281 1071 174.889C1226 68.7775 1224 181 1207.67 250.889C1184.88 348.373 1309.11 286.222 1354.56 246.889C1400 207.555 1688 29 1919 2" stroke="#D9D9D9" stroke-width="3" stroke-linecap="round"/>
</svg>
