<svg width="280" height="47" viewBox="0 0 280 47" fill="none" xmlns="http://www.w3.org/2000/svg">
<path d="M17.212 10.1169V16.4977C17.212 17.2953 16.5823 19.2264 13.0141 19.8561C13.0141 19.8561 4.24046 21.5772 3.86264 10.2429C3.82067 9.31934 4.03056 8.3958 4.28243 7.47227C4.53431 6.54873 4.99608 5.70915 5.5418 4.86957C6.04555 4.11395 6.67524 3.48426 7.38888 2.89655C8.10252 2.30884 8.9421 1.84708 9.86564 1.51125C10.9571 1.09146 12.0905 0.881562 13.2659 0.881562C14.5253 0.881562 15.7007 1.09145 16.8342 1.55322C17.5898 1.84708 18.3034 2.26687 18.9331 2.77062L19.6048 2.18291C18.6812 1.55322 17.6737 1.04947 16.5823 0.713642C15.155 0.251873 13.6438 0 12.1325 0C10.2015 0 8.3544 0.37781 6.59128 1.13343C4.82816 1.88905 3.40087 2.98051 2.22546 4.4078C0.798176 6.21289 0.0845337 8.14393 0.0845337 10.2849C0.0845337 12.3838 0.798176 14.3568 2.22546 16.1619C3.40087 17.5892 4.87014 18.6807 6.59128 19.4363C8.3544 20.1919 10.1595 20.5697 12.1325 20.5697C13.6857 20.5697 15.155 20.3178 16.6243 19.8141C18.0515 19.3104 19.3529 18.5967 20.4863 17.6732V10.075H17.212V10.1169Z" fill="white"/>
<path d="M162.417 10.1169V16.4977C162.417 17.2953 161.788 19.2264 158.219 19.8561C158.219 19.8561 149.446 21.5772 149.068 10.2429C149.026 9.31934 149.236 8.3958 149.488 7.47227C149.74 6.54873 150.201 5.70915 150.747 4.86957C151.251 4.11395 151.881 3.48426 152.594 2.89655C153.308 2.30884 154.147 1.84708 155.071 1.51125C156.162 1.09146 157.296 0.881562 158.471 0.881562C159.731 0.881562 160.906 1.09145 162.04 1.55322C162.795 1.84708 163.509 2.26687 164.139 2.77062L164.81 2.18291C163.887 1.55322 162.879 1.04947 161.788 0.713642C160.36 0.251873 158.849 0 157.338 0C155.407 0 153.56 0.37781 151.797 1.13343C150.034 1.88905 148.606 2.98051 147.431 4.4078C146.004 6.21289 145.29 8.14393 145.29 10.2849C145.29 12.3838 146.004 14.3568 147.431 16.1619C148.606 17.5892 150.076 18.6807 151.797 19.4363C153.56 20.1919 155.365 20.5697 157.338 20.5697C158.891 20.5697 160.36 20.3178 161.83 19.8141C163.257 19.3104 164.558 18.5967 165.692 17.6732V10.075H162.417V10.1169Z" fill="white"/>
<path d="M35.6827 0.335815C36.9421 0.335815 38.1175 0.50373 39.2509 0.839562C40.3844 1.17539 41.4339 1.67914 42.3574 2.26685C43.2809 2.89653 44.1205 3.61018 44.7922 4.44976C45.5058 5.28934 46.0096 6.21287 46.3874 7.22037C46.7652 8.22787 46.9751 9.31932 46.9751 10.4108C46.9751 11.5022 46.7652 12.5937 46.3874 13.6012C46.0096 14.6087 45.4638 15.5322 44.7922 16.3718C44.0785 17.2114 43.2809 17.967 42.3574 18.5547C41.4339 19.1844 40.3844 19.6462 39.2509 19.982C38.1175 20.3178 36.9421 20.4857 35.6827 20.4857C34.4234 20.4857 33.2479 20.3178 32.1145 19.982C30.9811 19.6462 29.9316 19.1844 29.0081 18.5547C28.0845 17.925 27.245 17.2114 26.5733 16.3718C25.9016 15.5322 25.3559 14.6087 24.9781 13.6012C24.6003 12.5937 24.3904 11.5022 24.3904 10.4108C24.3904 9.31932 24.6003 8.22787 24.9781 7.22037C25.3559 6.21287 25.9016 5.28934 26.5733 4.44976C27.245 3.61018 28.0845 2.89653 29.0081 2.26685C29.9316 1.63716 30.9811 1.17539 32.1145 0.839562C33.2479 0.50373 34.4653 0.335815 35.6827 0.335815ZM35.6827 1.04946C35.221 1.04946 34.7172 1.09143 34.2554 1.21737C33.2899 1.46924 32.4503 1.84706 31.6947 2.43477C30.9391 3.02247 30.3094 3.69413 29.8057 4.40778C29.176 5.33132 28.7562 6.29683 28.4623 7.30433C28.1685 8.3538 28.0426 9.40328 28.0426 10.4108C28.0426 11.4603 28.1685 12.5097 28.4623 13.5172C28.7562 14.5667 29.218 15.5322 29.8057 16.4138C30.3094 17.1694 30.9391 17.8411 31.6947 18.3868C32.4503 18.9745 33.2899 19.3523 34.2554 19.6042C34.7172 19.7301 35.221 19.7721 35.6827 19.7721C36.1865 19.7721 36.6483 19.7301 37.11 19.6042C38.0755 19.3523 38.9151 18.9745 39.6707 18.3868C40.4264 17.7991 41.056 17.1274 41.5598 16.4138C42.1895 15.4902 42.6093 14.5247 42.9031 13.5172C43.197 12.4678 43.3229 11.4183 43.3229 10.4108C43.3229 9.3613 43.197 8.31182 42.9031 7.30433C42.6093 6.25485 42.1475 5.28934 41.5598 4.40778C41.056 3.65216 40.4264 2.98049 39.6707 2.43477C38.9151 1.84706 38.0755 1.46924 37.11 1.21737C36.6902 1.13341 36.1865 1.04946 35.6827 1.04946Z" fill="white"/>
<path d="M54.1955 18.009C54.1955 18.7227 54.7832 19.3104 55.4968 19.3104H67.083V20.15H52.3064C51.5508 20.15 50.9631 19.5623 50.9631 18.8066V0.923584H54.1955V18.009Z" fill="white"/>
<path d="M90.9691 10.5368C90.9691 12.2999 90.4653 13.8951 89.4578 15.3644C88.4503 16.8336 87.107 17.9671 85.4698 18.8486C83.7907 19.7302 81.9436 20.15 79.8866 20.15H70.9871V0.923584H79.8866C81.9436 0.923584 83.7907 1.34338 85.4698 2.22494C87.149 3.1065 88.4923 4.23993 89.4578 5.7092C90.4653 7.17846 90.9691 8.77366 90.9691 10.5368ZM74.7232 19.3104H78.4593C79.8866 19.3104 81.188 19.0585 82.2794 18.5967C83.3709 18.135 84.2944 17.4633 85.05 16.6657C85.8056 15.8681 86.3514 14.9026 86.7292 13.8531C87.107 12.8036 87.3169 11.7122 87.3169 10.5368C87.3169 8.94158 86.9811 7.47231 86.2674 6.12899C85.5538 4.78566 84.5463 3.73618 83.2449 2.93858C81.9436 2.14098 80.3484 1.76316 78.5013 1.76316H74.7652V19.3104H74.7232Z" fill="white"/>
<path d="M94.9151 2.51879C94.9151 1.63723 95.6288 0.923584 96.5103 0.923584H111.917V1.76316H99.2809C98.6512 1.76316 98.1475 2.26691 98.1475 2.8966V9.44532H108.138V10.2849H98.1475V18.177C98.1475 18.8066 98.6512 19.3104 99.2809 19.3104H111.917V20.15H96.5103C95.6288 20.15 94.9151 19.4363 94.9151 18.5548V2.51879Z" fill="white"/>
<path d="M117.92 0.839615L131.689 14.9865C131.899 15.1964 132.318 15.0285 132.318 14.7347V0.461807H133.2V19.8981C133.2 20.6117 132.318 20.9895 131.815 20.4858L117.332 5.62522C117.122 5.41533 116.702 5.58324 116.702 5.8771V20.1919H115.821L115.863 1.55326C115.821 3.36766e-05 117.374 0.377846 117.92 0.839615Z" fill="white"/>
<path d="M237.728 10.5368C237.728 12.2999 237.224 13.8951 236.216 15.3644C235.209 16.8336 233.866 17.9671 232.228 18.8486C230.549 19.7302 228.702 20.15 226.645 20.15H217.746V0.923584H226.645C228.702 0.923584 230.549 1.34338 232.228 2.22494C233.908 3.1065 235.251 4.23993 236.216 5.7092C237.224 7.17846 237.728 8.77366 237.728 10.5368ZM221.44 19.3104H225.176C226.603 19.3104 227.905 19.0585 228.996 18.5967C230.088 18.135 231.011 17.4633 231.767 16.6657C232.522 15.8681 233.068 14.9026 233.446 13.8531C233.824 12.8036 234.034 11.7122 234.034 10.5368C234.034 8.94158 233.698 7.47231 232.984 6.12899C232.27 4.78566 231.263 3.73618 229.962 2.93858C228.66 2.14098 227.065 1.76316 225.218 1.76316H221.482V19.3104H221.44Z" fill="white"/>
<path d="M241.632 2.51879C241.632 1.63723 242.345 0.923584 243.227 0.923584H258.633V1.76316H245.998C245.368 1.76316 244.864 2.26691 244.864 2.8966V9.44532H254.855V10.2849H244.864V18.177C244.864 18.8066 245.368 19.3104 245.998 19.3104H258.633V20.15H243.227C242.345 20.15 241.632 19.4363 241.632 18.5548V2.51879Z" fill="white"/>
<path d="M264.678 0.839615L278.447 14.9865C278.657 15.1964 279.077 15.0285 279.077 14.7347V0.461807H279.959V19.8981C279.959 20.6117 279.077 20.9895 278.573 20.4858L264.091 5.62522C263.881 5.41533 263.461 5.58324 263.461 5.8771V20.1919H262.579L262.621 1.55326C262.579 3.36766e-05 264.133 0.377846 264.678 0.839615Z" fill="white"/>
<path d="M175.179 11.3763L170.687 20.1919H169.596L179.839 0.335815H180.93L191.173 20.1919H187.143L182.609 11.3763H175.179ZM178.873 4.19788L175.515 10.6207L182.147 10.5787L178.873 4.19788Z" fill="white"/>
<path d="M204.564 9.991C205.782 9.991 211.323 9.69715 212.288 7.5982C212.918 6.21289 212.918 4.53372 212.204 3.52623C211.617 2.68665 210.777 2.01499 209.77 1.51124C208.762 1.00749 207.629 0.755615 206.411 0.755615H196.378C195.707 0.755615 195.119 1.30134 195.119 2.01499V20.1919H198.477V2.77061C198.477 2.14092 198.981 1.63717 199.611 1.63717H203.515C208.007 1.3853 209.182 3.48425 209.182 5.37331C209.182 9.06746 205.236 9.52923 203.683 9.52923H200.156V10.2009L202.717 10.2429C202.969 10.2429 203.935 10.2849 204.145 10.3268C207.041 10.9565 207.419 12.3838 208.468 14.7766L210.231 20.1919H213.884L211.533 14.3148C211.197 13.4753 210.483 12.2579 209.77 11.6702C209.182 11.1664 208.468 10.7886 207.713 10.6207L204.564 9.991Z" fill="white"/>
<path d="M59.9466 41.1814H0.000549316V41.3913H59.9466V41.1814Z" fill="white"/>
<path d="M280.001 41.1814H220.055V41.3913H280.001V41.1814Z" fill="white"/>
<path d="M89.6677 34.003C89.6677 34.3808 89.6258 34.7586 89.4998 35.2204C89.4159 35.6402 89.2899 35.892 89.206 35.892C89.122 35.892 89.08 35.8501 89.08 35.7661C89.08 35.7241 89.08 35.7241 89.08 35.6821C89.248 35.1784 89.3739 34.6327 89.3739 34.0869C89.3739 33.2054 89.122 32.4917 88.5763 31.946C88.0306 31.4003 87.3589 31.1484 86.4774 31.1484C85.3019 31.1484 84.0845 31.5262 82.8252 32.3238C83.8747 33.1634 84.4204 34.1289 84.4204 35.2204C84.4204 36.1439 84.0426 36.8995 83.3289 37.5712C82.6153 38.2429 81.7337 38.5787 80.7682 38.5787C80.3904 38.5787 79.9706 38.4947 79.5508 38.3268C79.131 38.1589 78.8792 38.033 78.8792 37.907C78.8792 37.865 78.9211 37.8231 78.9631 37.8231C79.0051 37.8231 79.0471 37.865 79.131 37.907C79.5508 38.1589 80.0126 38.2848 80.4743 38.2848C81.2719 38.2848 81.9856 37.949 82.5313 37.2354C83.119 36.5217 83.4129 35.7241 83.4129 34.7586C83.4129 33.919 83.119 33.2054 82.5313 32.5337C80.9781 33.6672 79.5508 35.6821 78.1655 38.5787C77.3259 40.3418 76.5703 41.6012 75.8567 42.3568C75.143 43.1124 74.1775 43.8261 72.9181 44.4558C71.4489 45.1694 70.1055 45.5472 68.9721 45.5472C68.0066 45.5472 67.251 45.3373 66.6213 44.8755C65.9916 44.4558 65.6558 43.91 65.6558 43.2384C65.6558 42.8606 65.7817 42.5667 65.9916 42.3148C66.2015 42.0629 66.4534 41.937 66.7472 41.937C67.167 41.937 67.3769 42.1889 67.3769 42.6507C67.3769 42.9025 67.2929 43.1124 67.167 43.2803C67.0411 43.4483 66.8312 43.5322 66.6213 43.5322C66.2435 43.5322 66.0756 43.3223 66.0756 42.9445C66.0756 42.7766 66.0755 42.6926 66.0336 42.6926C65.9076 42.6926 65.8657 42.8606 65.8657 43.2384C65.8657 43.8261 66.1595 44.3298 66.7472 44.7076C67.3349 45.0854 68.0486 45.2953 68.9301 45.2953C70.4833 45.2953 71.9106 44.7076 73.17 43.5742C73.7157 43.0704 74.1775 42.5667 74.5973 42.021C75.0171 41.4753 75.9406 40.0899 77.3679 37.907C78.0815 36.8156 78.9211 35.7661 79.8866 34.6747C80.8522 33.5832 81.6917 32.8276 82.3634 32.3658C81.2719 31.4423 79.6348 30.9385 77.4938 30.9385C74.5133 30.9385 71.9106 32.03 69.6857 34.1709C67.8807 35.934 66.9571 37.6132 66.9571 39.1664C66.9571 39.964 67.209 40.5937 67.7127 41.0555C68.2165 41.5172 68.9301 41.7691 69.7697 41.7691C71.197 41.7691 72.6663 41.0974 74.1775 39.7121C75.6887 38.3268 76.4444 37.0255 76.4444 35.7241C76.4444 34.6747 75.8986 34.1709 74.8492 34.1709C73.7997 34.1709 72.6663 34.7586 71.4489 35.934C70.2315 37.1094 69.6438 38.2009 69.6438 39.2504C69.6438 39.5022 69.7277 39.7121 69.8956 39.922C70.0636 40.0899 70.2735 40.2159 70.4833 40.2159C70.6093 40.2159 70.6513 40.2579 70.6513 40.2998C70.6513 40.3418 70.5673 40.3838 70.4414 40.3838C70.1055 40.3838 69.8117 40.2159 69.5598 39.922C69.3079 39.6282 69.224 39.2504 69.224 38.7886C69.224 37.6971 69.8117 36.6057 71.0291 35.5562C72.2465 34.5067 73.5058 34.003 74.7652 34.003C75.9826 34.003 76.6123 34.5487 76.6123 35.6821C76.6123 37.0675 75.8567 38.4528 74.3034 39.8381C72.7502 41.2234 71.239 41.937 69.7277 41.937C68.7622 41.937 67.9646 41.6432 67.3769 41.0555C66.7892 40.4677 66.4953 39.6702 66.4953 38.6627C66.4953 36.6477 67.6288 34.8426 69.8956 33.1634C72.1625 31.5262 74.6812 30.6866 77.4099 30.6866C79.5088 30.6866 81.23 31.1484 82.6573 32.0719C83.9586 31.2743 85.218 30.8546 86.4354 30.8546C87.4009 30.8546 88.1565 31.1484 88.7442 31.6941C89.3739 32.3238 89.6677 33.0794 89.6677 34.003Z" fill="white"/>
<path d="M87.9886 41.727C87.9886 41.769 87.7787 42.0629 87.3589 42.5246C86.8132 43.1124 86.3094 43.4062 85.8476 43.4062C85.3019 43.4062 85.05 43.1124 85.05 42.4827C85.05 42.2728 85.092 42.0209 85.176 41.727C84.7142 42.1049 84.3784 42.4827 84.0845 42.9025C83.7907 43.2803 83.3289 44.0779 82.6153 45.2533C82.2374 45.2113 82.0275 45.2113 81.9436 45.2113C81.9016 45.2113 81.6917 45.2113 81.3139 45.2533L83.077 42.4407C83.9586 41.0134 84.3784 40.1318 84.3784 39.796C84.3784 39.5861 84.2944 39.5022 84.1265 39.5022C83.7487 39.5022 82.9931 40.2578 81.9436 41.811C81.8596 41.895 81.8177 41.9789 81.7757 41.9789C81.7337 41.9789 81.7337 41.9369 81.7337 41.895C81.7337 41.853 81.7337 41.811 81.7757 41.811L81.9856 41.5591C83.077 40.0899 83.8326 39.3762 84.2105 39.3762C84.7982 39.3762 85.05 39.754 85.05 40.4677C85.05 41.0134 84.7562 41.7271 84.1685 42.6506C84.5463 42.2308 84.8821 41.895 85.218 41.6011C85.4698 40.9714 85.8057 40.4257 86.2255 40.0059C86.6452 39.5861 86.9811 39.3762 87.3169 39.3762C87.5268 39.3762 87.6527 39.4602 87.6527 39.6701C87.6527 40.0059 87.149 40.5097 86.1835 41.1393C86.0156 41.2233 85.8057 41.3912 85.4698 41.5591L85.3439 41.6851C85.2599 42.0209 85.176 42.2728 85.176 42.4827C85.176 43.0704 85.3859 43.3642 85.8476 43.3642C86.3934 43.3642 87.0231 42.9025 87.6527 41.9789C87.7787 41.811 87.8626 41.727 87.9046 41.727C87.9886 41.6851 87.9886 41.6851 87.9886 41.727Z" fill="white"/>
<path d="M93.3619 41.769C93.3619 41.811 93.2779 41.895 93.152 42.0629L92.6902 42.6506C91.2209 44.4557 89.9616 45.3792 88.9121 45.3792C88.4083 45.3792 87.9885 45.2113 87.6527 44.8335C87.3169 44.4557 87.149 44.0359 87.149 43.4902C87.149 42.2308 88.0305 41.0974 89.8356 40.1319C90.7592 39.6281 91.5148 39.3762 92.1025 39.3762C92.3544 39.3762 92.5643 39.4602 92.7742 39.5861C92.9421 39.754 93.026 39.922 93.026 40.1319C93.026 40.6356 92.6902 41.0974 92.0185 41.4332C91.3469 41.811 90.2554 42.1468 88.6602 42.4407C88.1984 43.1543 87.9466 43.784 87.9466 44.2878C87.9466 44.9175 88.2824 45.2113 88.9541 45.2113C90.0875 45.2113 91.4308 44.1199 93.068 41.9369C93.152 41.811 93.2359 41.769 93.2779 41.769C93.3619 41.6851 93.3619 41.7271 93.3619 41.769ZM92.4383 39.796C92.4383 39.5861 92.3124 39.4602 92.0605 39.4602C91.6827 39.4602 91.1789 39.7121 90.5912 40.2578C89.9616 40.7615 89.3739 41.4752 88.7861 42.2728C89.7936 42.0209 90.6752 41.6431 91.3888 41.1813C92.1025 40.6776 92.4383 40.2158 92.4383 39.796Z" fill="white"/>
<path d="M105.2 41.7271C105.2 41.7271 105.158 41.8111 105.074 41.895L104.612 42.5247C103.269 44.3718 102.303 45.2953 101.632 45.2953C101.296 45.2953 101.044 45.1694 100.792 44.9175C100.582 44.6656 100.456 44.3718 100.456 43.952C100.456 43.5742 100.582 43.1124 100.876 42.6506C100.918 42.5667 101.17 42.1889 101.632 41.5172C102.219 40.6776 102.513 40.0899 102.513 39.838C102.513 39.5442 102.387 39.4183 102.094 39.4183C101.17 39.4183 99.5328 41.3493 97.2659 45.1694C97.14 45.1274 96.9301 45.1274 96.6782 45.1274C96.3844 45.1274 96.1325 45.1274 95.9226 45.1694L97.4338 42.7766C98.3994 41.2234 98.9031 40.2578 98.9031 39.88C98.9031 39.5442 98.7772 39.4183 98.5253 39.4183C98.1475 39.4183 97.5178 39.964 96.5943 41.0974C95.7127 42.2309 94.8312 43.5742 93.9496 45.1694C93.7817 45.1274 93.5718 45.1274 93.3199 45.1274C93.0261 45.1274 92.8162 45.1274 92.6063 45.1694L94.1175 42.7766C95.167 41.1394 95.6707 40.1319 95.6707 39.7121C95.6707 39.5022 95.5868 39.3763 95.4189 39.3763C95.083 39.3763 94.3694 40.1319 93.2359 41.6432C93.152 41.7271 93.11 41.8111 93.068 41.8111C93.0261 41.8111 93.0261 41.7691 93.0261 41.7271C93.0261 41.6431 93.3619 41.2234 93.9916 40.3838C94.6213 39.5862 95.125 39.1664 95.4608 39.1664C95.6707 39.1664 95.8806 39.2923 96.0485 39.5022C96.2165 39.7121 96.3004 39.964 96.3004 40.2578C96.3004 40.6776 96.0905 41.2234 95.6707 41.979C96.9301 40.0899 97.8956 39.1664 98.5253 39.1664C98.8192 39.1664 99.071 39.2923 99.239 39.5442C99.4488 39.7961 99.5328 40.0899 99.5328 40.4677C99.5328 40.8875 99.3649 41.3913 98.9871 42.021C100.33 40.1319 101.338 39.2084 102.01 39.2084C102.303 39.2084 102.555 39.3343 102.765 39.5862C102.975 39.838 103.059 40.1739 103.059 40.5517C103.059 40.9715 102.891 41.5172 102.555 42.1049C102.555 42.1049 102.261 42.5667 101.632 43.4482C101.296 43.952 101.128 44.3298 101.128 44.6237C101.128 44.9175 101.254 45.0434 101.548 45.0434C102.094 45.0434 103.017 44.1619 104.276 42.3568L104.612 41.895L104.822 41.6432C104.864 41.5592 104.906 41.5172 104.948 41.5172C105.158 41.6851 105.2 41.6851 105.2 41.7271Z" fill="white"/>
<path d="M108.852 41.7271C108.852 41.7271 108.81 41.8111 108.726 41.895L108.264 42.5247C106.921 44.3718 105.914 45.2953 105.2 45.2953C104.864 45.2953 104.57 45.1694 104.36 44.9595C104.15 44.7076 104.025 44.4138 104.025 44.0779C104.025 43.6581 104.276 43.0285 104.738 42.1889L106.417 39.3763C106.627 39.4183 106.795 39.4602 106.921 39.4602C107.131 39.4602 107.383 39.4183 107.719 39.3763L105.326 43.3223C104.99 43.91 104.822 44.3298 104.822 44.6656C104.822 45.0015 104.99 45.1274 105.326 45.1274C105.956 45.1274 107.089 43.994 108.642 41.7691C108.684 41.6851 108.726 41.6432 108.768 41.6432C108.81 41.6851 108.852 41.6851 108.852 41.7271ZM108.684 37.3613C108.684 37.6132 108.6 37.8231 108.39 38.0749C108.18 38.2848 107.971 38.4108 107.719 38.4108C107.383 38.4108 107.257 38.2429 107.257 37.949C107.257 37.6971 107.383 37.4872 107.593 37.2773C107.803 37.0674 108.055 36.9415 108.264 36.9415C108.516 36.8995 108.684 37.0255 108.684 37.3613Z" fill="white"/>
<path d="M115.695 41.7271C115.695 41.8951 115.191 42.5667 114.141 43.7841C113.302 44.7916 112.63 45.2954 112.126 45.2954C111.833 45.2954 111.539 45.1694 111.329 44.9175C111.119 44.6657 110.993 44.3718 110.993 43.994C110.993 43.7001 111.119 43.3223 111.413 42.8186L111.203 43.1125C110.531 43.952 110.07 44.4978 109.776 44.7916C109.44 45.1274 109.146 45.2534 108.81 45.2534C108.516 45.2534 108.222 45.1274 108.013 44.8756C107.803 44.6237 107.677 44.3298 107.677 43.994C107.677 43.5742 107.845 43.1124 108.138 42.5667L110.07 39.2924C110.321 39.3343 110.489 39.3763 110.615 39.3763C110.741 39.3763 110.993 39.3343 111.329 39.2924L108.81 43.4483C108.558 43.8681 108.432 44.2459 108.432 44.5817C108.432 44.9175 108.558 45.0435 108.852 45.0435C109.566 45.0435 110.699 43.7001 112.294 41.0555L113.344 39.2924C113.554 39.3343 113.764 39.3763 113.89 39.3763C114.058 39.3763 114.309 39.3343 114.645 39.2924L112.924 42.063C112.127 43.3643 111.707 44.2459 111.707 44.6237C111.707 44.9175 111.833 45.0855 112.126 45.0855C112.714 45.0855 113.638 44.2039 114.897 42.3988L115.233 41.937L115.443 41.6852C115.485 41.6012 115.527 41.5592 115.569 41.5592C115.653 41.6852 115.695 41.6852 115.695 41.7271Z" fill="white"/>
<path d="M127.491 41.7271C127.491 41.7271 127.449 41.8111 127.365 41.895L126.903 42.5247C125.56 44.3718 124.594 45.2953 123.923 45.2953C123.587 45.2953 123.335 45.1694 123.083 44.9175C122.873 44.6656 122.747 44.3718 122.747 43.952C122.747 43.5742 122.873 43.1124 123.167 42.6506C123.209 42.5667 123.461 42.1889 123.923 41.5172C124.51 40.6776 124.804 40.0899 124.804 39.838C124.804 39.5442 124.678 39.4183 124.384 39.4183C123.461 39.4183 121.824 41.3493 119.557 45.1694C119.431 45.1274 119.221 45.1274 118.969 45.1274C118.675 45.1274 118.423 45.1274 118.213 45.1694L119.725 42.7766C120.69 41.2234 121.194 40.2578 121.194 39.88C121.194 39.5442 121.068 39.4183 120.816 39.4183C120.438 39.4183 119.809 39.964 118.885 41.0974C118.004 42.2309 117.122 43.5742 116.24 45.1694C116.073 45.1274 115.863 45.1274 115.611 45.1274C115.317 45.1274 115.107 45.1274 114.897 45.1694L116.408 42.7766C117.458 41.1394 117.962 40.1319 117.962 39.7121C117.962 39.5022 117.878 39.3763 117.71 39.3763C117.374 39.3763 116.66 40.1319 115.527 41.6432C115.443 41.7271 115.401 41.8111 115.359 41.8111C115.317 41.8111 115.317 41.7691 115.317 41.7271C115.317 41.6431 115.653 41.2234 116.282 40.3838C116.912 39.5862 117.416 39.1664 117.752 39.1664C117.962 39.1664 118.171 39.2923 118.339 39.5022C118.507 39.7121 118.591 39.964 118.591 40.2578C118.591 40.6776 118.381 41.2234 117.962 41.979C119.221 40.0899 120.186 39.1664 120.816 39.1664C121.11 39.1664 121.362 39.2923 121.53 39.5442C121.74 39.7961 121.824 40.0899 121.824 40.4677C121.824 40.8875 121.656 41.3913 121.278 42.021C122.621 40.1319 123.629 39.2084 124.3 39.2084C124.594 39.2084 124.846 39.3343 125.056 39.5862C125.266 39.838 125.35 40.1739 125.35 40.5517C125.35 40.9715 125.182 41.5172 124.846 42.1049C124.846 42.1049 124.552 42.5667 123.923 43.4482C123.587 43.952 123.419 44.3298 123.419 44.6237C123.419 44.9175 123.545 45.0434 123.839 45.0434C124.384 45.0434 125.308 44.1619 126.567 42.3568L126.903 41.895L127.113 41.6432C127.155 41.5592 127.197 41.5172 127.239 41.5172C127.491 41.6851 127.491 41.6851 127.491 41.7271Z" fill="white"/>
<path d="M155.827 34.0029C155.827 34.3807 155.785 34.7585 155.659 35.2203C155.575 35.6401 155.449 35.892 155.365 35.892C155.281 35.892 155.239 35.85 155.239 35.7661C155.239 35.7241 155.239 35.7241 155.239 35.6821C155.407 35.1783 155.533 34.6326 155.533 34.0869C155.533 33.2053 155.281 32.4917 154.735 31.946C154.189 31.4002 153.518 31.1484 152.636 31.1484C151.419 31.1484 150.243 31.5262 148.984 32.3238C150.034 33.1633 150.537 34.0869 150.537 35.0524C150.537 35.892 150.201 36.6056 149.53 37.1933C148.858 37.781 147.977 38.1169 146.927 38.2848C147.683 38.7046 148.019 39.3343 148.019 40.1319C148.019 40.6776 147.851 41.4752 147.473 42.6086C147.221 43.3223 147.095 43.91 147.095 44.3298C147.095 44.7496 147.263 45.1274 147.557 45.4212C147.851 45.7151 148.228 45.883 148.69 45.883C149.152 45.883 149.572 45.7151 149.992 45.4212C150.076 45.3792 150.159 45.3373 150.201 45.3373C150.243 45.3373 150.285 45.3792 150.285 45.4212C150.285 45.5472 150.076 45.6731 149.698 45.841C149.32 46.0089 148.942 46.0929 148.648 46.0929C147.977 46.0929 147.389 45.841 146.927 45.2953C146.465 44.7496 146.255 44.0779 146.255 43.2803C146.255 42.6926 146.507 41.6851 147.011 40.2158C147.137 39.838 147.221 39.5022 147.221 39.2503C147.221 38.9145 147.095 38.6206 146.801 38.4107C146.339 38.4527 146.088 38.4947 146.046 38.4947C145.332 38.4947 144.996 38.4107 144.996 38.2428C144.996 38.1169 145.164 38.0749 145.542 38.0749C145.962 38.0749 146.381 38.1588 146.801 38.3268C147.641 38.2008 148.354 37.781 148.858 37.1514C149.362 36.5217 149.656 35.7241 149.656 34.8425C149.656 34.1289 149.404 33.4992 148.858 32.8275L148.732 32.7016C147.179 33.877 145.71 35.892 144.324 38.7885C143.485 40.5517 142.729 41.811 142.016 42.5666C141.302 43.3223 140.336 44.0359 139.077 44.6656C137.608 45.3792 136.264 45.7571 135.131 45.7571C134.165 45.7571 133.41 45.5472 132.78 45.0854C132.15 44.6656 131.815 44.1199 131.815 43.4482C131.815 43.0704 131.941 42.7765 132.15 42.5247C132.36 42.2728 132.612 42.1469 132.906 42.1469C133.326 42.1469 133.536 42.3987 133.536 42.8605C133.536 43.1124 133.452 43.3223 133.326 43.4902C133.2 43.6581 132.99 43.7421 132.78 43.7421C132.402 43.7421 132.234 43.5322 132.234 43.1543C132.234 42.9864 132.234 42.9025 132.192 42.9025C132.067 42.9025 132.025 43.0704 132.025 43.4482C132.025 44.0359 132.318 44.5397 132.906 44.9175C133.494 45.2953 134.207 45.5052 135.089 45.5052C136.642 45.5052 138.028 44.9175 139.329 43.784C139.875 43.2803 140.336 42.7765 140.756 42.2308C141.176 41.6851 142.1 40.2998 143.527 38.1169C144.24 37.0254 145.08 35.9759 146.046 34.8845C147.011 33.793 147.851 33.0374 148.522 32.5756C147.431 31.6521 145.794 31.1484 143.653 31.1484C140.672 31.1484 138.07 32.2398 135.845 34.3807C134.04 36.1439 133.116 37.823 133.116 39.3762C133.116 40.1738 133.368 40.8035 133.872 41.2653C134.375 41.7271 135.089 41.9789 135.929 41.9789C137.356 41.9789 138.825 41.3073 140.336 39.922C141.848 38.5367 142.603 37.2353 142.603 35.934C142.603 34.8845 142.058 34.3807 141.008 34.3807C139.959 34.3807 138.825 34.9684 137.608 36.1439C136.39 37.3193 135.803 38.4107 135.803 39.4602C135.803 39.7121 135.887 39.922 136.055 40.1319C136.222 40.2998 136.432 40.4257 136.642 40.4257C136.768 40.4257 136.81 40.4677 136.81 40.5097C136.81 40.5517 136.726 40.5936 136.6 40.5936C136.264 40.5936 135.971 40.4257 135.719 40.1319C135.467 39.838 135.383 39.4602 135.383 38.9984C135.383 37.907 135.971 36.8155 137.188 35.7661C138.405 34.7166 139.665 34.2128 140.924 34.2128C142.141 34.2128 142.771 34.7586 142.771 35.892C142.771 37.2773 142.016 38.6626 140.462 40.0479C138.909 41.4332 137.398 42.1469 135.887 42.1469C134.921 42.1469 134.124 41.853 133.536 41.2653C132.948 40.6776 132.654 39.88 132.654 38.8725C132.654 36.8575 133.788 35.0524 136.055 33.3732C138.321 31.7361 140.84 30.8965 143.569 30.8965C145.668 30.8965 147.389 31.3582 148.816 32.2818C150.118 31.4842 151.377 31.0644 152.594 31.0644C153.56 31.0644 154.315 31.3583 154.903 31.904C155.575 32.3238 155.827 33.0794 155.827 34.0029Z" fill="white"/>
<path d="M156.876 41.769C156.876 41.811 156.792 41.895 156.666 42.0629L156.204 42.6506C154.735 44.4557 153.476 45.3792 152.426 45.3792C151.923 45.3792 151.503 45.2113 151.167 44.8335C150.831 44.4557 150.663 44.0359 150.663 43.4902C150.663 42.2308 151.545 41.0974 153.35 40.1319C154.273 39.6281 155.029 39.3762 155.617 39.3762C155.869 39.3762 156.079 39.4602 156.288 39.5861C156.456 39.754 156.54 39.922 156.54 40.1319C156.54 40.6356 156.205 41.0974 155.533 41.4332C154.861 41.811 153.77 42.1468 152.175 42.4407C151.713 43.1543 151.461 43.784 151.461 44.2878C151.461 44.9175 151.797 45.2113 152.468 45.2113C153.602 45.2113 154.945 44.1199 156.582 41.9369C156.666 41.811 156.75 41.769 156.792 41.769C156.876 41.6851 156.876 41.7271 156.876 41.769ZM155.995 39.796C155.995 39.5861 155.869 39.4602 155.617 39.4602C155.239 39.4602 154.735 39.7121 154.148 40.2578C153.518 40.7615 152.93 41.4752 152.342 42.2728C153.35 42.0209 154.231 41.6431 154.945 41.1813C155.617 40.6776 155.995 40.2158 155.995 39.796Z" fill="white"/>
<path d="M164.348 41.7271C164.348 41.895 163.845 42.5667 162.795 43.7841C161.956 44.7916 161.284 45.2953 160.822 45.2953C160.486 45.2953 160.234 45.1694 160.025 44.9175C159.815 44.6656 159.731 44.3718 159.731 43.994C159.731 43.6162 159.857 43.1964 160.067 42.7346C159.353 43.7421 158.807 44.4138 158.429 44.7496C158.052 45.0854 157.674 45.2533 157.338 45.2533C156.96 45.2533 156.666 45.0854 156.372 44.7496C156.121 44.4138 155.995 44.036 155.995 43.5322C155.995 42.1889 156.96 40.9715 158.891 39.922C159.731 39.4603 160.402 39.2084 160.948 39.2084C161.368 39.2084 161.62 39.4183 161.62 39.8381C161.62 39.964 161.578 40.1319 161.536 40.2998L162.082 39.2504C162.291 39.2923 162.501 39.3343 162.627 39.3343C162.837 39.3343 163.047 39.2923 163.383 39.2504L161.494 42.3568C160.822 43.4483 160.528 44.1619 160.528 44.4977C160.528 44.8336 160.654 45.0015 160.948 45.0015C161.242 45.0015 161.704 44.6656 162.291 44.036C162.921 43.4063 163.551 42.5667 164.18 41.6432C164.222 41.5592 164.264 41.5172 164.306 41.5172C164.306 41.6851 164.348 41.6851 164.348 41.7271ZM161.41 39.964C161.41 39.6282 161.242 39.4603 160.948 39.4603C160.276 39.4603 159.437 40.0899 158.387 41.3913C157.338 42.6507 156.792 43.7001 156.792 44.4977C156.792 44.9595 157.002 45.1694 157.422 45.1694C157.926 45.1694 158.765 44.3718 159.983 42.7346C160.906 41.3913 161.41 40.4678 161.41 39.964Z" fill="white"/>
<path d="M169.932 34.2129C166.951 39.1664 165.23 42.063 164.726 42.9445C164.222 43.8261 163.971 44.4138 163.971 44.6657C163.971 45.0015 164.096 45.1274 164.39 45.1274C164.978 45.1274 166.069 43.994 167.665 41.7691C167.707 41.6852 167.749 41.6432 167.791 41.6432C167.833 41.6432 167.833 41.6852 167.833 41.7271C167.833 41.7691 167.791 41.8111 167.707 41.895L167.245 42.5247C165.902 44.3718 164.894 45.2953 164.264 45.2953C163.971 45.2953 163.719 45.1694 163.509 44.9595C163.299 44.7076 163.215 44.4558 163.215 44.078C163.215 43.7001 163.299 43.3223 163.467 42.9445C163.635 42.5667 164.264 41.5172 165.314 39.7961C166.615 37.6552 167.665 35.8081 168.546 34.2549C168.756 34.2969 168.966 34.3388 169.092 34.3388C169.47 34.3388 169.722 34.2968 169.932 34.2129Z" fill="white"/>
<path d="M192.306 33.1634C192.306 33.6252 191.887 33.8771 191.005 33.8771C190.333 33.8771 188.696 33.5412 186.094 32.9115C184.876 33.5832 184.288 34.4648 184.288 35.5142C184.288 36.018 184.456 36.3538 184.792 36.5637C185.296 36.5217 185.674 36.4797 185.926 36.4797C186.681 36.4797 187.017 36.5637 187.017 36.7316C187.017 36.8576 186.807 36.8995 186.429 36.8995C185.926 36.8995 185.38 36.8156 184.792 36.6896C183.995 36.8156 183.071 37.1094 182.064 37.6132C179.419 38.8725 178.076 40.5097 178.076 42.5667C178.076 43.91 178.789 44.7496 180.258 45.1274C180.007 44.7076 179.881 44.2039 179.881 43.6162C179.881 42.2309 180.594 40.9295 182.022 39.7541C183.449 38.5787 185.002 37.991 186.723 37.991C187.521 37.991 188.109 38.2009 188.57 38.5787C189.032 38.9565 189.242 39.4603 189.242 40.1319C189.242 41.5172 188.486 42.7766 186.975 43.868C185.464 44.9595 183.743 45.5472 181.854 45.5472C181.476 45.5472 181.098 45.5472 180.762 45.4632C181.434 46.3868 182.441 46.8486 183.785 46.8486C184.624 46.8486 185.296 46.7226 185.8 46.4708L185.926 46.4288C185.968 46.4288 186.01 46.4707 186.01 46.5127C186.01 46.5967 185.758 46.7226 185.212 46.8066C184.666 46.8905 184.204 46.9745 183.785 46.9745C182.315 46.9745 181.182 46.4288 180.384 45.3793C179.293 45.1274 178.453 44.7496 177.866 44.1619C177.236 43.5742 176.942 42.9025 176.942 42.1469C176.942 41.0974 177.362 40.1739 178.201 39.2504C179.041 38.3688 180.174 37.6552 181.602 37.2354C182.441 36.9415 183.449 36.7316 184.54 36.6057C183.743 36.2699 183.365 35.7241 183.365 35.0105C183.365 34.0869 183.953 33.2893 185.086 32.7016C183.449 32.3238 182.064 32.1139 181.014 32.1139C178.915 32.1139 177.11 32.6597 175.641 33.6672C174.171 34.7166 173.416 35.976 173.416 37.4872C173.416 38.1589 173.626 38.7046 174.004 39.2084C174.381 39.6701 174.843 39.922 175.389 39.922C175.767 39.922 175.935 39.88 175.935 39.7541C175.935 39.6702 175.851 39.6701 175.725 39.6701C175.347 39.6701 175.179 39.5022 175.179 39.1664C175.179 38.9565 175.263 38.7886 175.431 38.6627C175.599 38.5367 175.809 38.4528 176.019 38.4528C176.48 38.4528 176.69 38.6627 176.69 39.1244C176.69 39.4183 176.564 39.6701 176.312 39.88C176.061 40.0899 175.725 40.1739 175.389 40.1739C174.717 40.1739 174.171 39.88 173.71 39.2923C173.248 38.7046 172.996 37.991 172.996 37.1514C172.996 35.892 173.542 34.7586 174.633 33.7091C175.935 32.4498 177.74 31.8201 180.091 31.8201C181.392 31.8201 183.113 32.072 185.296 32.6177C186.261 32.1559 187.395 31.904 188.696 31.904C189.662 31.904 190.501 32.03 191.173 32.2818C191.971 32.4917 192.306 32.7856 192.306 33.1634ZM189.074 40.006C189.074 39.5022 188.864 39.0824 188.486 38.7466C188.109 38.4108 187.563 38.2429 186.933 38.2429C185.422 38.2429 183.911 38.8725 182.441 40.1319C180.972 41.3913 180.258 42.6926 180.258 43.994C180.258 44.3718 180.384 44.7496 180.594 45.1694C181.014 45.2534 181.392 45.2953 181.728 45.2953C183.407 45.2953 185.044 44.7076 186.639 43.5742C188.276 42.4408 189.074 41.2234 189.074 40.006ZM192.097 33.1634C192.097 32.8695 191.803 32.6596 191.215 32.4498C190.627 32.2399 189.956 32.1139 189.2 32.1139C188.151 32.1139 187.227 32.3238 186.345 32.7856C188.234 33.4153 189.788 33.7091 191.089 33.7091C191.761 33.7091 192.097 33.4992 192.097 33.1634Z" fill="white"/>
<path d="M193.608 37.6131C193.608 37.907 193.146 38.4527 192.264 39.2923C192.222 39.5022 192.18 39.7121 192.18 39.88C192.18 40.2998 192.348 40.9295 192.726 41.853C192.936 42.3148 193.02 42.6926 193.02 42.9864C193.02 43.6161 192.726 44.1618 192.096 44.6656C191.467 45.1274 190.753 45.3792 189.872 45.3792C189.41 45.3792 188.99 45.2533 188.738 44.9594C188.444 44.7076 188.318 44.3298 188.318 43.868C188.318 43.3223 188.528 42.8185 188.906 42.3148C189.284 41.811 189.662 41.5591 190.081 41.5591C190.165 41.5591 190.207 41.5591 190.291 41.6011L191.131 40.5517C191.383 40.2578 191.719 39.838 192.138 39.2923C192.264 38.7885 192.432 38.3687 192.684 38.0329C192.936 37.6971 193.188 37.4872 193.398 37.4872C193.566 37.4452 193.608 37.4872 193.608 37.6131ZM192.138 41.811C192.138 41.6011 192.138 41.3912 192.096 41.1813C192.096 40.9714 192.055 40.6776 192.055 40.2998C192.055 39.9639 192.054 39.7121 192.096 39.5022C191.719 40.0059 191.131 40.7196 190.375 41.6431C190.501 41.769 190.585 41.895 190.585 42.0629C190.585 42.4827 190.249 42.7765 189.536 42.9025C189.242 42.9864 189.032 43.1124 188.822 43.3642C188.612 43.6161 188.528 43.868 188.528 44.1199C188.528 44.4137 188.612 44.6236 188.822 44.8335C189.032 45.0434 189.284 45.1274 189.578 45.1274C190.165 45.1274 190.753 44.7915 191.257 44.0779C191.845 43.3642 192.138 42.6086 192.138 41.811Z" fill="white"/>
<path d="M198.183 39.2923L198.099 39.4602H196.714L194.363 43.5322C194.07 44.036 193.944 44.4138 193.944 44.7076C193.944 45.0434 194.111 45.1694 194.447 45.1694C195.077 45.1694 196.168 44.0359 197.722 41.8111C197.764 41.7271 197.806 41.6851 197.848 41.6851C197.89 41.6851 197.932 41.7271 197.932 41.7691C197.932 41.7691 197.89 41.853 197.806 41.937L197.344 42.5667C196.001 44.4138 194.993 45.3373 194.321 45.3373C193.986 45.3373 193.692 45.2114 193.482 44.9595C193.272 44.7076 193.146 44.4138 193.146 44.0359C193.146 43.6162 193.314 43.0704 193.692 42.4407L195.497 39.4602H194.405L194.531 39.2923H195.581L196.84 37.2354C197.05 37.2773 197.26 37.3193 197.428 37.3193C197.638 37.3193 197.848 37.2773 198.058 37.2354L196.84 39.2923H198.183Z" fill="white"/>
<path d="M205.32 41.7271C205.32 41.895 204.816 42.5667 203.767 43.7841C202.927 44.7916 202.255 45.2953 201.794 45.2953C201.458 45.2953 201.206 45.1694 200.996 44.9175C200.786 44.6656 200.702 44.3718 200.702 43.994C200.702 43.6162 200.828 43.1964 201.038 42.7346C200.324 43.7421 199.779 44.4138 199.401 44.7496C199.023 45.0854 198.645 45.2533 198.309 45.2533C197.932 45.2533 197.638 45.0854 197.344 44.7496C197.092 44.4138 196.966 44.036 196.966 43.5322C196.966 42.1889 197.932 40.9715 199.863 39.922C200.702 39.4603 201.374 39.2084 201.92 39.2084C202.339 39.2084 202.591 39.4183 202.591 39.8381C202.591 39.964 202.549 40.1319 202.507 40.2998L203.053 39.2504C203.263 39.2923 203.473 39.3343 203.599 39.3343C203.809 39.3343 204.019 39.2923 204.354 39.2504L202.465 42.3568C201.794 43.4483 201.5 44.1619 201.5 44.4977C201.5 44.8336 201.626 45.0015 201.92 45.0015C202.213 45.0015 202.675 44.6656 203.263 44.036C203.893 43.4063 204.522 42.5667 205.152 41.6432C205.194 41.5592 205.236 41.5172 205.278 41.5172C205.32 41.6851 205.32 41.6851 205.32 41.7271ZM202.381 39.964C202.381 39.6282 202.213 39.4603 201.92 39.4603C201.248 39.4603 200.408 40.0899 199.359 41.3913C198.309 42.6507 197.764 43.7001 197.764 44.4977C197.764 44.9595 197.974 45.1694 198.393 45.1694C198.897 45.1694 199.737 44.3718 200.954 42.7346C201.92 41.3913 202.381 40.4678 202.381 39.964Z" fill="white"/>
<path d="M209.266 39.2923L209.182 39.4602H207.797L205.446 43.5322C205.152 44.036 205.026 44.4138 205.026 44.7076C205.026 45.0434 205.194 45.1694 205.53 45.1694C206.159 45.1694 207.251 44.0359 208.804 41.8111C208.846 41.7271 208.888 41.6851 208.93 41.6851C208.972 41.6851 209.014 41.7271 209.014 41.7691C209.014 41.7691 208.972 41.853 208.888 41.937L208.426 42.5667C207.083 44.4138 206.076 45.3373 205.404 45.3373C205.068 45.3373 204.774 45.2114 204.564 44.9595C204.354 44.7076 204.228 44.4138 204.228 44.0359C204.228 43.6162 204.396 43.0704 204.774 42.4407L206.579 39.4602H205.488L205.614 39.2923H206.663L207.923 37.2354C208.132 37.2773 208.342 37.3193 208.51 37.3193C208.72 37.3193 208.93 37.2773 209.14 37.2354L207.923 39.2923H209.266Z" fill="white"/>
<path d="M214.303 41.769C214.303 41.811 214.219 41.895 214.094 42.0629L213.632 42.6506C212.162 44.4557 210.903 45.3792 209.854 45.3792C209.35 45.3792 208.93 45.2113 208.594 44.8335C208.258 44.4557 208.091 44.0359 208.091 43.4902C208.091 42.2308 208.972 41.0974 210.777 40.1319C211.701 39.6281 212.456 39.3762 213.044 39.3762C213.296 39.3762 213.506 39.4602 213.716 39.5861C213.884 39.754 213.968 39.922 213.968 40.1319C213.968 40.6356 213.632 41.0974 212.96 41.4332C212.288 41.811 211.197 42.1468 209.602 42.4407C209.14 43.1543 208.888 43.784 208.888 44.2878C208.888 44.9175 209.224 45.2113 209.896 45.2113C211.029 45.2113 212.372 44.1199 214.01 41.9369C214.094 41.811 214.177 41.769 214.219 41.769C214.303 41.6851 214.303 41.7271 214.303 41.769ZM213.422 39.796C213.422 39.5861 213.296 39.4602 213.044 39.4602C212.666 39.4602 212.163 39.7121 211.575 40.2578C210.987 40.8035 210.357 41.4752 209.77 42.2728C210.777 42.0209 211.659 41.6431 212.372 41.1813C213.044 40.6776 213.422 40.2158 213.422 39.796Z" fill="white"/>
</svg>
