<?xml version="1.0" encoding="UTF-8"?>
<!DOCTYPE svg PUBLIC "-//W3C//DTD SVG 1.1//EN" "http://www.w3.org/Graphics/SVG/1.1/DTD/svg11.dtd">
<!-- Creator: CorelDRAW -->
<svg xmlns="http://www.w3.org/2000/svg" xml:space="preserve" width="235.32mm" height="39.4945mm" version="1.1" style="shape-rendering:geometricPrecision; text-rendering:geometricPrecision; image-rendering:optimizeQuality; fill-rule:evenodd; clip-rule:evenodd"
viewBox="0 0 23552.18 3952.83"
 xmlns:xlink="http://www.w3.org/1999/xlink"
 xmlns:xodm="http://www.corel.com/coreldraw/odm/2003">
 <defs>
  <style type="text/css">
   <![CDATA[
    .fil0 {fill:#293147;fill-rule:nonzero}
   ]]>
  </style>
 </defs>
 <g id="Слой_x0020_1">
  <metadata id="CorelCorpID_0Corel-Layer"/>
  <path class="fil0" d="M1449.87 851.59l0.81 538.34c0,68.15 -54.16,229.58 -352.05,283.59 0,0 -736.39,143.49 -769.68,-807.28 -2.75,-79.05 12.39,-156.62 35.45,-233.24 22.28,-77.51 58.5,-149.99 106.34,-219.23 42.02,-62.67 94.77,-117.86 154.93,-167.36 61.01,-48.62 130.25,-87.31 206.91,-117.86 90.64,-36.26 186.25,-53.53 285.14,-53.53 105.5,0 204.4,18.93 298.36,57.7 63.48,26.37 121.98,60.16 175.59,101.37l57.69 -47.84c-77.5,-51.87 -162.38,-93.96 -253.02,-125.28 -120.36,-40.35 -245.64,-60.97 -375.85,-60.97 -164.01,0 -318.97,32.13 -465.68,96.42 -146.75,65.11 -269.55,156.62 -367.61,276.15 -121.15,150.8 -181.34,315.65 -181.34,493.67 0,178.02 60.18,342.87 181.34,493.68 98.06,120.36 220.87,211.84 367.61,276.14 146.71,64.29 301.67,96.43 465.68,96.43 130.21,0 255.49,-20.62 376.66,-61.82 121.14,-41.21 229.12,-101.38 326.35,-179.68l0 -639.4 -273.63 0z"/>
  <path class="fil0" d="M13662.62 851.59l0.78 538.34c0,68.15 -54.13,229.58 -352.06,283.59 0,0 -736.34,143.49 -769.64,-807.28 -2.75,-79.05 12.36,-156.62 35.45,-233.24 22.21,-77.51 58.5,-149.99 106.31,-219.23 42.05,-62.67 94.8,-117.86 154.96,-167.36 60.98,-48.62 130.18,-87.31 206.84,-117.86 90.71,-36.26 186.32,-53.53 285.21,-53.53 105.5,0 204.4,18.93 298.36,57.7 63.48,26.37 121.99,60.16 175.55,101.37l57.7 -47.84c-77.47,-51.87 -162.35,-93.96 -253.06,-125.28 -120.29,-40.35 -245.6,-60.97 -375.82,-60.97 -164,0 -318.97,32.13 -465.68,96.42 -146.7,65.11 -269.54,156.62 -367.58,276.15 -121.18,150.8 -181.35,315.65 -181.35,493.67 0,178.02 60.16,342.87 181.35,493.68 98.04,120.36 220.89,211.84 367.58,276.14 146.71,64.29 301.68,96.43 465.68,96.43 130.22,0 255.53,-20.62 376.67,-61.82 121.13,-41.21 229.15,-101.38 326.38,-179.68l0 -639.4 -273.63 0z"/>
  <path class="fil0" d="M3003.78 90c-40.36,0 -80.65,4.62 -121,13.8 -80.65,20.03 -152.5,54.24 -215.55,102.68 -63.06,48.51 -116.06,104.27 -158.96,167.32 -51.48,76.13 -89.44,157.83 -113.91,245.11 -24.43,87.31 -36.68,174.81 -36.68,262.51 0,87.63 12.25,175.2 36.68,262.41 24.47,87.34 62.42,169.01 113.91,245.18 42.9,63.09 95.89,118.84 158.96,167.25 63.05,48.47 134.91,82.72 215.55,102.71 40.35,9.22 80.64,13.84 121,13.84 41.17,0 81.52,-4.62 120.99,-13.84 80.65,-19.99 152.5,-54.24 215.55,-102.71 63.02,-48.41 116.03,-104.16 158.93,-167.25 51.51,-76.17 89.47,-157.84 113.94,-245.18 24.43,-87.21 36.68,-174.78 36.68,-262.41 0,-87.71 -12.25,-175.2 -36.68,-262.51 -24.47,-87.28 -62.42,-168.98 -113.94,-245.11 -42.9,-63.05 -95.9,-118.81 -158.93,-167.32 -63.05,-48.44 -134.91,-82.65 -215.55,-102.68 -39.47,-9.18 -79.83,-13.8 -120.99,-13.8zm0 -60.06c104.83,0 204.82,14.44 299.91,43.22 95.11,28.81 182.19,69.14 261.24,121.07 79.09,51.93 147.76,113.31 206.09,184.17 58.33,70.86 103.56,148.9 135.69,234.16 32.14,85.27 48.2,174.88 48.2,268.87 0,93.99 -16.06,183.57 -48.2,268.84 -32.13,85.23 -77.36,163.3 -135.69,234.16 -58.33,70.9 -127,132.44 -206.09,184.73 -79.06,52.32 -166.13,92.65 -261.24,121.07 -95.09,28.42 -195.08,42.62 -299.91,42.62 -104.83,0 -204.83,-14.19 -299.91,-42.62 -95.16,-28.42 -182.23,-68.75 -261.28,-121.07 -79.06,-52.28 -147.52,-113.83 -205.46,-184.73 -57.91,-70.86 -102.93,-148.93 -135.02,-234.16 -32.14,-85.27 -48.2,-174.85 -48.2,-268.84 0,-93.99 16.06,-183.6 48.2,-268.87 32.09,-85.26 77.11,-163.3 135.02,-234.16 57.94,-70.86 126.4,-132.23 205.46,-184.17 79.06,-51.93 166.12,-92.26 261.28,-121.07 95.08,-28.77 195.08,-43.22 299.91,-43.22z"/>
  <path class="fil0" d="M4558.67 1513.43c0,61.3 49.67,111.04 111.04,111.04l973.65 0 0 72.28 -1243.9 0c-63.06,0 -114.19,-51.16 -114.19,-114.23l0 -1504.19 273.39 0 0 1435.09z"/>
  <path class="fil0" d="M6284.17 1624.48l313.05 0c121.24,0 228.2,-19.98 320.87,-59.91 92.65,-39.86 170.37,-94.06 233.18,-162.6 62.77,-68.5 110.15,-147.2 142.21,-236.07 32.03,-88.76 48.06,-181.77 48.06,-278.89 0,-135.56 -29.67,-259.06 -88.98,-370.46 -59.32,-111.44 -144.41,-200.48 -255.25,-267.11 -110.86,-66.62 -244.22,-99.99 -400.1,-99.99l-313.05 0 0 1475.02zm1367.83 -736.42c0,148.37 -42.02,283.74 -126.01,406.05 -84,122.34 -196.35,220.11 -337.05,293.09 -140.74,73.05 -296.83,109.56 -468.33,109.56l-746.9 0 0 -1618.41 746.9 0c171.5,0 327.59,36.54 468.33,109.52 140.7,73.05 253.05,170.75 337.05,293.09 83.99,122.37 126.01,258.07 126.01,407.1z"/>
  <path class="fil0" d="M7982.38 212.16c0,-73.93 59.92,-133.81 133.81,-133.81l1294.47 0 0 71.11 -1064.33 0c-52.25,0 -94.62,42.37 -94.62,94.66l0 550.77 841.81 0 0 72.2 -841.81 0 0 662.73c0,52.25 42.37,94.66 94.62,94.66l1064.33 0 0 72.28 -1294.47 0c-73.89,0 -133.81,-59.92 -133.81,-133.85l0 -1350.75z"/>
  <path class="fil0" d="M9919.1 70.51l1157.96 1191.4c19.31,18.89 51.72,5.15 51.72,-21.97l0 -1201.67 74.6 0 0 1635.82c0,61.25 -74.46,91.55 -117.26,47.66l-1217.56 -1249.83c-19.31,-18.89 -51.72,-5.12 -51.72,21.96l0 1202.77 -75.8 0 2.57 -1567.21c0,-127.64 129.65,-98.19 175.49,-58.93z"/>
  <path class="fil0" d="M18626.35 1624.48l313.05 0c121.24,0 228.16,-19.98 320.83,-59.91 92.65,-39.86 170.41,-94.06 233.14,-162.6 62.81,-68.5 110.2,-147.2 142.26,-236.07 32.06,-88.76 48.05,-181.77 48.05,-278.89 0,-135.56 -29.66,-259.06 -88.94,-370.46 -59.32,-111.44 -144.41,-200.48 -255.28,-267.11 -110.86,-66.62 -244.19,-99.99 -400.07,-99.99l-313.05 0 0 1475.02zm1367.8 -736.42c0,148.37 -41.99,283.74 -125.98,406.05 -84,122.34 -196.39,220.11 -337.09,293.09 -140.77,73.05 -296.83,109.56 -468.29,109.56l-746.9 0 0 -1618.41 746.9 0c171.46,0 327.52,36.54 468.29,109.52 140.7,73.05 253.09,170.75 337.09,293.09 83.99,122.37 125.98,258.07 125.98,407.1z"/>
  <path class="fil0" d="M20324.92 212.16c0,-73.93 59.88,-133.81 133.78,-133.81l1294.5 0 0 71.11 -1064.33 0c-52.25,0 -94.62,42.37 -94.62,94.66l0 550.77 841.78 0 0 72.2 -841.78 0 0 662.73c0,52.25 42.37,94.66 94.62,94.66l1064.33 0 0 72.28 -1294.5 0c-73.9,0 -133.78,-59.92 -133.78,-133.85l0 -1350.75z"/>
  <path class="fil0" d="M22261.98 70.51l1157.96 1191.4c19.32,18.89 51.72,5.15 51.72,-21.97l0 -1201.67 74.6 0 0 1635.82c0,61.25 -74.46,91.55 -117.22,47.66l-1217.56 -1249.83c-19.35,-18.89 -51.75,-5.12 -51.75,21.96l0 1202.77 -75.77 0 2.58 -1567.21c0,-127.64 129.68,-98.19 175.44,-58.93z"/>
  <path class="fil0" d="M15047.4 355.09l-280.91 541.23 557.09 -2.93 -276.18 -538.3zm-312.91 600.83l-377.33 740.69 -90.18 0 860.28 -1671.66 90.15 0 860.25 1671.66 -339.98 0 -382.11 -742.14 -621.07 1.45z"/>
  <path class="fil0" d="M17205.11 839.59c103.8,0 567.22,-24.54 647.93,-201.82 52.5,-115.21 53.46,-256.34 -8.05,-342.77 -50.17,-70.44 -119.52,-125.41 -204.36,-167.81 -85.73,-41.53 -179.72,-62.32 -283.52,-62.32l-843.69 0c-58.01,0 -105.04,47.03 -105.04,104.97l0 1527.18 281.09 0 0 -1464.39c0,-53.18 43.11,-96.29 96.28,-96.29l327.34 0c379.28,-22.52 475.25,155.64 475.25,313.47 0,309.83 -332.24,349.59 -464.12,349.59l-295.14 0 0 55.4 214.56 4.44c20.76,0.5 101.16,3.49 121.46,7.98 245.21,54.17 275.62,171.46 363.99,373.81l147.23 456 308.8 0 -196.45 -493.07c-28.46,-71.22 -89.02,-172.48 -146.78,-222.93l0 0c-49.71,-43.44 -109.35,-74.04 -173.61,-89.09l-263.19 -52.32z"/>
  <polygon class="fil0" points="-0,3479.85 5041.1,3479.85 5041.1,3462.89 -0,3462.89 "/>
  <polygon class="fil0" points="18511.04,3479.85 23552.18,3479.85 23552.18,3462.89 18511.04,3462.89 "/>
  <path class="fil0" d="M7543.18 2861.39c0,31.01 -4.13,64.87 -12.39,101.83 -8.27,36.94 -16.21,55.41 -23.84,55.41 -5.97,0 -8.93,-3 -8.93,-8.94 0,-1.8 0.6,-4.44 1.76,-8.05 15.82,-41.74 23.73,-86.64 23.73,-134.95 0,-75.03 -22.35,-135.34 -67.12,-180.88 -44.71,-45.55 -103.74,-68.33 -177.07,-68.33 -99,0 -200.97,32.49 -305.87,97.52 89.4,71.57 134.13,152.67 134.13,243.21 0,76.3 -30.69,142.88 -92.02,199.45 -61.32,56.71 -133.14,85.05 -215.34,85.05 -32.16,0 -66.7,-6.5 -103.63,-19.45 -36.96,-12.82 -55.43,-25.04 -55.43,-36.41 1.23,-3.59 3.56,-5.43 7.2,-5.43 2.97,0 7.7,1.84 14.27,5.43 36.93,21.12 74.1,31.64 111.64,31.64 67.9,0 126.13,-29.19 174.67,-87.56 48.52,-58.54 72.81,-128.23 72.81,-209.34 0,-69.77 -25.07,-132.05 -75.13,-186.95 -129.37,96.6 -252.21,266.57 -368.52,509.85 -70.37,147.24 -134.74,253.37 -193.17,318.37 -58.47,64.97 -140.42,123.76 -245.96,176.18 -124.6,60.84 -235.82,91.21 -333.59,91.21 -79.94,0 -146.39,-18.26 -199.46,-54.98 -53.11,-36.61 -79.62,-82.37 -79.62,-137.28 0,-30.44 9.08,-56.67 27.29,-78.74 18.19,-22 39.79,-33.05 64.87,-33.05 36.33,0 54.55,20.27 54.55,60.87 0,20.27 -6.11,37.42 -18.36,51.76 -12.22,14.33 -27.29,21.46 -45.16,21.46 -31.01,0 -45.94,-16.02 -44.71,-48.3 0.6,-13.06 -0.56,-19.67 -3.59,-19.67 -9.54,0 -14.3,15.82 -14.3,47.49 0,49.43 24.25,90.64 72.87,123.34 48.62,32.8 109.88,49.22 183.82,49.22 130.56,0 248.92,-48.27 355.05,-144.87 46.5,-42.34 86.15,-85.55 118.95,-129.72 35.77,-47.66 113.91,-163.37 234.34,-347.01 60.23,-90.64 131.2,-181.52 212.91,-272.82 81.66,-91.17 151.15,-156.45 208.35,-195.82 -93,-79.34 -229.58,-119.02 -409.64,-119.02 -251.65,0 -470.41,90.99 -656.41,272.82 -152.71,149.14 -229.01,289.46 -229.01,421.33 0,66.73 21.46,119.83 64.4,159.1 42.91,39.4 101.06,59.14 174.39,59.14 119.83,0 243.73,-57.55 371.62,-172.69 127.88,-115.11 191.86,-226.85 191.86,-335.36 0,-86.54 -44.46,-129.72 -133.29,-129.72 -88.83,0 -184.06,49.57 -285.74,148.82 -101.65,99.14 -152.53,192.25 -152.53,279.18 0,21.44 7.28,39.93 21.65,55.41 14.36,15.53 31.14,23.23 50.31,23.23 10.2,0 15.25,2.79 15.25,8.09 0,4.79 -5.65,7.13 -17.02,7.13 -28.77,0 -52.96,-12.95 -72.73,-38.87 -19.7,-25.88 -29.63,-57.62 -29.63,-95.08 0,-93 50.98,-183.53 152.92,-271.76 101.97,-88.1 206.66,-132.26 313.96,-132.26 102.54,0 153.8,47.41 153.8,142.25 0,115.67 -65.25,232.57 -195.82,350.61 -130.6,118.03 -259.41,177.03 -386.41,177.03 -82.83,0 -149.18,-24.82 -199,-74.6 -49.78,-49.78 -74.67,-116.45 -74.67,-199.88 0,-168.77 95.23,-322.82 285.78,-461.97 190.45,-139.26 401.06,-208.92 631.84,-208.92 175.34,0 322.57,39.05 441.81,117.19 109.13,-67.94 214.7,-101.87 316.67,-101.87 79.91,0 144.09,23.73 192.71,71.43 48.62,47.66 72.91,110.47 72.91,188.5z"/>
  <path class="fil0" d="M7403.18 3511.48c0,4.76 -17.94,26.51 -53.78,65.46 -45.37,50.21 -88.09,75.38 -128.13,75.38 -45.37,0 -68.11,-26.23 -68.11,-78.74 0,-16.69 3.6,-37.81 10.73,-63.48 -37.56,32.81 -68.11,65.29 -91.66,97.45 -23.58,32.27 -64.25,97.83 -122.05,196.77 -31.64,-2.4 -50.14,-3.6 -55.47,-3.6 -2.37,0 -20.59,1.2 -54.56,3.6l146.68 -237.86c73.33,-119.31 110.01,-193.21 110.01,-221.88 0,-16.63 -6.89,-25.07 -20.62,-25.07 -33.44,0 -94.1,64.37 -181.95,192.78 -5.36,8.41 -10.13,12.53 -14.33,12.53 -2.36,-0.63 -3.53,-2.33 -3.53,-5.39 0.57,-2.97 1.73,-5.3 3.53,-7.14l16.13 -22.35c92.02,-122.52 154.33,-183.75 187.21,-183.75 47.73,0 71.7,30.65 71.7,92.12 0,45.87 -24.46,106.67 -73.36,182.48 31,-35.8 60.51,-65.08 88.55,-87.71 22.64,-53.04 50.84,-97.52 84.53,-133.32 33.68,-35.77 63.9,-53.57 90.78,-53.57 18.47,0 27.71,8.06 27.71,24.05 0,28.7 -41.46,69.55 -124.32,122.62 -13.1,8.26 -32.8,20.58 -59.04,36.61l-10.7 8.94c-8.4,27.46 -12.53,50.09 -12.53,68.04 0,50.09 18.82,75.16 56.42,75.16 46.61,0 97.42,-38.66 152.36,-115.84 11.97,-13.17 19.39,-19.71 22.42,-19.71 3.56,0 5.36,1.76 5.36,5.4z"/>
  <path class="fil0" d="M7777.52 3346.38c0,-19.11 -10.46,-28.63 -31.32,-28.63 -31.61,0 -73.2,21.96 -124.79,65.82 -51.58,43.82 -102.11,100.63 -151.57,170.36 85.86,-22.07 158.57,-53.28 218.24,-93.49 59.6,-40.25 89.44,-78.25 89.44,-114.05zm75.59 165.91c0,1.83 -5.44,9.57 -16.14,23.27l-38.48 48.19c-123.54,152.43 -229.43,228.63 -317.77,228.63 -41.84,0 -76.83,-15.04 -105.18,-45.2 -28.31,-30.02 -42.51,-67.83 -42.51,-113.17 0,-107.29 74.74,-201.78 224.45,-283.41 78.7,-43.01 142.85,-64.41 192.28,-64.41 21.5,0 39.82,6.33 55.05,19.18 15.18,12.85 22.77,28.45 22.77,46.96 0,42.94 -28.03,79.48 -84.07,109.63 -56.07,30.05 -149.67,58.25 -280.84,84.49 -40.52,61.36 -60.83,112.63 -60.83,153.8 0,51.26 27.79,76.97 83.29,76.97 94.34,0 209.8,-92.05 346.48,-276.01 7.17,-9.53 13.1,-14.33 17.87,-14.33 2.4,0.67 3.64,2.44 3.64,5.4z"/>
  <path class="fil0" d="M8847.67 3511.48c-0.6,1.69 -3.56,6.46 -8.93,14.3l-38.56 52.75c-112.21,155.95 -195.18,233.85 -248.92,233.85 -28.06,0 -51.05,-10.46 -68.92,-31.29 -17.97,-20.91 -26.86,-47.67 -26.86,-80.47 0,-33.44 11.33,-69.52 33.96,-108.29 4.17,-7.1 25.95,-39.01 65.29,-95.61 50.1,-71.53 75.17,-118.38 75.17,-140.45 0,-24.4 -12.22,-36.76 -36.69,-36.76 -78.74,0 -213.75,161.72 -405.19,484.81 -11.9,-2.4 -28.28,-3.6 -49.15,-3.6 -24.47,0 -45.34,1.2 -62.63,3.6l127.04 -201.25c82.83,-132.37 124.28,-213.47 124.28,-243.31 0,-26.76 -11.01,-40.25 -33.05,-40.25 -32.8,0 -86.5,47.14 -161,141.41 -74.53,94.17 -148.51,208.71 -221.84,343.4 -13.7,-2.4 -31.29,-3.6 -52.76,-3.6 -23.23,0 -43.54,1.2 -60.83,3.6l127.92 -201.25c88.24,-138.3 132.37,-223.85 132.37,-256.69 0,-17.84 -6.86,-26.87 -20.63,-26.87 -29.27,0 -89.96,64.05 -181.91,191.97 -6,8.26 -10.8,12.5 -14.33,12.5 -2.4,-0.64 -3.63,-2.44 -3.63,-5.4 0,-5.29 27.5,-42.59 82.44,-111.58 53.74,-67.19 95.26,-100.81 124.5,-100.81 19.11,0 35.52,9.08 49.29,27.26 13.73,18.15 20.62,39.79 20.62,64.86 0,34.57 -17.62,82.59 -52.79,143.92 107.37,-157.4 187.2,-236.04 239.75,-236.04 24.99,0 45.58,10.17 61.64,30.34 16.13,20.27 24.15,45.65 24.15,76.09 0,34 -15.81,77.22 -47.38,129.62 113.27,-157.4 198.25,-236.04 254.92,-236.04 25.64,0 47.25,11.02 64.8,33.09 17.62,22.07 26.44,48.83 26.44,80.47 0,36.93 -14.65,80.25 -43.85,129.72 -0.6,0.53 -26.27,38.73 -76.91,114.4 -29.24,43.01 -43.85,75.83 -43.85,98.43 0,24.4 12.28,36.61 36.72,36.61 46.57,0 123.58,-75.13 231.12,-225.68l27.68 -38.52 16.13 -19.74c3.04,-5.94 6.01,-8.9 8.97,-8.9 3.57,0 5.4,1.76 5.4,5.4z"/>
  <path class="fil0" d="M9142.31 3141.63c0,20.8 -8.75,40.36 -26.37,58.61 -17.59,18.16 -36.79,27.15 -57.69,27.15 -26.8,0 -40.21,-13.38 -40.21,-40.24 0,-19.6 9.25,-38.49 27.74,-56.78 18.48,-18.15 37.82,-27.25 58.09,-27.25 25.66,0 38.44,12.85 38.44,38.51zm13.03 369.86c-0.63,1.69 -3.63,6.46 -8.97,14.3l-38.48 52.75c-112.28,155.95 -197.94,233.85 -257.01,233.85 -28.06,0 -51.51,-9.96 -70.3,-29.91 -18.82,-20.1 -28.2,-44.92 -28.2,-74.71 0,-34.64 20.58,-87.07 61.71,-157.44l139.58 -237.02c18.43,4.24 33.05,6.22 43.81,6.22 16.07,0 38.73,-1.97 67.94,-6.22l-202.98 333.63c-29.24,48.3 -43.89,85.55 -43.89,111.79 0,26.87 14.08,40.21 42.12,40.21 53.15,0 146.57,-94.58 280.31,-283.94 3,-5.94 5.98,-8.9 9.01,-8.9 3.56,0 5.36,1.76 5.36,5.4z"/>
  <path class="fil0" d="M9730.4 3511.48c0,13.7 -43.25,71.64 -129.83,173.75 -71.56,84.7 -128.34,127.15 -170.11,127.15 -26.27,0 -48.52,-10.56 -66.7,-31.71 -18.23,-21.26 -27.36,-46.72 -27.36,-76.56 0,-23.23 11.65,-55.71 34.95,-97.44l-17.9 24.11c-54.88,70.37 -95.12,117.51 -120.75,141.41 -28.07,26.72 -54.56,40.18 -79.63,40.18 -26.26,0 -48.26,-10.28 -66.17,-30.87 -17.9,-20.62 -26.86,-45.72 -26.86,-75.55 0,-34.64 13.41,-74.22 40.28,-118.88l162.77 -273.78c20.23,4.24 36.05,6.22 47.42,6.22 11.3,0 31.6,-1.97 60.83,-6.22l-212.9 350.58c-21.44,35.8 -32.24,67.44 -32.24,94.83 0,26.87 11.4,40.21 34.04,40.21 60.19,0 156.79,-112.31 289.73,-337.12l87.71 -148.51c18.48,4.24 33.97,6.22 46.51,6.22 14.89,0 36.04,-1.97 63.51,-6.22l-143.14 233.43c-67.97,110.93 -101.97,182.15 -101.97,213.78 0,25.67 12.25,38.41 36.72,38.41 47.77,0 125.42,-75.13 232.89,-225.68l27.75 -38.52 16.1 -19.74c3,-5.94 6.01,-8.9 8.97,-8.9 3.63,0 5.36,1.76 5.36,5.4z"/>
  <path class="fil0" d="M10724.96 3511.48c-0.6,1.69 -3.57,6.46 -8.94,14.3l-38.52 52.75c-112.21,155.95 -195.22,233.85 -248.95,233.85 -28.07,0 -51.02,-10.46 -68.92,-31.29 -17.98,-20.91 -26.87,-47.67 -26.87,-80.47 0,-33.44 11.3,-69.52 33.97,-108.29 4.2,-7.1 25.95,-39.01 65.29,-95.61 50.09,-71.53 75.16,-118.38 75.16,-140.45 0,-24.4 -12.21,-36.76 -36.68,-36.76 -78.71,0 -213.72,161.72 -405.2,484.81 -11.86,-2.4 -28.28,-3.6 -49.15,-3.6 -24.46,0 -45.33,1.2 -62.59,3.6l127 -201.25c82.83,-132.37 124.29,-213.47 124.29,-243.31 0,-26.76 -11.02,-40.25 -33.05,-40.25 -32.8,0 -86.47,47.14 -161.01,141.41 -74.53,94.17 -148.51,208.71 -221.84,343.4 -13.7,-2.4 -31.25,-3.6 -52.75,-3.6 -23.27,0 -43.54,1.2 -60.84,3.6l127.92 -201.25c88.28,-138.3 132.37,-223.85 132.37,-256.69 0,-17.84 -6.85,-26.87 -20.59,-26.87 -29.31,0 -90,64.05 -181.94,191.97 -6.01,8.26 -10.81,12.5 -14.34,12.5 -2.39,-0.64 -3.59,-2.44 -3.59,-5.4 0,-5.29 27.46,-42.59 82.4,-111.58 53.75,-67.19 95.26,-100.81 124.5,-100.81 19.11,0 35.52,9.08 49.29,27.26 13.7,18.15 20.66,39.79 20.66,64.86 0,34.57 -17.62,82.59 -52.83,143.92 107.37,-157.4 187.24,-236.04 239.75,-236.04 25,0 45.58,10.17 61.68,30.34 16.13,20.27 24.11,45.65 24.11,76.09 0,34 -15.81,77.22 -47.38,129.62 113.27,-157.4 198.26,-236.04 254.93,-236.04 25.63,0 47.24,11.02 64.79,33.09 17.63,22.07 26.45,48.83 26.45,80.47 0,36.93 -14.65,80.25 -43.86,129.72 -0.6,0.53 -26.27,38.73 -76.9,114.4 -29.24,43.01 -43.86,75.83 -43.86,98.43 0,24.4 12.29,36.61 36.75,36.61 46.58,0 123.55,-75.13 231.1,-225.68l27.68 -38.52 16.13 -19.74c3.03,-5.94 6,-8.9 8.97,-8.9 3.56,0 5.4,1.76 5.4,5.4z"/>
  <path class="fil0" d="M13108.95 2861.39c0,31.01 -4.13,64.87 -12.43,101.83 -8.23,36.94 -16.16,55.41 -23.83,55.41 -5.94,0 -8.9,-3 -8.9,-8.94 0,-1.8 0.57,-4.44 1.76,-8.05 15.78,-41.74 23.7,-86.64 23.7,-134.95 0,-75.03 -22.32,-135.34 -67.09,-180.88 -44.74,-45.55 -103.74,-68.33 -177.14,-68.33 -100.7,0 -202.66,32.49 -305.87,97.42 88.27,70.29 132.36,146.6 132.36,228.76 0,69.77 -27.85,129.19 -83.57,178.34 -55.79,49.15 -129.22,79.41 -220.46,90.64 62,35.9 92.96,87.78 92.96,155.84 0,45.3 -15.74,114.23 -47.38,206.7 -20.87,60.9 -31.28,108.57 -31.28,143.17 0,35.87 12.88,66.14 38.48,90.89 25.7,24.71 57.06,37.14 94.09,37.14 38.24,0 74.39,-12.64 108.43,-38.03 7.77,-4.76 13.13,-7.2 16.13,-7.2 4.73,0 7.14,2.43 7.14,7.2 0,10.1 -16.7,21.79 -50.14,35.03 -33.43,13.27 -62.38,19.99 -86.88,19.99 -57.34,0 -105.36,-22.85 -144.16,-68.5 -38.8,-45.62 -58.23,-102.19 -58.23,-169.59 0,-48.94 21.51,-135.16 64.41,-258.63 10.74,-31.6 16.13,-58.47 16.13,-80.54 0,-28.03 -11.61,-51.93 -34.95,-71.64 -38.17,3.56 -59.92,5.4 -65.29,5.4 -59,0 -88.52,-7.45 -88.52,-22.42 0,-9.54 14.89,-14.19 44.77,-14.19 35.13,0 70.3,6.78 105.5,20.48 70.97,-11.27 129.05,-44.18 174.39,-98.72 45.33,-54.59 68,-118.77 68,-192.67 0,-58.36 -22.67,-114.33 -68,-167.92l-8.94 -11.69c-130.6,97.87 -254.01,268.38 -370.28,511.69 -70.4,147.31 -134.77,253.44 -193.24,318.44 -58.4,64.97 -140.35,123.76 -245.92,176.18 -124.64,60.84 -235.82,91.21 -333.6,91.21 -79.9,0 -146.39,-18.26 -199.45,-54.98 -53.07,-36.61 -79.62,-82.37 -79.62,-137.28 0,-30.44 9.25,-56.67 27.75,-78.74 18.5,-22 40.24,-33.05 65.32,-33.05 36.33,0 54.55,20.27 54.55,60.87 0,20.27 -6.18,37.42 -18.39,51.76 -12.19,14.33 -27.26,21.46 -45.17,21.46 -31,0 -45.9,-16.02 -44.7,-48.3 0.6,-13.06 -0.6,-19.67 -3.56,-19.67 -9.53,0 -14.3,15.82 -14.3,47.49 0,49.43 24.26,90.64 72.84,123.34 48.55,32.8 109.77,49.22 183.68,49.22 130.49,0 248.77,-48.27 354.87,-144.87 46.43,-42.34 86.08,-85.55 118.81,-129.72 35.8,-47.66 113.84,-163.37 234.2,-347.01 60.16,-90.64 131.1,-181.63 212.69,-272.82 81.67,-91.31 151.09,-156.55 208.29,-195.93 -92.97,-79.23 -229.54,-118.91 -409.65,-118.91 -251.64,0 -470.4,90.99 -656.44,272.82 -152.64,149.14 -228.98,289.46 -228.98,421.33 0,66.73 21.44,119.83 64.41,159.1 42.94,39.4 101.05,59.14 174.42,59.14 119.83,0 243.7,-57.55 371.62,-172.69 127.85,-115.11 191.82,-226.85 191.82,-335.36 0,-86.54 -44.41,-129.72 -133.28,-129.72 -88.84,0 -184.06,49.57 -285.74,148.82 -101.66,99.14 -152.5,192.25 -152.5,279.18 0,21.44 7.21,39.93 21.61,55.41 14.37,15.53 31.15,23.23 50.31,23.23 10.17,0 15.29,2.79 15.29,8.09 0,4.79 -5.68,7.13 -17.01,7.13 -28.81,0 -52.97,-12.95 -72.74,-38.87 -19.77,-25.88 -29.62,-57.62 -29.62,-95.08 0,-93 50.94,-183.53 152.91,-271.76 101.98,-88.1 206.63,-132.26 313.96,-132.26 102.54,0 153.8,47.41 153.8,142.25 0,115.67 -65.29,232.57 -195.85,350.61 -130.57,118.03 -259.37,177.03 -386.41,177.03 -82.83,0 -149.22,-24.82 -198.96,-74.6 -49.78,-49.78 -74.68,-116.45 -74.68,-199.88 0,-168.77 95.19,-322.82 285.75,-461.97 190.48,-139.26 401.09,-208.92 631.87,-208.92 175.3,0 322.54,39.05 441.81,117.08 109.13,-67.83 214.67,-101.76 316.64,-101.76 79.87,0 144.12,23.73 192.74,71.43 48.62,47.66 72.91,110.47 72.91,188.5z"/>
  <path class="fil0" d="M13119.69 3346.38c0,-19.11 -10.49,-28.63 -31.36,-28.63 -31.6,0 -73.16,21.96 -124.75,65.82 -51.61,43.82 -102.15,100.63 -151.61,170.36 85.9,-22.07 158.61,-53.28 218.28,-93.49 59.6,-40.25 89.44,-78.25 89.44,-114.05zm75.55 165.91c0,1.83 -5.4,9.57 -16.13,23.27l-38.45 48.19c-123.58,152.43 -229.47,228.63 -317.77,228.63 -41.84,0 -76.87,-15.04 -105.22,-45.2 -28.35,-30.02 -42.51,-67.83 -42.51,-113.17 0,-107.29 74.78,-201.78 224.45,-283.41 78.7,-43.01 142.82,-64.41 192.32,-64.41 21.47,0 39.79,6.33 55.01,19.18 15.18,12.85 22.77,28.45 22.77,46.96 0,42.94 -28.03,79.48 -84.06,109.63 -56.07,30.05 -149.67,58.25 -280.84,84.49 -40.57,61.36 -60.84,112.63 -60.84,153.8 0,51.26 27.75,76.97 83.33,76.97 94.27,0 209.77,-92.05 346.45,-276.01 7.17,-9.53 13.09,-14.33 17.9,-14.33 2.37,0.67 3.6,2.44 3.6,5.4z"/>
  <path class="fil0" d="M13577.63 3363.4c0,-29.19 -13.45,-43.89 -40.32,-43.89 -54.84,0 -126.86,53.75 -215.94,161.08 -89.19,107.3 -133.74,194.02 -133.74,260.25 0,38.77 17.3,58.08 51.86,58.08 41.14,0 112.39,-68.25 213.75,-204.75 82.94,-112.11 124.4,-189.07 124.4,-230.78zm246.34 148.09c0,12.5 -43.57,70.37 -130.71,173.75 -70.44,84.7 -125.94,127.15 -166.54,127.15 -27.43,0 -49.85,-10.28 -67.16,-30.87 -17.26,-20.62 -25.95,-46.39 -25.95,-77.4 0,-32.16 9.5,-67.05 28.6,-104.54 -59.64,83.43 -105.22,139.78 -136.83,168.98 -31.64,29.19 -62.31,43.82 -92.12,43.82 -31.67,0 -58.15,-13.56 -79.62,-40.74 -21.47,-27.05 -32.17,-61.23 -32.17,-102.33 0,-114.51 80.79,-215.9 242.33,-304.14 70.96,-39.37 128.2,-58.97 171.77,-58.97 36.93,0 55.4,17.8 55.4,53.57 0,10.2 -2.4,23.59 -7.13,40.35l45.62 -86.82c17.87,4.24 33.65,6.22 47.38,6.22 16.1,0 36.96,-1.97 62.63,-6.22l-158.32 262.09c-54.91,91.8 -82.27,152.32 -82.27,181.49 0,28.03 11.62,42.05 34.92,42.05 23.9,0 62.1,-27.28 114.65,-81.95 52.56,-54.58 105.99,-121.98 160.26,-201.99 3.63,-5.94 6.96,-8.9 9.92,-8.9 3.53,0 5.33,1.76 5.33,5.4z"/>
  <path class="fil0" d="M14294.88 2877.74c-250.43,416.74 -396.4,661.85 -437.74,735.22 -41.46,73.33 -62.21,121.95 -62.21,145.74 0,26.87 11.33,40.21 34,40.21 50.17,0 142.15,-94.58 275.9,-283.94 2.96,-5.94 6.54,-8.9 10.74,-8.9 2.36,0.6 3.56,2.4 3.56,5.4 0,3.49 -2.97,8.26 -8.94,14.3l-38.48 52.75c-112.85,155.95 -196.14,233.85 -249.8,233.85 -25.7,0 -46.75,-9.75 -63.2,-29.06 -16.38,-19.46 -24.61,-43.96 -24.61,-73.79 0,-32.77 7.63,-64.55 22.85,-95.19 15.18,-30.79 66.91,-119.44 155.14,-266.12 107.93,-179.5 198.85,-335.14 272.79,-466.87 17.9,4.76 33.68,7.1 47.45,7.1 22.6,0 43.47,-3.57 62.56,-10.7z"/>
  <path class="fil0" d="M16157.02 2788.38c0,-23.37 -24.61,-43.86 -73.75,-61.79 -49.19,-17.83 -105.75,-26.86 -169.52,-26.86 -87.63,0 -167.57,19.14 -239.68,57.34 157.97,51.26 290.94,76.87 398.87,76.87 56.08,0 84.07,-15.18 84.07,-45.55zm-252.17 578.62c0,-43.01 -17.09,-78.46 -51.09,-106.45 -34.04,-28.03 -77.01,-42.06 -128.91,-42.06 -128.41,0 -253.8,53.29 -376.1,159.67 -122.37,106.45 -183.6,215.13 -183.6,325.96 0,32.28 9.89,65.08 29.56,98.4 34.63,6.61 66.59,9.86 95.82,9.86 140.84,0 278.47,-48.69 412.82,-146.26 134.27,-97.44 201.5,-197.23 201.5,-299.13zm270.95 -576.96c0,40.03 -36.65,60.02 -110.02,60.02 -57.83,0 -195.25,-26.87 -412.29,-80.5 -101.37,57.76 -152.03,130.6 -152.03,218.17 0,42.34 14.58,71.53 43.82,87.66 42.3,-3.6 74.21,-5.29 95.72,-5.29 61.99,0 93,7.42 93,22.28 0,9.54 -16.42,14.33 -49.29,14.33 -41.74,0 -87.14,-5.97 -136.08,-17.83 -66.28,9.46 -143.24,35.13 -231.02,76.87 -223.25,106.77 -334.94,245.07 -334.94,415.05 0,112.6 60.84,184.17 182.48,214.63 -22.11,-36.4 -33.12,-78.46 -33.12,-126.12 0,-117.5 60.02,-225.69 179.99,-324.73 119.98,-98.89 251.32,-148.4 393.97,-148.4 65.64,0 117.97,16.02 156.73,48.3 38.77,32.2 58.19,75.38 58.19,129.61 0,116.34 -63.87,221.14 -191.61,314.46 -127.82,93.28 -271.63,139.89 -431.68,139.89 -32.2,0 -62.35,-1.7 -90.43,-5.33 57.38,76.87 142.5,115.42 255.39,115.42 69.91,0 126.97,-10.52 171.17,-31.32l10.81 -1.83c3.53,1.16 5.33,3.63 5.33,7.13 0,8.41 -22.07,17.19 -66.28,26.41 -44.24,9.25 -84.56,13.91 -120.96,13.91 -124.89,0 -220.15,-45.09 -285.85,-135.13 -90.96,-20.27 -162.17,-54.66 -213.54,-103.28 -51.41,-48.61 -77.19,-105.11 -77.19,-169.43 0,-86.5 35.8,-167.4 107.37,-242.85 71.57,-75.35 166.94,-132.51 286.2,-171.22 72.14,-23.9 154.69,-41.2 247.76,-51.93 -66.21,-27.99 -99.28,-72.48 -99.28,-133.28 0,-78.04 48.26,-143.35 144.86,-195.86 -138.34,-33.37 -252.53,-50.13 -342.55,-50.13 -176.47,0 -326.89,44.17 -451.17,132.36 -124.4,88.35 -186.54,195.01 -186.54,320.28 0,56.03 16.38,104.02 49.19,143.91 32.83,40.04 72.13,59.99 118.07,59.99 31.6,0 47.45,-5.08 47.45,-15.18 0,-5.44 -5.72,-7.21 -17.05,-5.44 -31.57,0 -47.42,-14.61 -47.42,-43.81 0,-16.63 7.03,-31.01 21.05,-42.91 14.01,-11.97 30.89,-17.9 50.52,-17.9 38.16,0 57.27,18.47 57.27,55.5 0,24.4 -10.88,45.09 -32.66,62.11 -21.75,16.98 -48.16,25.45 -79.16,25.45 -55.41,0 -102.72,-24.85 -141.73,-74.6 -39.05,-49.78 -58.61,-109.87 -58.61,-180.24 0,-105.54 45.94,-202.46 137.74,-290.66 109.13,-104.97 262.37,-157.43 459.7,-157.43 109.7,0 255.81,22.31 438.24,67.12 82.3,-40.03 178.02,-59.99 287.17,-59.99 81.03,0 150.23,10.95 207.47,32.7 57.2,21.75 85.83,48.05 85.83,79.06z"/>
  <path class="fil0" d="M16160.58 3517.2c0,-17.83 -0.63,-35.59 -1.8,-53.21 -1.19,-17.62 -1.79,-42.76 -1.79,-75.55 0,-26.84 1.2,-49.15 3.59,-67.09 -33.4,42.34 -81.73,102 -144.9,178.86 11.34,9.54 17.02,21.23 17.02,34.92 0,35.14 -28.95,59.04 -86.78,71.54 -23.24,5.32 -43.4,18.04 -60.34,37.99 -17.02,19.98 -25.5,41.03 -25.5,63.09 0,23.87 8.59,43.82 25.88,59.95 17.33,16.03 38.8,24.08 64.48,24.08 50.03,0 97.59,-29.05 142.61,-87.1 44.98,-58.19 67.54,-120.61 67.54,-187.49zm124.33 -352.83c0,23.87 -37.25,71.11 -111.79,141.83 -3.6,18.44 -5.4,34.57 -5.4,48.27 0,34.6 15.78,89.37 47.45,164.53 16.06,37.57 24.12,69.21 24.12,94.77 0,53.74 -26.09,100.24 -78.25,139.64 -52.18,39.26 -114.04,58.97 -185.61,58.97 -40.57,0 -72.91,-11.44 -97.03,-34.47 -24.15,-22.95 -36.22,-53.74 -36.22,-92.57 0,-44.71 15.92,-88.21 47.84,-130.54 31.89,-42.4 64.87,-63.48 98.82,-63.48 5.94,0 11.37,1.13 16.13,3.57l71.54 -87.67c21.43,-25.59 50.06,-61.15 85.83,-106.45 10.13,-41.7 25.63,-77.5 46.53,-107.33 20.87,-29.74 41.42,-44.67 61.68,-44.67 9.57,0 14.34,5.19 14.34,15.6z"/>
  <path class="fil0" d="M16669.48 3306.2l-7.1 13.31 -117.22 0 -199.42 340.79c-24.47,41.18 -36.68,74.01 -36.68,98.4 0,26.87 14.05,40.21 42.09,40.21 54.34,0 145.99,-94.58 274.98,-283.94 4.2,-5.94 7.74,-8.9 10.74,-8.9 3.59,0 5.32,1.76 5.32,5.4 -0.56,1.69 -3.52,6.46 -8.9,14.3l-38.52 52.75c-112.21,155.95 -196.66,233.85 -253.4,233.85 -28.07,0 -51.48,-10.17 -70.27,-30.44 -18.85,-20.27 -28.24,-45.55 -28.24,-75.98 0,-35.8 15.82,-80.47 47.42,-134.2l150.27 -252.25 -91.2 0 8.9 -13.31 89.47 0 104.66 -173.57c17.87,4.76 34.85,7.2 50.94,7.2 16.73,0 34.04,-2.43 51.9,-7.2l-102.85 173.57 117.11 0z"/>
  <path class="fil0" d="M17024.57 3363.4c0,-29.19 -13.41,-43.89 -40.28,-43.89 -54.84,0 -126.86,53.75 -215.94,161.08 -89.23,107.3 -133.78,194.02 -133.78,260.25 0,38.77 17.3,58.08 51.9,58.08 41.14,0 112.39,-68.25 213.75,-204.75 82.91,-112.11 124.36,-189.07 124.36,-230.78zm246.38 148.09c0,12.5 -43.57,70.37 -130.74,173.75 -70.41,84.7 -125.91,127.15 -166.55,127.15 -27.43,0 -49.82,-10.28 -67.12,-30.87 -17.3,-20.62 -25.99,-46.39 -25.99,-77.4 0,-32.16 9.54,-67.05 28.63,-104.54 -59.63,83.43 -105.25,139.78 -136.85,168.98 -31.64,29.19 -62.32,43.82 -92.12,43.82 -31.64,0 -58.12,-13.56 -79.62,-40.74 -21.47,-27.05 -32.17,-61.23 -32.17,-102.33 0,-114.51 80.78,-215.9 242.35,-304.14 70.97,-39.37 128.17,-58.97 171.75,-58.97 36.93,0 55.4,17.8 55.4,53.57 0,10.2 -2.37,23.59 -7.1,40.35l45.58 -86.82c17.9,4.24 33.65,6.22 47.42,6.22 16.06,0 36.93,-1.97 62.59,-6.22l-158.32 262.09c-54.87,91.8 -82.27,152.32 -82.27,181.49 0,28.03 11.65,42.05 34.92,42.05 23.9,0 62.11,-27.28 114.65,-81.95 52.57,-54.58 105.99,-121.98 160.3,-201.99 3.63,-5.94 6.92,-8.9 9.89,-8.9 3.53,0 5.36,1.76 5.36,5.4z"/>
  <path class="fil0" d="M17602.32 3306.2l-7.13 13.31 -117.19 0 -199.46 340.79c-24.46,41.18 -36.68,74.01 -36.68,98.4 0,26.87 14.05,40.21 42.09,40.21 54.34,0 146,-94.58 274.99,-283.94 4.19,-5.94 7.77,-8.9 10.73,-8.9 3.63,0 5.33,1.76 5.33,5.4 -0.57,1.69 -3.53,6.46 -8.9,14.3l-38.52 52.75c-112.21,155.95 -196.67,233.85 -253.37,233.85 -28.11,0 -51.52,-10.17 -70.27,-30.44 -18.89,-20.27 -28.24,-45.55 -28.24,-75.98 0,-35.8 15.78,-80.47 47.38,-134.2l150.24 -252.25 -91.17 0 8.9 -13.31 89.48 0 104.61 -173.57c17.91,4.76 34.92,7.2 50.99,7.2 16.69,0 34.03,-2.43 51.93,-7.2l-102.93 173.57 117.19 0z"/>
  <path class="fil0" d="M17950.25 3346.38c0,-19.11 -10.45,-28.63 -31.29,-28.63 -31.64,0 -73.22,21.96 -124.81,65.82 -51.59,43.82 -102.08,100.63 -151.58,170.36 85.9,-22.07 158.61,-53.28 218.28,-93.49 59.59,-40.25 89.4,-78.25 89.4,-114.05zm75.59 165.91c0,1.83 -5.4,9.57 -16.13,23.27l-38.49 48.19c-123.54,152.43 -229.43,228.63 -317.77,228.63 -41.81,0 -76.83,-15.04 -105.14,-45.2 -28.35,-30.02 -42.55,-67.83 -42.55,-113.17 0,-107.29 74.78,-201.78 224.45,-283.41 78.7,-43.01 142.85,-64.41 192.28,-64.41 21.54,0 39.82,6.33 55.05,19.18 15.18,12.85 22.77,28.45 22.77,46.96 0,42.94 -28.03,79.48 -84.06,109.63 -56.04,30.05 -149.68,58.25 -280.84,84.49 -40.53,61.36 -60.8,112.63 -60.8,153.8 0,51.26 27.75,76.97 83.25,76.97 94.35,0 209.8,-92.05 346.52,-276.01 7.17,-9.53 13.1,-14.33 17.87,-14.33 2.4,0.67 3.6,2.44 3.6,5.4z"/>
 </g>
</svg>
