<svg width="20" height="16" viewBox="0 0 20 16" fill="none" xmlns="http://www.w3.org/2000/svg">
<path fill-rule="evenodd" clip-rule="evenodd" d="M1.44962 2.03165C1.67393 1.5971 2.12727 1.3 2.65 1.3H16.65C17.1727 1.3 17.626 1.59707 17.8503 2.03159C17.6562 1.96889 17.4356 1.99828 17.26 2.13L11.06 6.77999L11.06 6.78C10.2244 7.40667 9.07559 7.40667 8.23999 6.77999L2.04 2.13005C1.86437 1.99833 1.64377 1.96893 1.44962 2.03165ZM1.3 3.20005V12.65C1.3 13.3956 1.90442 14 2.65 14H16.65C17.3956 14 18 13.3956 18 12.65V3.2L11.84 7.82L11.84 7.82001C10.5422 8.79333 8.75782 8.79333 7.46001 7.82001L7.46 7.82L1.3 3.20005ZM2.65 0C1.18645 0 0 1.18645 0 2.65V12.65C0 14.1136 1.18645 15.3 2.65 15.3H16.65C18.1136 15.3 19.3 14.1136 19.3 12.65V2.65C19.3 1.18645 18.1136 0 16.65 0H2.65Z" fill="white"/>
</svg>
