<svg width="30" height="30" viewBox="0 0 30 30" fill="none" xmlns="http://www.w3.org/2000/svg">
<path d="M22.9549 13.9905V13.2834C22.9549 13.1776 22.9549 13.1247 22.9543 13.0799C22.9059 9.69818 20.1762 6.96849 16.7944 6.92006C16.7497 6.91942 16.6968 6.91942 16.591 6.91942H15.8839M27.3745 14.8744V13.6369C27.3745 12.5811 27.3745 12.0532 27.3346 11.6082C26.9032 6.78988 23.0846 2.97124 18.2662 2.53984C17.8213 2.5 17.2933 2.5 16.2376 2.5L15.0001 2.5M10.9723 11.5292C10.4058 12.829 10.6925 14.343 11.6951 15.3456L14.6911 18.3416C15.6936 19.3442 17.2077 19.6309 18.5074 19.0643C19.8071 18.4978 21.3212 18.7845 22.3238 19.7871L24.1465 21.6098C24.2348 21.6981 24.279 21.7423 24.3147 21.7812C25.1936 22.7376 25.1936 24.2078 24.3147 25.1642C24.279 25.2031 24.2348 25.2473 24.1465 25.3356L23.0386 26.4435C22.1363 27.3458 20.8357 27.7245 19.5901 27.4477C11.1031 25.5617 4.47494 18.9336 2.58894 10.4466C2.31214 9.20098 2.6909 7.90032 3.59314 6.99808L4.70107 5.89015C4.78937 5.80184 4.83353 5.75769 4.87243 5.72195C5.82887 4.8431 7.29901 4.8431 8.25545 5.72195C8.29435 5.75769 8.33851 5.80184 8.42681 5.89015L10.2496 7.71289C11.2521 8.71546 11.5389 10.2295 10.9723 11.5292Z" stroke="#1C2540" stroke-width="2.2" stroke-linecap="round"/>
</svg>
