<svg width="90" height="90" viewBox="0 0 90 90" fill="none" xmlns="http://www.w3.org/2000/svg">
<path d="M10.457 10.4946V88.4554C10.457 89.2835 11.1286 89.9548 11.9572 89.9548H68.9573C69.7852 89.9548 70.4568 89.2835 70.4568 88.4554V25.4875C70.4568 25.4542 70.4408 25.4258 70.4377 25.393C70.4303 25.2615 70.4043 25.1318 70.3611 25.0077C70.3444 24.9595 70.3326 24.9132 70.3116 24.8663C70.2387 24.7032 70.1374 24.5544 70.0113 24.4272L55.0116 9.43493C54.8843 9.30833 54.7348 9.20705 54.5704 9.1348C54.5253 9.11565 54.4796 9.0996 54.4326 9.08539C54.3072 9.04217 54.1768 9.01623 54.044 9.00758C54.0187 9.01191 53.989 8.99585 53.9575 8.99585H11.9572C11.1286 8.99585 10.457 9.66651 10.457 10.4946ZM65.336 23.9881H55.457V14.1141L65.336 23.9881ZM13.4567 11.9941H52.4573V25.4875C52.4573 26.315 53.1289 26.9863 53.9569 26.9863H67.4571V86.9566H13.4567V11.9941Z" fill="#1C2540"/>
<path d="M73.4574 77.9607V80.9589H77.9573C78.7858 80.9589 79.4574 80.2883 79.4574 79.4601V1.49941C79.4574 0.671277 78.7858 0 77.9573 0H20.9572C20.1286 0 19.457 0.671277 19.457 1.49941V5.99703H22.4574V2.9982H76.4571V77.9607H73.4574Z" fill="#1C2540"/>
<path d="M22.457 29.9851H58.4567V32.9833H22.457V29.9851Z" fill="#1C2540"/>
<path d="M22.457 20.9893H34.4571V23.9881H22.457V20.9893Z" fill="#1C2540"/>
<path d="M22.457 38.9803H46.4572V41.9792H22.457V38.9803Z" fill="#1C2540"/>
<path d="M49.457 38.9803H58.4568V41.9792H49.457V38.9803Z" fill="#1C2540"/>
<path d="M22.457 47.9756H58.4567V50.9744H22.457V47.9756Z" fill="#1C2540"/>
<path d="M22.457 65.9667H58.4567V68.9655H22.457V65.9667Z" fill="#1C2540"/>
<path d="M35.957 56.9714H58.457V59.9696H35.957V56.9714Z" fill="#1C2540"/>
<path d="M22.457 56.9714H32.9569V59.9696H22.457V56.9714Z" fill="#1C2540"/>
<path d="M22.457 74.9625H28.4571V77.9607H22.457V74.9625Z" fill="#1C2540"/>
<path d="M31.457 74.9625H58.4569V77.9607H31.457V74.9625Z" fill="#1C2540"/>
</svg>
