<svg width="36" height="36" viewBox="0 0 36 36" fill="none" xmlns="http://www.w3.org/2000/svg">
<path d="M34.1439 13.0219C34.1439 9.47817 31.2189 6.5813 27.6189 6.5813C27.5908 6.5813 27.5627 6.5813 27.5627 6.5813C26.2408 2.92505 22.4721 0.253174 18.0564 0.253174C13.6408 0.253174 9.84394 2.89692 8.52207 6.5813C8.46582 6.5813 8.43769 6.5813 8.38144 6.5813C4.78144 6.55317 1.85645 9.45005 1.85645 13.0219C1.85645 16.3125 4.41582 19.0688 7.67832 19.4063V35.7469H28.3221V19.4063C31.5846 19.0688 34.1439 16.3407 34.1439 13.0219ZM27.0283 34.4532H8.97207V32.1188H27.0002V34.4532H27.0283ZM27.6189 18.1688H26.9158L27.0283 19.2938V30.8251H23.6814V21.4876C23.6814 21.1219 23.4002 20.8407 23.0346 20.8407C22.6689 20.8407 22.3877 21.1219 22.3877 21.4876V30.8532H18.6471V25.3407C18.6471 24.9751 18.3658 24.6938 18.0002 24.6938C17.6346 24.6938 17.3533 24.9751 17.3533 25.3407V30.8251H13.6127V21.4876C13.6127 21.1219 13.3314 20.8407 12.9658 20.8407C12.6002 20.8407 12.3189 21.1219 12.3189 21.4876V30.8532H8.97207V19.3782L9.08457 18.1688H8.38144C5.48457 18.1688 3.1502 15.8344 3.1502 12.9938C3.1502 10.2094 5.37207 7.9313 8.18457 7.84692C8.10019 8.35317 8.04394 8.88755 8.04394 9.3938C8.04394 9.75942 8.32519 10.0407 8.69082 10.0407C9.05644 10.0407 9.33769 9.75942 9.33769 9.3938C9.33769 5.06255 13.2471 1.5188 18.0283 1.5188C22.8096 1.5188 26.7189 5.06255 26.7189 9.3938C26.7189 9.75942 27.0002 10.0407 27.3658 10.0407C27.7314 10.0407 28.0127 9.75942 28.0127 9.3938C28.0127 8.85942 27.9564 8.35317 27.8721 7.84692C30.6283 7.98755 32.8221 10.2375 32.8221 12.9938C32.8502 15.8626 30.5158 18.1688 27.6189 18.1688ZM10.9127 9.8438C10.7439 9.8438 10.5752 9.70317 10.5752 9.53442C10.5752 5.9063 13.6689 2.95317 17.4658 2.95317C17.6346 2.95317 17.8033 3.0938 17.8033 3.26255C17.8033 3.4313 17.6627 3.57192 17.4658 3.57192C14.0346 3.57192 11.2502 6.2438 11.2502 9.53442C11.2502 9.70317 11.1096 9.8438 10.9127 9.8438Z" fill="#D2A992"/>
</svg>
