<!-- icon666.com - MILLIONS vector ICONS FREE --><svg version="1.1" id="Layer_1" xmlns="http://www.w3.org/2000/svg" xmlns:xlink="http://www.w3.org/1999/xlink" x="0px" y="0px" viewBox="0 0 512 512" style="enable-background:new 0 0 512 512;" xml:space="preserve"><g><g><g><path d="M488.114,0H23.886C10.715,0,0,10.715,0,23.886v464.229C0,501.285,10.715,512,23.886,512h464.229 C501.285,512,512,501.285,512,488.114V23.886C512,10.715,501.285,0,488.114,0z M496.244,488.114c0,4.483-3.648,8.13-8.13,8.13 H23.886c-4.483,0-8.13-3.648-8.13-8.13V23.886c0-4.483,3.648-8.13,8.13-8.13h464.229c4.482,0,8.13,3.648,8.13,8.13V488.114z" fill="#000000" style="fill: rgb(210, 169, 146);"></path><rect x="31.889" y="32.014" width="16.008" height="15.756" fill="#000000" style="fill: rgb(210, 169, 146);"></rect><rect x="63.906" y="32.014" width="16.008" height="15.756" fill="#000000" style="fill: rgb(210, 169, 146);"></rect><rect x="31.889" y="64.031" width="16.008" height="15.756" fill="#000000" style="fill: rgb(210, 169, 146);"></rect><rect x="464.099" y="464.225" width="16.008" height="15.756" fill="#000000" style="fill: rgb(210, 169, 146);"></rect><rect x="464.099" y="432.209" width="16.008" height="15.756" fill="#000000" style="fill: rgb(210, 169, 146);"></rect><rect x="432.083" y="464.225" width="16.008" height="15.756" fill="#000000" style="fill: rgb(210, 169, 146);"></rect><path d="M256.242,415.953c43.258,0,75.136-10.366,94.749-30.81c15.978-16.656,23.781-39.862,23.263-68.986 c0.11-0.108,0.225-0.21,0.334-0.319l45.303-45.303c12.016-12.017,18.635-28.067,18.635-45.19 c-0.001-17.124-6.619-33.173-18.636-45.19c-23.928-23.929-62.259-24.865-87.333-2.836 c-31.386-64.067-69.765-117.466-70.169-118.026l-6.392-8.852l-6.385,8.857c-0.375,0.52-37.881,52.774-68.984,115.801 c-42.531,86.187-53.455,150.679-32.465,191.684C164.861,399.409,201.384,415.953,256.242,415.953z M340.651,191.297 c9.386-9.388,21.718-14.081,34.049-14.081c12.33,0,24.662,4.694,34.048,14.081c9.042,9.042,14.021,21.134,14.021,34.049 c-0.001,12.914-4.98,25.006-14.021,34.048L363.442,304.7c-0.698,0.7-1.394,1.332-2.188,1.993l-0.173,0.149 c-16.935,14.951-41.808,15.766-59.696,2.959l67.519-67.519l-11.141-11.141l-67.522,67.522 c-13.466-18.8-11.771-45.186,5.108-62.063L340.651,191.297z M194.665,182.253c22.928-46.495,49.422-87.036,61.34-104.545 c12.499,18.337,41.017,61.954,64.69,111.259l-36.489,36.489c-24.918,24.918-24.918,65.463,0,90.381 c12.421,12.421,28.807,18.694,45.213,18.694c9.886,0,19.772-2.293,28.81-6.876c-1.414,19.521-7.644,35.151-18.608,46.58 c-16.527,17.226-44.821,25.962-83.62,25.962c-48.461,0-80.024-13.655-93.812-40.587 C139.042,314.397,167.073,238.208,194.665,182.253z" fill="#000000" style="fill: rgb(210, 169, 146);"></path><path d="M447.969,400.071c0-19.237-21.071-35.685-60.935-47.568l-4.501,15.099c36.63,10.92,49.681,23.932,49.681,32.469 c0,10.725-18.523,23.022-48.342,32.093c-34.037,10.355-79.451,16.057-127.871,16.057c-48.421,0-93.833-5.702-127.872-16.057 c-29.818-9.071-48.34-21.368-48.34-32.093c0-8.554,13.05-21.576,49.674-32.468l-4.49-15.101 c-39.867,11.856-60.94,28.306-60.94,47.569c0,19.014,20.579,35.323,59.511,47.166c35.484,10.795,82.524,16.74,132.458,16.74 c49.932,0,96.973-5.944,132.456-16.74C427.391,435.394,447.969,419.084,447.969,400.071z" fill="#000000" style="fill: rgb(210, 169, 146);"></path><path d="M247.996,375.933v-15.756c-22.171,0-38.143-5.864-47.47-17.43c-14.515-17.999-8.925-44.771-8.867-45.039l-15.385-3.398 c-0.309,1.386-7.33,34.248,11.899,58.218C200.63,368.058,220.758,375.933,247.996,375.933z" fill="#000000" style="fill: rgb(210, 169, 146);"></path><rect x="264.002" y="360.174" width="16.008" height="15.756" fill="#000000" style="fill: rgb(210, 169, 146);"></rect><rect x="372.434" y="211.726" transform="matrix(0.707 0.7072 -0.7072 0.707 266.8066 -204.5867)" width="15.755" height="15.96" fill="#000000" style="fill: rgb(210, 169, 146);"></rect></g></g></g></svg>