<!-- icon666.com - MILLIONS vector ICONS FREE --><svg version="1.1" id="Capa_1" xmlns="http://www.w3.org/2000/svg" xmlns:xlink="http://www.w3.org/1999/xlink" x="0px" y="0px" viewBox="0 0 512 512" style="enable-background:new 0 0 512 512;" xml:space="preserve"><g><g><path d="M503.467,81.067h-8.533V64c-0.011-9.421-7.645-17.056-17.067-17.067H460.8c-0.011-9.421-7.646-17.056-17.067-17.067 h-17.067c-9.421,0.011-17.056,7.646-17.067,17.067v34.133h-85.333V38.4c-0.015-14.132-11.468-25.585-25.6-25.6h-85.333 c-14.132,0.015-25.585,11.468-25.6,25.6v42.667H102.4V46.933c-0.011-9.421-7.646-17.056-17.067-17.067H68.267 c-9.421,0.011-17.056,7.646-17.067,17.067H34.133C24.712,46.944,17.077,54.579,17.067,64v17.067H8.533 C3.82,81.067,0,84.887,0,89.6s3.82,8.533,8.533,8.533h8.533V115.2c0.011,9.421,7.646,17.056,17.067,17.067H51.2 c0.011,9.421,7.645,17.056,17.067,17.067h17.067c9.421-0.011,17.056-7.645,17.067-17.067V98.133h17.067v102.4 c-9.421,0.011-17.056,7.645-17.067,17.067v231.972c-11.753,4.132-18.808,16.141-16.697,28.418 c2.111,12.278,12.773,21.24,25.231,21.209h51.2c12.458,0.031,23.12-8.932,25.231-21.209c2.111-12.278-4.945-24.287-16.697-28.418 V396.8H230.4v93.867c-0.001,2.263,0.898,4.434,2.499,6.035c1.6,1.6,3.771,2.499,6.035,2.499h34.133 c2.263,0.001,4.434-0.898,6.035-2.499c1.6-1.6,2.499-3.771,2.499-6.035V396.8h59.733v52.772 c-11.753,4.132-18.808,16.141-16.697,28.418c2.111,12.278,12.773,21.24,25.231,21.209h51.2 c12.458,0.031,23.12-8.932,25.231-21.209c2.111-12.278-4.945-24.287-16.697-28.418V217.6c-0.011-9.421-7.646-17.056-17.067-17.067 v-102.4H409.6v34.133c0.011,9.421,7.645,17.056,17.067,17.067h17.067c9.421-0.011,17.056-7.645,17.067-17.067h17.067 c9.421-0.011,17.056-7.646,17.067-17.067V98.133h8.533c4.713,0,8.533-3.82,8.533-8.533S508.18,81.067,503.467,81.067z M51.2,115.2 H34.133V64H51.2V115.2z M68.267,132.267V46.933h17.067l0.004,42.646L85.333,89.6l0.004,0.021l0.004,42.646H68.267z M358.4,98.133 h17.067v102.4H358.4V98.133z M358.4,217.6h34.133V448H358.4v-52.772c10.22-3.565,17.067-13.204,17.067-24.028 s-6.847-20.463-17.067-24.028V217.6z M324.267,302.933v-204.8h17.067V345.6H281.6v-17.067h17.067 C312.799,328.518,324.251,317.065,324.267,302.933z M204.8,38.4c0.005-4.711,3.823-8.529,8.533-8.533h85.333 c4.711,0.005,8.529,3.822,8.533,8.533v42.667H204.8V38.4z M204.8,98.133h102.4v204.8c-0.005,4.711-3.822,8.529-8.533,8.533 h-85.333c-4.711-0.005-8.529-3.822-8.533-8.533V98.133z M264.533,328.533V345.6h-17.067v-17.067H264.533z M170.667,98.133h17.067 v204.8c0.015,14.132,11.468,25.585,25.6,25.6H230.4V345.6h-59.733V98.133z M136.533,98.133H153.6v102.4h-17.067V98.133z M119.467,217.6H153.6v129.572c-10.22,3.564-17.067,13.203-17.067,24.027c0,10.824,6.847,20.463,17.067,24.027V448h-34.133V217.6z M162.133,482.133h-51.2c-4.713,0-8.533-3.82-8.533-8.533s3.82-8.533,8.533-8.533h51.2c4.713,0,8.533,3.821,8.533,8.533 S166.846,482.133,162.133,482.133z M264.533,482.133h-17.067V396.8h17.067V482.133z M273.067,379.733H162.133 c-4.713,0-8.533-3.82-8.533-8.533s3.82-8.533,8.533-8.533h187.733c4.713,0,8.533,3.82,8.533,8.533s-3.82,8.533-8.533,8.533 H273.067z M401.067,465.067c4.713,0,8.533,3.821,8.533,8.533s-3.82,8.533-8.533,8.533h-51.2c-4.713,0-8.533-3.82-8.533-8.533 s3.82-8.533,8.533-8.533H401.067z M443.733,132.267h-17.067V46.933h17.067V132.267z M477.867,115.2H460.8V64h17.067V115.2z" fill="#000000" style="fill: rgb(210, 169, 146);"></path></g></g></svg>