<svg width="20" height="19" viewBox="0 0 20 19" fill="none" xmlns="http://www.w3.org/2000/svg">
<path d="M19.2701 12.4516L15.2508 10.637C14.6766 10.3868 14.1024 10.5745 13.7197 11.0125L12.1885 12.9522C11.0402 12.5142 7.8503 11.1376 6.00016 7.75876L7.40374 6.13191C7.72275 5.75649 7.78653 5.2559 7.59513 4.81794L5.87261 0.813389C5.68122 0.375422 5.29844 0.0625457 4.78803 0.0625457L3.57584 0C3.06544 0 2.49126 0.125166 2.10848 0.500588C1.53431 1.00117 0.449729 2.06489 0.130718 3.50403C-0.315837 5.56885 0.385882 8.00917 2.17225 10.3869C3.25683 11.8885 6.57433 16.3311 12.9541 18.0831C13.592 18.2708 14.2301 18.3333 14.8042 18.3333C15.8888 18.3333 16.9095 18.0205 17.8027 17.5199C18.8235 16.8943 19.5252 15.8306 19.7805 14.7042L19.9719 13.8282C20.0994 13.265 19.7805 12.7019 19.2701 12.4516ZM18.4407 14.3913C18.2493 15.2046 17.7389 15.9556 17.0371 16.3935C15.9525 17.0818 14.6765 17.2069 13.273 16.8315C7.33982 15.2046 4.21371 11.0124 3.19298 9.63579C1.66185 7.57098 1.02383 5.44354 1.40661 3.75414C1.66177 2.62788 2.49119 1.81441 3.00159 1.37645C3.12921 1.25128 3.3206 1.18874 3.51199 1.18874L4.78796 1.3139L6.51048 5.2559L4.97935 6.9453C4.72419 7.25817 4.66034 7.75869 4.85173 8.13418C6.95704 12.1387 10.7849 13.703 11.9333 14.0785C12.3798 14.2036 12.8265 14.0785 13.1455 13.703L14.6766 11.7008L18.6959 13.5153L18.4407 14.3913Z" fill="white" fill-opacity="0.85"/>
</svg>
