<svg width="40" height="40" viewBox="0 0 40 40" fill="none" xmlns="http://www.w3.org/2000/svg">
<path fill-rule="evenodd" clip-rule="evenodd" d="M38.0005 20C38.0005 29.9411 29.9417 38 20.0005 38C10.0594 38 2.00055 29.9411 2.00055 20C2.00055 10.0589 10.0594 2 20.0005 2C29.9417 2 38.0005 10.0589 38.0005 20ZM40.0005 20C40.0005 31.0457 31.0462 40 20.0005 40C8.95485 40 0.000549316 31.0457 0.000549316 20C0.000549316 8.9543 8.95485 0 20.0005 0C31.0462 0 40.0005 8.9543 40.0005 20ZM30.982 9.19151C31.0525 8.83015 30.9188 8.45928 30.6339 8.22611C30.3489 7.99294 29.9589 7.93519 29.6187 8.07579L5.61867 17.9925C5.27707 18.1336 5.04118 18.4517 5.00528 18.8195C4.96938 19.1874 5.13932 19.5451 5.44718 19.7496L10.7155 23.2496C10.9919 23.4333 11.3414 23.4678 11.6485 23.3418L16.9678 21.1591L14.0752 24.0417C13.8869 24.2293 13.781 24.4842 13.781 24.75V30C13.781 30.3902 14.008 30.7448 14.3624 30.9082C14.7168 31.0715 15.1338 31.0138 15.4305 30.7604L19.0249 27.6902L25.457 30.895C25.7365 31.0343 26.065 31.035 26.3451 30.897C26.6252 30.7589 26.8247 30.498 26.8845 30.1915L30.982 9.19151ZM11.3802 21.2901L8.11885 19.1234L28.6627 10.6348L25.1731 28.5191L19.3246 25.605C18.9655 25.426 18.5342 25.479 18.2291 25.7396L15.781 27.8307V25.1652L21.9259 19.0417C22.2637 18.7051 22.3168 18.177 22.0529 17.7799C21.7891 17.3828 21.2815 17.2272 20.8404 17.4082L11.3802 21.2901Z" fill="white" fill-opacity="0.85"/>
</svg>
