<svg width="40" height="40" viewBox="0 0 40 40" fill="none" xmlns="http://www.w3.org/2000/svg">
<circle cx="20" cy="20" r="19" stroke="#1C2540" stroke-width="2"/>
<path d="M6.97585 12.9778L6.0002 12.9976C5.99484 12.7383 6.09523 12.4878 6.27879 12.3025C6.46234 12.1173 6.71356 12.0129 6.97585 12.0129V12.9778ZM21.6784 29.035H22.6543C22.6543 29.5679 22.2173 30 21.6784 30V29.035ZM21.6784 23.2965H20.7026C20.7026 23.024 20.8191 22.7643 21.0235 22.5813C21.2278 22.3983 21.5008 22.3094 21.7752 22.3364L21.6784 23.2965ZM28.4053 29.035V30C27.981 30 27.6055 29.729 27.4761 29.3295L28.4053 29.035ZM33.0241 29.035L33.9662 28.7832C34.0454 29.073 33.9837 29.383 33.7991 29.6215C33.6143 29.8601 33.328 30 33.0241 30V29.035ZM26.3494 20.9806L25.9145 21.8446C25.5966 21.6879 25.3895 21.3728 25.3745 21.0217C25.3593 20.6707 25.5385 20.3393 25.8419 20.1565L26.3494 20.9806ZM32.0483 12.965V12C32.3414 12 32.6189 12.1303 32.8043 12.3548C32.9897 12.5793 33.0631 12.8744 33.0044 13.1583L32.0483 12.965ZM27.8588 12.965L26.9197 12.7028C27.0383 12.2871 27.4218 12 27.8588 12V12.965ZM21.6784 19.3209L21.7819 20.2804C21.5067 20.3096 21.2319 20.2216 21.026 20.0386C20.8201 19.8554 20.7026 19.5947 20.7026 19.3209H21.6784ZM21.6784 12.9778V12.0129C22.2173 12.0129 22.6543 12.4449 22.6543 12.9778H21.6784ZM17.4759 12.9778H16.5001C16.5001 12.4449 16.9369 12.0129 17.4759 12.0129V12.9778ZM17.4759 24.0944H18.4517C18.4517 24.3914 18.3132 24.672 18.0764 24.855C17.8395 25.0377 17.5307 25.1026 17.2392 25.0304L17.4759 24.0944ZM11.4517 12.9778V12.0129C11.9833 12.0129 12.4171 12.4337 12.4273 12.9593L11.4517 12.9778ZM21.1579 30C16.4696 30 12.6888 28.4041 10.0687 25.4C7.46798 22.4182 6.10731 18.1602 6.0002 12.9976L7.95149 12.958C8.05256 17.8311 9.33313 21.6017 11.5466 24.1395C13.7406 26.655 16.9468 28.0701 21.1579 28.0701V30ZM21.171 30H21.1579V28.0701H21.171V30ZM21.6784 30H21.171V28.0701H21.6784V30ZM22.6543 23.2965V29.035H20.7026V23.2965H22.6543ZM27.4761 29.3295C26.5822 26.5734 24.3891 24.5332 21.5816 24.2569L21.7752 22.3364C25.4992 22.7033 28.2505 25.3979 29.3345 28.7403L27.4761 29.3295ZM33.0241 30H28.4053V28.0701H33.0241V30ZM31.3148 23.6885C32.5528 25.1823 33.4564 26.9187 33.9662 28.7832L32.0822 29.2869C31.6445 27.6858 30.8685 26.1945 29.8052 24.9119L31.3148 23.6885ZM26.7842 20.1168C28.5327 20.9773 30.0769 22.1947 31.3148 23.6885L29.8052 24.9119C28.7421 23.6291 27.4162 22.5836 25.9145 21.8446L26.7842 20.1168ZM30.8421 18.1152C29.7843 19.603 28.4277 20.859 26.857 21.8049L25.8419 20.1565C27.1835 19.3486 28.342 18.2758 29.2455 17.0053L30.8421 18.1152ZM33.0044 13.1583C32.6359 14.94 31.8997 16.6275 30.8421 18.1152L29.2455 17.0053C30.1489 15.7346 30.7775 14.2934 31.0923 12.7716L33.0044 13.1583ZM27.8588 12H32.0483V13.9299H27.8588V12ZM21.575 18.3615C22.544 18.2592 23.6613 17.6347 24.6807 16.5736C25.6872 15.5259 26.509 14.1411 26.9197 12.7028L28.7979 13.2271C28.2975 14.9797 27.311 16.6378 26.0959 17.9027C24.8934 19.1543 23.3762 20.1123 21.7819 20.2804L21.575 18.3615ZM22.6543 12.9778V19.3209H20.7026V12.9778H22.6543ZM17.4759 12.0129H21.6784V13.9428H17.4759V12.0129ZM16.5001 24.0944V12.9778H18.4517V24.0944H16.5001ZM12.4273 12.9593C12.5653 20.0529 15.6844 22.6568 17.7124 23.1582L17.2392 25.0304C14.0629 24.2453 10.6243 20.6218 10.476 12.9964L12.4273 12.9593ZM6.97585 12.0129H11.4517V13.9428H6.97585V12.0129Z" fill="#1C2540"/>
</svg>
