<svg width="40" height="40" viewBox="0 0 40 40" fill="none" xmlns="http://www.w3.org/2000/svg">
<path fill-rule="evenodd" clip-rule="evenodd" d="M38.0005 20C38.0005 29.9411 29.9417 38 20.0005 38C10.0594 38 2.00055 29.9411 2.00055 20C2.00055 10.0589 10.0594 2 20.0005 2C29.9417 2 38.0005 10.0589 38.0005 20ZM40.0005 20C40.0005 31.0457 31.0462 40 20.0005 40C8.95485 40 0.000549316 31.0457 0.000549316 20C0.000549316 8.9543 8.95485 0 20.0005 0C31.0462 0 40.0005 8.9543 40.0005 20ZM6.27934 12.3025C6.09578 12.4878 5.99539 12.7383 6.00075 12.9976C6.10786 18.1602 7.46853 22.4182 10.0692 25.4C12.6893 28.4041 16.4702 30 21.1585 30H21.1716H21.679C22.2178 30 22.6548 29.5679 22.6548 29.035V24.4546C24.9432 25.0814 26.7001 26.9353 27.4766 29.3295C27.606 29.729 27.9815 30 28.4058 30H33.0246C33.3285 30 33.6148 29.8601 33.7997 29.6215C33.9843 29.383 34.046 29.073 33.9667 28.7832C33.4569 26.9187 32.5533 25.1823 31.3154 23.6885C30.4163 22.6036 29.3557 21.6645 28.1726 20.902C29.1927 20.1082 30.0928 19.17 30.8427 18.1152C31.9003 16.6275 32.6365 14.94 33.0049 13.1583C33.0637 12.8744 32.9903 12.5793 32.8049 12.3548C32.6195 12.1303 32.342 12 32.0488 12H27.8593C27.4224 12 27.0389 12.2871 26.9202 12.7028C26.5096 14.1411 25.6877 15.5259 24.6812 16.5736C24.0245 17.2572 23.3271 17.7597 22.6548 18.0579V12.9778C22.6548 12.4449 22.2178 12.0129 21.679 12.0129H17.4765C16.9374 12.0129 16.5006 12.4449 16.5006 12.9778V22.6486C14.6325 21.5391 12.5403 18.74 12.4279 12.9593C12.4177 12.4337 11.9839 12.0129 11.4522 12.0129H6.9764C6.71411 12.0129 6.46289 12.1173 6.27934 12.3025ZM17.4763 24.0944L17.2397 25.0304C14.1978 24.2785 10.9154 20.9233 10.5128 13.9428H7.98927C8.23272 18.3413 9.48514 21.7753 11.5471 24.1395C13.6614 26.5636 16.7156 27.9657 20.7032 28.0645V23.2965C20.7032 23.024 20.8197 22.7643 21.024 22.5813C21.2283 22.3983 21.5014 22.3094 21.7758 22.3364C25.2473 22.6784 27.8736 25.0432 29.0918 28.0701H31.6768C31.225 26.9294 30.5944 25.8633 29.8058 24.9119C28.7427 23.6291 27.4167 22.5836 25.9151 21.8446L26.35 20.9806L25.8425 20.1565C27.1841 19.3486 28.3426 18.2758 29.246 17.0053C29.9167 16.0619 30.436 15.0245 30.7878 13.9299H28.5703C28.028 15.4196 27.1477 16.8083 26.0964 17.9027C24.894 19.1543 23.3767 20.1123 21.7824 20.2804C21.5072 20.3096 21.2324 20.2216 21.0265 20.0386C20.8206 19.8554 20.7032 19.5947 20.7032 19.3209V13.9428H18.4523V24.0944C18.4523 24.3914 18.3137 24.672 18.077 24.855C17.84 25.0377 17.5313 25.1026 17.2397 25.0304L17.4765 24.0944H17.4763ZM25.8425 20.1565L26.3499 20.9806L25.9151 21.8446C25.5972 21.6879 25.3901 21.3728 25.3751 21.0217C25.3598 20.6707 25.539 20.3393 25.8425 20.1565ZM28.4058 29.0349V29.035L27.4766 29.3295L28.4058 29.0349Z" fill="white" fill-opacity="0.85"/>
</svg>
