<svg width="40" height="40" viewBox="0 0 40 40" fill="none" xmlns="http://www.w3.org/2000/svg">
<mask id="path-1-outside-1_226_1518" maskUnits="userSpaceOnUse" x="0.000549316" y="0" width="40" height="40" fill="black">
<rect fill="white" x="0.000549316" width="40" height="40"/>
<path fill-rule="evenodd" clip-rule="evenodd" d="M1.25218 19.7484C1.25218 9.43045 9.6827 1 20.0634 1C30.5071 1 39.0005 9.43045 39.0005 19.7483C39.0005 30.0661 30.3184 38.7483 20.0634 38.7483C17.1694 38.7483 14.0866 37.8676 11.1297 36.2947L1.00055 39L3.76875 29.0596C2.13298 26.1656 1.25218 23.0199 1.25218 19.7484ZM11.5071 35.0365C14.3383 36.6093 17.2952 37.4901 20.0634 37.4901C29.6264 37.4901 37.7423 29.3742 37.7423 19.7484C37.7423 10.1225 29.8151 2.25829 20.0634 2.25829C10.3747 2.25829 2.51046 10.1225 2.51046 19.7484C2.51046 22.8312 3.3912 25.914 4.96407 28.6193L5.08992 28.8709L2.76217 37.2384L11.2555 34.9106L11.5071 35.0365ZM27.3015 20.7645L32.1247 22.9419C32.7371 23.2422 33.1199 23.918 32.9668 24.5938L32.7371 25.6451C32.4308 26.9967 31.5888 28.2731 30.3638 29.0239C29.292 29.6245 28.0671 30 26.7656 30C26.0766 30 25.311 29.9249 24.5455 29.6997C16.8897 27.5974 12.9087 22.2663 11.6073 20.4642C9.46361 17.611 8.62155 14.6826 9.15741 12.2048C9.54022 10.4779 10.8417 9.20141 11.5307 8.60071C11.9901 8.1502 12.6791 8 13.2916 8L14.7462 8.07506C15.3587 8.07506 15.818 8.45051 16.0477 8.97607L18.1147 13.7815C18.3444 14.3071 18.2679 14.9078 17.885 15.3583L16.2007 17.3105C18.4209 21.3652 22.2488 23.0171 23.6268 23.5426L25.4641 21.215C25.9235 20.6894 26.6125 20.4641 27.3015 20.7645ZM29.4451 27.6722C30.2872 27.1467 30.8997 26.2456 31.1294 25.2695L31.4356 24.2184L26.6125 22.0409L24.7751 24.4436C24.3923 24.8941 23.8564 25.0443 23.3205 24.8941C21.9425 24.4436 17.349 22.5665 14.8226 17.761C14.593 17.3104 14.6696 16.7098 14.9758 16.3344L16.8131 14.3071L14.7461 9.57668L13.2149 9.42648C12.9853 9.42648 12.7556 9.50154 12.6025 9.65174C11.99 10.1773 10.9947 11.1535 10.6885 12.505C10.2291 14.5322 10.9948 17.0852 12.8321 19.563C14.057 21.2149 17.8083 26.2456 24.9282 28.1978C26.6124 28.6483 28.1436 28.4982 29.4451 27.6722Z"/>
</mask>
<path fill-rule="evenodd" clip-rule="evenodd" d="M1.25218 19.7484C1.25218 9.43045 9.6827 1 20.0634 1C30.5071 1 39.0005 9.43045 39.0005 19.7483C39.0005 30.0661 30.3184 38.7483 20.0634 38.7483C17.1694 38.7483 14.0866 37.8676 11.1297 36.2947L1.00055 39L3.76875 29.0596C2.13298 26.1656 1.25218 23.0199 1.25218 19.7484ZM11.5071 35.0365C14.3383 36.6093 17.2952 37.4901 20.0634 37.4901C29.6264 37.4901 37.7423 29.3742 37.7423 19.7484C37.7423 10.1225 29.8151 2.25829 20.0634 2.25829C10.3747 2.25829 2.51046 10.1225 2.51046 19.7484C2.51046 22.8312 3.3912 25.914 4.96407 28.6193L5.08992 28.8709L2.76217 37.2384L11.2555 34.9106L11.5071 35.0365ZM27.3015 20.7645L32.1247 22.9419C32.7371 23.2422 33.1199 23.918 32.9668 24.5938L32.7371 25.6451C32.4308 26.9967 31.5888 28.2731 30.3638 29.0239C29.292 29.6245 28.0671 30 26.7656 30C26.0766 30 25.311 29.9249 24.5455 29.6997C16.8897 27.5974 12.9087 22.2663 11.6073 20.4642C9.46361 17.611 8.62155 14.6826 9.15741 12.2048C9.54022 10.4779 10.8417 9.20141 11.5307 8.60071C11.9901 8.1502 12.6791 8 13.2916 8L14.7462 8.07506C15.3587 8.07506 15.818 8.45051 16.0477 8.97607L18.1147 13.7815C18.3444 14.3071 18.2679 14.9078 17.885 15.3583L16.2007 17.3105C18.4209 21.3652 22.2488 23.0171 23.6268 23.5426L25.4641 21.215C25.9235 20.6894 26.6125 20.4641 27.3015 20.7645ZM29.4451 27.6722C30.2872 27.1467 30.8997 26.2456 31.1294 25.2695L31.4356 24.2184L26.6125 22.0409L24.7751 24.4436C24.3923 24.8941 23.8564 25.0443 23.3205 24.8941C21.9425 24.4436 17.349 22.5665 14.8226 17.761C14.593 17.3104 14.6696 16.7098 14.9758 16.3344L16.8131 14.3071L14.7461 9.57668L13.2149 9.42648C12.9853 9.42648 12.7556 9.50154 12.6025 9.65174C11.99 10.1773 10.9947 11.1535 10.6885 12.505C10.2291 14.5322 10.9948 17.0852 12.8321 19.563C14.057 21.2149 17.8083 26.2456 24.9282 28.1978C26.6124 28.6483 28.1436 28.4982 29.4451 27.6722Z" fill="white" fill-opacity="0.85"/>
<path d="M11.1297 36.2947L11.3175 35.9415L11.1785 35.8676L11.0264 35.9082L11.1297 36.2947ZM1.00055 39L0.615212 38.8927L0.427403 39.5671L1.10376 39.3865L1.00055 39ZM3.76875 29.0596L4.15409 29.1669L4.19858 29.0072L4.11698 28.8628L3.76875 29.0596ZM11.5071 35.0365L11.7014 34.6868L11.6938 34.6826L11.6861 34.6787L11.5071 35.0365ZM4.96407 28.6193L5.32182 28.4403L5.3162 28.4291L5.30988 28.4182L4.96407 28.6193ZM5.08992 28.8709L5.47529 28.9781L5.51657 28.8297L5.44767 28.692L5.08992 28.8709ZM2.76217 37.2384L2.3768 37.1312L2.18781 37.8106L2.86789 37.6242L2.76217 37.2384ZM11.2555 34.9106L11.4344 34.5529L11.2975 34.4844L11.1498 34.5249L11.2555 34.9106ZM32.1247 22.9419L32.3008 22.5826L32.2892 22.5774L32.1247 22.9419ZM27.3015 20.7645L27.4661 20.3999L27.4613 20.3978L27.3015 20.7645ZM32.9668 24.5938L32.5767 24.5055L32.576 24.5085L32.9668 24.5938ZM32.7371 25.6451L33.1273 25.7335L33.1279 25.7304L32.7371 25.6451ZM30.3638 29.0239L30.5594 29.3729L30.5662 29.3691L30.5729 29.365L30.3638 29.0239ZM24.5455 29.6997L24.6584 29.3159L24.6514 29.314L24.5455 29.6997ZM11.6073 20.4642L11.9316 20.23L11.9271 20.224L11.6073 20.4642ZM9.15741 12.2048L8.76688 12.1183L8.76645 12.1203L9.15741 12.2048ZM11.5307 8.60071L11.7936 8.90221L11.8024 8.8945L11.8108 8.88628L11.5307 8.60071ZM13.2916 8L13.3122 7.60053L13.3019 7.6H13.2916V8ZM14.7462 8.07506L14.7256 8.47452L14.7359 8.47506H14.7462V8.07506ZM16.0477 8.97607L16.4151 8.81801L16.4142 8.81589L16.0477 8.97607ZM18.1147 13.7815L17.7473 13.9396L17.7482 13.9417L18.1147 13.7815ZM17.885 15.3583L18.1879 15.6196L18.1899 15.6173L17.885 15.3583ZM16.2007 17.3105L15.8979 17.0492L15.7166 17.2593L15.8499 17.5026L16.2007 17.3105ZM23.6268 23.5426L23.4842 23.9164L23.7587 24.0211L23.9408 23.7905L23.6268 23.5426ZM25.4641 21.215L25.163 20.9517L25.1564 20.9593L25.1502 20.9671L25.4641 21.215ZM31.1294 25.2695L30.7453 25.1576L30.7424 25.1677L30.74 25.1779L31.1294 25.2695ZM29.4451 27.6722L29.2333 27.3329L29.2307 27.3345L29.4451 27.6722ZM31.4356 24.2184L31.8197 24.3303L31.9169 23.9968L31.6002 23.8538L31.4356 24.2184ZM26.6125 22.0409L26.7771 21.6763L26.4876 21.5457L26.2947 21.7979L26.6125 22.0409ZM24.7751 24.4436L25.0799 24.7027L25.0866 24.6948L25.0929 24.6866L24.7751 24.4436ZM23.3205 24.8941L23.1962 25.2743L23.2043 25.277L23.2125 25.2793L23.3205 24.8941ZM14.8226 17.761L14.4662 17.9427L14.4686 17.9472L14.8226 17.761ZM14.9758 16.3344L14.6794 16.0657L14.6724 16.0735L14.6658 16.0816L14.9758 16.3344ZM16.8131 14.3071L17.1095 14.5757L17.2833 14.384L17.1797 14.1469L16.8131 14.3071ZM14.7461 9.57668L15.1126 9.41652L15.0187 9.2015L14.7852 9.17859L14.7461 9.57668ZM13.2149 9.42648L13.254 9.02839L13.2345 9.02648H13.2149V9.42648ZM12.6025 9.65174L12.8629 9.9553L12.873 9.94663L12.8825 9.93731L12.6025 9.65174ZM10.6885 12.505L11.0786 12.5934L11.0786 12.5934L10.6885 12.505ZM12.8321 19.563L13.1534 19.3247L13.1534 19.3247L12.8321 19.563ZM24.9282 28.1978L24.8224 28.5836L24.8248 28.5842L24.9282 28.1978ZM20.0634 0.6C9.46266 0.6 0.852177 9.20867 0.852177 19.7484H1.65218C1.65218 9.65224 9.90275 1.4 20.0634 1.4V0.6ZM39.4006 19.7483C39.4006 9.20607 30.7246 0.6 20.0634 0.6V1.4C30.2897 1.4 38.6005 9.65484 38.6005 19.7483H39.4006ZM20.0634 39.1483C30.5402 39.1483 39.4006 30.2862 39.4006 19.7483H38.6005C38.6005 29.8461 30.0966 38.3483 20.0634 38.3483V39.1483ZM10.9418 36.6478C13.9432 38.2443 17.0902 39.1483 20.0634 39.1483V38.3483C17.2486 38.3483 14.23 37.4908 11.3175 35.9415L10.9418 36.6478ZM1.10376 39.3865L11.2329 36.6811L11.0264 35.9082L0.897334 38.6135L1.10376 39.3865ZM3.38341 28.9523L0.615212 38.8927L1.38589 39.1073L4.15409 29.1669L3.38341 28.9523ZM0.852177 19.7484C0.852177 23.0938 1.75331 26.3068 3.42052 29.2565L4.11698 28.8628C2.51266 26.0244 1.65218 22.946 1.65218 19.7484H0.852177ZM20.0634 37.0901C17.378 37.0901 14.4875 36.2346 11.7014 34.6868L11.3129 35.3861C14.1891 36.984 17.2125 37.8901 20.0634 37.8901V37.0901ZM37.3423 19.7484C37.3423 29.1542 29.4046 37.0901 20.0634 37.0901V37.8901C29.8482 37.8901 38.1423 29.5942 38.1423 19.7484H37.3423ZM20.0634 2.65829C29.5979 2.65829 37.3423 10.3472 37.3423 19.7484H38.1423C38.1423 9.89789 30.0322 1.85829 20.0634 1.85829V2.65829ZM2.91046 19.7484C2.91046 10.3444 10.5947 2.65829 20.0634 2.65829V1.85829C10.1547 1.85829 2.11046 9.90067 2.11046 19.7484H2.91046ZM5.30988 28.4182C3.77004 25.7697 2.91046 22.7558 2.91046 19.7484H2.11046C2.11046 22.9065 3.01235 26.0582 4.61827 28.8203L5.30988 28.4182ZM5.44767 28.692L5.32182 28.4403L4.60632 28.7982L4.73217 29.0498L5.44767 28.692ZM3.14753 37.3456L5.47529 28.9781L4.70456 28.7637L2.3768 37.1312L3.14753 37.3456ZM11.1498 34.5249L2.65644 36.8526L2.86789 37.6242L11.3612 35.2964L11.1498 34.5249ZM11.6861 34.6787L11.4344 34.5529L11.0766 35.2684L11.3282 35.3942L11.6861 34.6787ZM32.2892 22.5774L27.4661 20.3999L27.1369 21.129L31.9601 23.3065L32.2892 22.5774ZM33.3569 24.6822C33.5565 23.8008 33.0557 22.9529 32.3007 22.5828L31.9486 23.3011C32.4186 23.5315 32.6832 24.0351 32.5767 24.5055L33.3569 24.6822ZM33.1279 25.7304L33.3576 24.6792L32.576 24.5085L32.3464 25.5597L33.1279 25.7304ZM30.5729 29.365C31.8982 28.5526 32.7994 27.1802 33.1272 25.7335L32.347 25.5567C32.0623 26.8131 31.2794 27.9936 30.1548 28.6829L30.5729 29.365ZM26.7656 30.4C28.1451 30.4 29.4367 30.002 30.5594 29.3729L30.1683 28.675C29.1473 29.2471 27.9892 29.6 26.7656 29.6V30.4ZM24.4326 30.0834C25.2435 30.322 26.0487 30.4 26.7656 30.4V29.6C26.1045 29.6 25.3785 29.5279 24.6584 29.316L24.4326 30.0834ZM11.283 20.6984C12.5983 22.5197 16.6476 27.9457 24.4395 30.0854L24.6514 29.314C17.1319 27.2491 13.2191 22.0129 11.9315 20.23L11.283 20.6984ZM8.76645 12.1203C8.19799 14.7488 9.1008 17.794 11.2875 20.7045L11.9271 20.224C9.82642 17.428 9.0451 14.6165 9.54837 12.2894L8.76645 12.1203ZM11.2679 8.2992C10.5683 8.90907 9.17926 10.258 8.76689 12.1183L9.54793 12.2914C9.90119 10.6978 11.1151 9.49375 11.7936 8.90221L11.2679 8.2992ZM13.2916 7.6C12.6321 7.6 11.8178 7.75889 11.2506 8.31513L11.8108 8.88628C12.1623 8.54151 12.726 8.4 13.2916 8.4V7.6ZM14.7668 7.67559L13.3122 7.60053L13.2709 8.39947L14.7256 8.47452L14.7668 7.67559ZM16.4142 8.81589C16.1335 8.17361 15.547 7.67506 14.7462 7.67506V8.47506C15.1703 8.47506 15.5025 8.7274 15.6812 9.13624L16.4142 8.81589ZM18.4822 13.6235L16.4151 8.81801L15.6802 9.13412L17.7473 13.9396L18.4822 13.6235ZM18.1899 15.6173C18.6743 15.0472 18.7705 14.2832 18.4812 13.6213L17.7482 13.9417C17.9183 14.331 17.8615 14.7683 17.5802 15.0993L18.1899 15.6173ZM16.5036 17.5718L18.1879 15.6196L17.5822 15.097L15.8979 17.0492L16.5036 17.5718ZM23.7693 23.1689C22.4158 22.6527 18.7014 21.0445 16.5516 17.1184L15.8499 17.5026C18.1404 21.6858 22.0817 23.3815 23.4842 23.9164L23.7693 23.1689ZM25.1502 20.9671L23.3128 23.2948L23.9408 23.7905L25.7781 21.4628L25.1502 20.9671ZM27.4613 20.3978C26.5886 20.0174 25.7189 20.3157 25.163 20.9517L25.7653 21.4782C26.1281 21.0631 26.6364 20.9109 27.1417 21.1311L27.4613 20.3978ZM30.74 25.1779C30.5326 26.0595 29.9789 26.8676 29.2333 27.3329L29.6568 28.0116C30.5955 27.4258 31.2668 26.4317 31.5187 25.3611L30.74 25.1779ZM31.0516 24.1065L30.7453 25.1576L31.5134 25.3814L31.8197 24.3303L31.0516 24.1065ZM26.4479 22.4055L31.2711 24.583L31.6002 23.8538L26.7771 21.6763L26.4479 22.4055ZM25.0929 24.6866L26.9302 22.2839L26.2947 21.7979L24.4574 24.2007L25.0929 24.6866ZM23.2125 25.2793C23.8967 25.4711 24.5945 25.2739 25.0799 24.7027L24.4703 24.1846C24.1901 24.5144 23.816 24.6176 23.4285 24.509L23.2125 25.2793ZM14.4686 17.9472C17.0665 22.8888 21.7796 24.8112 23.1962 25.2743L23.4448 24.514C22.1053 24.076 17.6315 22.2442 15.1767 17.5749L14.4686 17.9472ZM14.6658 16.0816C14.262 16.5766 14.1627 17.3472 14.4663 17.9427L15.179 17.5794C15.0232 17.2736 15.0771 16.843 15.2858 16.5872L14.6658 16.0816ZM16.5167 14.0385L14.6794 16.0657L15.2722 16.603L17.1095 14.5757L16.5167 14.0385ZM14.3796 9.73684L16.4466 14.4672L17.1797 14.1469L15.1126 9.41652L14.3796 9.73684ZM13.1759 9.82457L14.7071 9.97477L14.7852 9.17859L13.254 9.02839L13.1759 9.82457ZM12.8825 9.93731C12.9433 9.87771 13.0625 9.82648 13.2149 9.82648V9.02648C12.9081 9.02648 12.5679 9.12536 12.3224 9.36616L12.8825 9.93731ZM11.0786 12.5934C11.3547 11.3748 12.2625 10.4705 12.8629 9.9553L12.342 9.34817C11.7175 9.88405 10.6347 10.9321 10.2984 12.4166L11.0786 12.5934ZM13.1534 19.3247C11.3525 16.8961 10.6551 14.4622 11.0786 12.5934L10.2984 12.4166C9.80314 14.6023 10.637 17.2742 12.5108 19.8012L13.1534 19.3247ZM25.034 27.812C18.0512 25.8974 14.3684 20.9632 13.1534 19.3247L12.5108 19.8012C13.7456 21.4665 17.5655 26.5938 24.8224 28.5836L25.034 27.812ZM29.2307 27.3345C28.0428 28.0884 26.6317 28.2394 25.0315 27.8114L24.8248 28.5842C26.5931 29.0572 28.2443 28.908 29.6594 28.01L29.2307 27.3345Z" fill="white" fill-opacity="0.85" mask="url(#path-1-outside-1_226_1518)"/>
</svg>
